<mxfile host="app.diagrams.net" modified="2021-04-04T09:44:57.869Z" agent="5.0 (Windows NT 10.0; Win64; x64) AppleWebKit/537.36 (KHTML, like Gecko) Chrome/89.0.4389.114 Safari/537.36" etag="18NtSX8CvU9eb9aXxBHl" version="14.5.7" type="github">
  <diagram id="C5RBs43oDa-KdzZeNtuy" name="Page-1">
    <mxGraphModel dx="981" dy="549" grid="1" gridSize="10" guides="1" tooltips="1" connect="1" arrows="1" fold="1" page="1" pageScale="1" pageWidth="827" pageHeight="1169" math="0" shadow="0">
      <root>
        <mxCell id="WIyWlLk6GJQsqaUBKTNV-0" />
        <mxCell id="WIyWlLk6GJQsqaUBKTNV-1" parent="WIyWlLk6GJQsqaUBKTNV-0" />
        <mxCell id="yYA8-dyRNDgJFtu62r0G-0" value="" style="shape=image;verticalLabelPosition=bottom;labelBackgroundColor=#ffffff;verticalAlign=top;aspect=fixed;imageAspect=0;image=data:image/jpeg,/9j/4AAQSkZJRgABAQEAYABgAAD/2wBDAAMCAgMCAgMDAwMEAwMEBQgFBQQEBQoHBwYIDAoMDAsKCwsNDhIQDQ4RDgsLEBYQERMUFRUVDA8XGBYUGBIUFRT/2wBDAQMEBAUEBQkFBQkUDQsNFBQUFBQUFBQUFBQUFBQUFBQUFBQUFBQUFBQUFBQUFBQUFBQUFBQUFBQUFBQUFBQUFBT/wAARCANSAzgDASIAAhEBAxEB/8QAHwAAAQUBAQEBAQEAAAAAAAAAAAECAwQFBgcICQoL/8QAtRAAAgEDAwIEAwUFBAQAAAF9AQIDAAQRBRIhMUEGE1FhByJxFDKBkaEII0KxwRVS0fAkM2JyggkKFhcYGRolJicoKSo0NTY3ODk6Q0RFRkdISUpTVFVWV1hZWmNkZWZnaGlqc3R1dnd4eXqDhIWGh4iJipKTlJWWl5iZmqKjpKWmp6ipqrKztLW2t7i5usLDxMXGx8jJytLT1NXW19jZ2uHi4+Tl5ufo6erx8vP09fb3+Pn6/8QAHwEAAwEBAQEBAQEBAQAAAAAAAAECAwQFBgcICQoL/8QAtREAAgECBAQDBAcFBAQAAQJ3AAECAxEEBSExBhJBUQdhcRMiMoEIFEKRobHBCSMzUvAVYnLRChYkNOEl8RcYGRomJygpKjU2Nzg5OkNERUZHSElKU1RVVldYWVpjZGVmZ2hpanN0dXZ3eHl6goOEhYaHiImKkpOUlZaXmJmaoqOkpaanqKmqsrO0tba3uLm6wsPExcbHyMnK0tPU1dbX2Nna4uPk5ebn6Onq8vP09fb3+Pn6/9oADAMBAAIRAxEAPwD4MoooqwCiiigAooooAKKKKACiiigAooooAKKKKACiiigAooooAKKKKACiiigAooooAKKKKACiiigAooooAKKKKACiiigAooooAKKKKACiiigAooooAKKKKACiiigAooooAKKKKACiiigAooooAKKKKACiiigAooooAKKKKACiiigAooooAKKKKACiiigAooooAKKKKACiiigAooooAKKKKACiiigAooooAKKKKACiiigAooooAKKKKACiiigAooooAKKKKACiiigAooooAKKKKACiiigAooooAKKKKACiiigAooooAKKKKACiiigAooooAKKKKACiiigAooooAKKKKACiiigAooooAKKKKACiiigAooooAKKKKACiiigAooooAKKKKACiiigAooooAKKKKACiiigAooooAKKKKACiiigAooooAKKKKACiiigAooooAKKKKACiiigAooooAKKKKACiiigAooooAKKKKACiiigAooooAKKKKACiiigAooooAKKKKACiiigAooooAKKKKACiiigAooooAKKKKACiiigAooooAKKKKACiiigAooooAKKKKACiiigAooooAKKKKACiiigAooooAKKKKACiiigAooooAKKKKACiiigAooooAKKKKACiiigAooooAKKKnsbObUby3tLdPMnnkWKNB/EzHAH5mmk5OyE2krsSzs7jULhILWCS5nc4WKFC7MfYDk1tD4e+KiMjwzrBH/XhL/8AE1+sH7Nf7NPhz4G+D9P/AOJdBdeK5oVkv9TmQNIJCAdiZ+4F6cc5zzzXuSXUyqAJpAB0G416v1alT0ndvyaS/J3/AAPP9tVqawsl5pt/mrH4Xf8ACvPFX/Qs6x/4AS//ABNH/CvPFX/Qs6x/4AS//E1+6y3c/wDz2k/76NPW6n/57Sf99Gj2WH/ll/4Ev/kR81f+Zf8AgL/+SPwm/wCFeeKv+hZ1j/wAl/8AiaP+FeeKv+hZ1j/wAl/+Jr93VupuP30n/fRqRbqbj96//fRqfZ4f+WX/AIEv/kQ5q/8AMv8AwF//ACR+D3/CvPFX/Qs6x/4AS/8AxNH/AArzxV/0LOsf+AEv/wATX7yC5mz/AK1/++jUi3EvH71/++jS9nh/5Zf+BL/5EfNX/mX/AIC//kj8F/8AhXnir/oWdY/8AJf/AImj/hXnir/oWdY/8AJf/ia/exbiX/no/wD30aetxL/z0b/vo0uTD/yy/wDAl/8AIjviP5l/4C//AJI/BD/hXnir/oWdY/8AACX/AOJo/wCFeeKv+hZ1j/wAl/8Aia/fNZ5OP3jfmalWaTj52/M0uXD/AMsv/Al/8iF8R/Mv/AX/APJH4D/8K88Vf9CzrH/gBL/8TR/wrzxV/wBCzrH/AIAS/wDxNfv2s0n99vzNSLK/Hzt+dK2H/ll/4Ev/AJEP9o/mX/gL/wDkj8AP+FeeKv8AoWdY/wDACX/4mj/hXnir/oWdY/8AACX/AOJr+gNZH/vN+dPWR8feb86X+z/yS/8AAl/8iP8A2j+Zf+Av/wCSP5+f+FeeKv8AoWdY/wDACX/4mj/hXnir/oWdY/8AACX/AOJr+gpZGz94/nT1dv7x/Ol/s38kv/Al/wDIj/2j+Zf+Av8A+SP58v8AhXnir/oWdY/8AJf/AImj/hXnir/oWdY/8AJf/ia/oQV2x94/nUisfU1N8N/JL/wJf/IjtiP5l/4C/wD5I/nr/wCFeeKv+hZ1j/wAl/8AiaP+FeeKv+hZ1j/wAl/+Jr+hlWPrTweOtLmw38kv/Al/8iFsR/Mv/AX/APJH88TfD3xSoyfDWsAepsJf/iawpoZLeVopY2ikU4ZHBBB9CDX9FWmeIdI8RzX9rZX1rqEljN9nu4YpFkMUgAO1wOh9jXyj+3f+x74d+JXw51Txd4d0qDTPGGkQtc77SMRrdxLy6OowM4yQ31604xo1nyU01J7Xad/LZW/H5A51aS5qlmlvZWt+LufkBRRRXGdYUUUUAFFFFABRRRQAUUUUAFFFFABRRRQAUUUUAFFFFABRRRQAUUUUAFFFFABRRRQAUUUUAFFFFABRRRQAUUUUAFFFFABRRRQAUUUUAFFFFABRRRQAUUUUAFFFFABRRRQAUUUUAFFFFABRRRQAUUUUAFFFFABRRRQAUUUUAFFFFABRRRQAUUUUAFFFFABRRRQAUUUUAFFFFABXQ/Dz/koHhn/sJ2v/AKNWuerofh3/AMlA8M/9hO1/9GrXXg/95p/4l+Zy4r/d6no/yP3S1UBdWvQBgCeT/wBCNfCXi34L6l8Z/wBpT426fpGm+H7TUIL3w7LF4vvpXXU9E2W8chkslSElnIQ/8tohkDO4cV93at/yGL7/AK7yf+hGsmx8P6Xpuqahqdpptna6lqJjN7eQwIk11sXanmOBl9q8DcTgcCuqK1jPt/wH+hKlyqSXX/M+ZD+0v4/svh/498Vzw+G3ttK8WS+ENKt/sVwojf7ZHbx3l3N5+DGoky0aIuSow65wHX/7Tnj3S/iBc/DWRPDMniYeKbLQYvFIsLhdM8ueya7O60+0l/OUJsCC4wxdTx0P0ingfw4uj6ppI8P6WNK1R5Zb+xFlH5F48v8ArWlTbtkL/wARYHd3zXJeK/gfol34AHhTwt4c8D6NpRuxdSabq3hWO/01mwct9ljlgUSZ2nfk4weDnIztKKV9bct/O3Lf77S13963RD0bdtL3t5b29baabaX6s8N+Hf7TnxQ8eeNvDHhFJPBtve3+t+IdLu9Vj0y6lg8vTvJ2SRRfawcvvYEGTAyCPu4at4w/bU8U+HvFmrro0OleIfCk2m6/NpGqyaLLYobrTofNMeWvXkuEVg0Tv5MAZhmMsAce9/Bb9n/w78H/AA3plottZatrdrPdXh1ltOhgdJ7lgZ/IRR+4jbCqI1OAqKCWxmugX4I/DptSvdRPgDwudQvvON1df2NbebcecpWbzH2ZbeCQ2SdwJBzUyjLkik9eVpvvJq1/kOEoqTclpzX+V27fkvTz1PlrxB+1l8XPDtj4qu3/AOEKul0Lwjpfi9o10e8Qyx3TENag/bDhlHImxjjHl85X7a066+3WNtcbdnnRrJtznGQDjNc7cfDHwdeR3cdx4T0OeO8so9OuVk02FhNax/6uBwV+aJf4UPyjsK6iGNYo0RFCIowqqMAAdABWj3fbp97/AE5V8m+pnFOyu9ev3R/Xmfz8iVakWo1qRazNUSL2qVe1RL2qVe1SMevWpV7VEvWpV7VAEi09elMWnr0qSiRetPWmL1p61LGSL0qRajXpUi1BRKtcX8ZrrVLX4d6n/Y8uoRajIFii/smAS3LFmA2x5OEJzjzDwmd2Diu0WpOoqGM+VfA3wh8X/CXxr4R1SRYbW2vtlreNodsZTb5Yt9musnM6HJIuW+dHLE5U4H0R8Uf+SX+L/wDsDXn/AKIeumxkjIzXNfFL/kmHjD/sD3n/AKIeunB/7zT/AMS/M58V/u9T0f5H88dFFFcx1BRRRQAUUUUAFFFFABRRRQAUUUUAFFFFABRRRQAUUUUAFFFFABRRRQAUUUUAFFFFABRRRQAUUUUAFFFFABRRRQAUUUUAFFFFABRRRQAUUUUAFFFFABRRRQAUUUUAFFFFABRRRQAUUUUAFFFFABRRRQAUUUUAFFFFABRRRQAUUUUAFFFFABRRRQAUUUUAFFFFABRRRQAUUUUAFdD8O/8AkoHhn/sJ2v8A6NWuerofh3/yUDwz/wBhO1/9GrXXg/8Aeaf+JfmcuK/3ep6P8j909W/5DF9/13k/9CNfLi+L9DudD8X3WoeO72L4sW0Gph9AbxBcWkloiGTyxHpolVNqxbGWbymLDEm9s7q+o9W/5DF9/wBd5P8A0I1AvautLZ+Rm+qPlm//AGrtXW++IUNlrHhdbTRZV+xahfJaQJCBcmKSGVX1ZQ82CoCztZHOTsOQtem/Cj4v3fjf4ja5oU+u6FqNvaWFvd29vpdptnw6RlpJj9rkeEktkQzQRHDja8ux2r11akWphFxS5nf+v6/HrZqpvmba0/pEi9qlXtUS9qlXtQxD161Ivao161IvapGSLUi1GtSLUFokXtUq9qiXtUq9qkY9etSr2qJetSr2qAJFp69KYtPXpUlEi9aetMXrT1qWMkXpUi1GvSpFqCiVakXpUa1IvSoYEi9a5r4pf8kw8Yf9ge8/9EPXSr1rmvil/wAkw8Yf9ge8/wDRD11YT/eaf+Jfmc+J/wB3qej/ACP546KKK5TrCiiigAooooAKKKKACiiigAooooAKKKKACiiigAooooAKKKKACiiigAooooAKKKKACiiigAooooAKKKKACiiigAooooAKKKKACiiigAooooAKKKKACiiigAooooAKKKKACiiigAooooAKKKKACiiigAooooAKKKKACiiigAooooAKKKKACiiigAooooAKKKKACiiigAooooAK6H4d/wDJQPDP/YTtf/Rq1z1dD8O/+SgeGf8AsJ2v/o1a68H/ALzT/wAS/M5cV/u9T0f5H7p6t/yGL7/rvJ/6EagXtW3feH5ri/uZhLGoklZwDnjJJqMeHZh/y1j/AF/wroVSNlqTyu5mLUi1ojw/N/z1j/X/AApw0Gb/AJ6R/r/hR7SPcfKygvapV7VcGhyj/lon6/4U9dHlH8afr/hU88Q5WU161IvarX9ky/30/X/CnDTJB/Gn6/4VPPEfKyutSLUw0+T+8n5n/CnCxk/vL+Z/wqeZFJMjXtUq9qUWbjuv5n/CnrbuO6/mf8KnmQ7CL1qVe1NEL/7P5n/CnhGH938//rVN0Fh609elRjcOy/n/APWpwZvQfn/9apuUTL1p61AJD6D8/wD61OExH8I/P/61IZZXpUi1UFwf7o/P/wCtTheH+4Pz/wDrVAy8tSL0qgt9j+D9f/rU7+0f+mf/AI9/9apswNFetc18Uv8AkmHjD/sD3n/oh61/7UH/ADz/APHv/rVzfxO1LzPhr4tTy8btIvB97/pi/tXVhE/rNP8AxL8znxX+71PR/kfz4UUUVyHWFFFFABRRRQAUUUUAFFFFABRRRQAUUUUAFFFFABRRRQAUUUUAFFFFABRRRQAUUUUAFFFFABRRRQAUUUUAFFFFABRRRQAUUUUAFFFFABRRRQAUUUUAFFFFABRRRQAUUUUAFFFFABRRRQAUUUUAFFFFABRRRQAUUUUAFFFFABRRRQAUUUUAFFFFABRRRQAUUUUAFFFFABRRRQAV0Pw7/wCSgeGf+wna/wDo1a56uh+Hf/JQPDP/AGE7X/0atdeD/wB5p/4l+Zy4r/d6no/yP6BJP9Y31NUdT1ix0WKCW/u4bOOe4itYmmYKHmlcJGg9WZmAA96vSf6xvqa8O+JH7Pev/Ev4teFvFd94+NvofhzUrbUbLw7DpR8vdFIrndJ5/wAzttI37flB4XrnJt20Nke315l4L+OVj4kX4gvqtg3h2DwffXMM09xOHjuLSIuPtanA2qWhnUqehibk9a9NrxGX4C6tcapZTjU7O1tZtb1CfWYY1djfabNdtdxQBvlw4kWNWByuyWcDO4GlrzW6NP5O6s/z+V93YenLfrdfNWd/0+dulze8JftAeHL74Y6Z4z8Y3+lfD62vby4sRFreqwxIs0U8sXl+a+xWc+SzbR0wRzjNVfEH7S3hDTNW17RtP1Gw1TXdD1LTLC+09dQhWSNbu5t4DNhSzBY/tALblHzLtyM5rzzXP2afE/2Pw/PbfZdYurGXXIp9Oi8W6p4ejeG+vzdI4urJC7FVVVaJ4ypLEhhsG7oNW+AusXdrqXh+107Qk8J3svh64EN1qE87xCwntfNtTG8B82Mw27bZGfLMQrIBlqpayj25lf09fRX0720a1mO6Uvn96/r5X1W3qMfxb8DS+C38YJ4z8PP4SRtja8uqwGwVt+zBn3+WDuIX73U460upfFjwRovh/Stdv/GPh+x0TVmWPTtSudUgjtr1mBKLDIX2yFgCQFJyBXnfiD4Q+KLXxdqPinQo9C1G+j8VLr9hpeqXMtvBLG2kxWEgeZIZDDKGEkisscgIwDguSufpvwh8ceGdesPFVhYeFdT1m6GqLqGjXV9Nb2ViL64hmZraZbaRpSPJw4aOPzmdnzH90r07fjZO3zel9luxySS3/wCG11+XbrfQ9A8IfGvwx4i07wkuoazpOheIfEtkl5Y+H7nUovtcykEkRIxV5QMNyq9j6V39fP3gH4L+NvAOo+AYdMOjaZbabpVjpuv6lY6pNtv4rdZcW6ac9q0YQGQ7JlnikXdzvVdj/QNXpr6v7un9fhazcve3kv6/r/hiiiikMKKKKACiiigAooooAKKKKACiiigArnfiR/yTrxX/ANgi8/8ARD10Vc78SP8AknXiv/sEXn/oh66sJ/vFP/EvzOXFfwKno/yP5/qKKK807wooooAKKKKACiiigAooooAKKKKACiiigAooooAKKKKACiiigAooooAKKKKACiiigAooooAKKKKACiiigAooooAKKKKACiiigAooooAKKKKACiiigAooooAKKKKACiiigAooooAKKKKACiiigAooooAKKKKACiiigAooooAKKKKACiiigAooooAKKKKACiiigAooooAKKKKACuh+Hf8AyUDwz/2E7X/0atc9XQ/Dv/koHhn/ALCdr/6NWuvB/wC80/8AEvzOXFf7vU9H+R/Qe2lzMzHK8n1pP7Lm9V/OteiuTnZ0cqMdtNlRSWZFHqWrO0LUdP8AFFq9zo+qWOqW6SNC0tnOsqq6nDKSueQeCO1cL+0xbLeaD4aivry5sPDp1bOs3EMbPCtqLacqLlVHNuZhAJN2F2k7iFyR5r8PdYsvEvxS8JarotzYQ30OoXmnapZeG4StsdPt47uCKe7ZSVw00MLQKxBVZCF3gM1d9Oi50nUv+Hrp87f1c2jRvHmPpb+y5vVfzo/sub1X861UkWQZRgw9VOa86/aG1rxJoPwl1a58IalFo/iSSeztbG+uIFnjhkmu4YssjAhlw5yOuDxg4Nee6jirmSjd2Ow/sub1X86P7Lm9V/OvEPH3x31i4s/hp/wjztplzqWpadJryeTHI1tDJexWclo4fJRmleZdwGQLWXBBwa0PFP7VHhax8ReP/Bt0dT0XXPDmi32qSTWN7pN1dGGCJXeSGBbmV45NsiOgu4Y1bjIIyKtSk1da6tevKlf8wjHmkodXb/yZtL8j1/8Asub1X86P7Lm9V/OvPbj9oPS9K8WXHh+TQPEl5b6dqdlomoeIvs9utlbXN1Fbvbbz5qu/mNcxofKjbYx+cIpRm9Zo5pWv0/4Z/k0/mSknb7zI/sub1X86P7Lm9V/OteilzsfKjI/sub1X86P7Lm9V/OteijnYcqMj+y5vVfzo/sub1X8616KOdhyoyP7Lm9V/Oj+y5vVfzrXoo52HKjI/sub1X86P7Lm9V/OteijnYcqMj+y5vVfzo/sub1X8616KOdhyoyP7Lm9V/Oub+JmnSxfDfxY5K4XSLw9f+mD13dct8VP+SYeL/wDsD3n/AKIeuvBzf1mn/iX5nNior6vU9H+R/PFRRRXGdYUUUUAFFFFABRRRQAUUUUAFFFFABRRRQAUUUUAFFFFABRRRQAUUUUAFFFFABRRRQAUUUUAFFFFABRRRQAUUUUAFFFFABRRRQAUUUUAFFFFABRRRQAUUUUAFFFFABRRRQAUUUUAFFFFABRRRQAUUUUAFFFFABRRRQAUUUUAFFFFABRRRQAUUUUAFFFFABRRRQAUUUUAFFFFABXQ/Dv8A5KB4Z/7Cdr/6NWueq5o+pSaLq1jqEIBmtJ0nQN03KwYfqK3w81TrQnLZNP8AExrQdSlKC3aaP6OqK8r/AGcPjroPx6+Gek67pN5G96IFjvrPcPNt5gMMGXqASMg9PfivVKxqU3Sm4SKpzVSKkhGUOpDAMPQjNeU/GT4S3utfB7XPDHw7g0nw5q19NFNGZIVitWPno84lVUYOsiK6srIwcMVYEE16vRUXdrGh5B+zT8NPFPwt8Ka3pniifT5GuNWlutPt9LZPItLRo4wkQWOCCNW3K7N5cSKzOz43O1eieMPCdp420M6XfSTRW5ube63W7APuhnSZBkgjBaNQeOhPTrW3RSA82m+APheS61i4iN/by6rr9l4iuDHcbgtxbSJKkaBgQkTSIzsg6tNKQQW45p/2UtDuItXtLrxX4ou9JvbXVrO30uSW0WDT49SZmuvKKWwd2LNlWneUrjrgsD7dRQtFyrb/AICX5JL0Gm4z51v3+bf5tvzOCvvgzot/HrySXV+BrOuadr9xtkT5biz+yeUqfJwh+wxbgck7nwRkY72iinzO1v62S/JIXRLsFFFFIAooooAKKKKACiiigAooooAKKKKACuW+Kn/JMPF//YHvP/RD11NfO/7bX7Q2ifBH4O61by3UM3iLV7Z7Ky04MC58xSpdhnIQDPP5Zwa7MH/vEJdE036J6nLiv4M49Wml6s/EGiiiuY6gooooAKKKKACiiigAooooAKKKKACiiigAooooAKKKKACiiigAooooAKKKKACiiigAooooAKKKKACiiigAooooAKKKKACiiigAooooAKKKKACiiigAooooAKKKKACiiigAooooAKKKKACiiigAooooAKKKKACiiigAooooAKKKKACiiigAooooAKKKKACiiigAooooAKKKKACiiigDofBPxC8S/DnVBqXhjW7zRL0f8trOUoTjpkdD+PrXpH/DaHxw/wCim69/3/H+FeLUV0QxFamuWE2l5NmEsPRm+acE36I9p/4bQ+OH/RTde/7/AI/wo/4bQ+OH/RTde/7/AI/wrxair+uYn/n5L72R9Vw//Ptfcj2n/htD44f9FN17/v8Aj/Cj/htD44f9FN17/v8Aj/CvFqKPrmJ/5+S+9h9Vw/8Az7X3I9p/4bQ+OH/RTde/7/j/AAo/4bQ+OH/RTde/7/j/AArxaij65if+fkvvYfVcP/z7X3I9p/4bQ+OH/RTde/7/AI/wo/4bQ+OH/RTde/7/AI/wrxaij65if+fkvvYfVcP/AM+19yPaf+G0Pjh/0U3Xv+/4/wAKP+G0Pjh/0U3Xv+/4/wAK8Woo+uYn/n5L72H1XD/8+19yPaf+G0Pjh/0U3Xv+/wCP8KP+G0Pjh/0U3Xv+/wCP8K8Woo+uYn/n5L72H1XD/wDPtfcj2n/htD44f9FN17/v+P8ACj/htD44f9FN17/v+P8ACvFqKPrmJ/5+S+9h9Vw//Ptfcj2n/htD44f9FN17/v8Aj/Cj/htD44f9FN17/v8Aj/CvFqKPrmJ/5+S+9h9Vw/8Az7X3I9p/4bQ+OH/RTde/7/j/AAo/4bQ+OH/RTde/7/j/AArxaij65if+fkvvYfVcP/z7X3I9p/4bQ+OH/RTde/7/AI/wo/4bQ+OH/RTde/7/AI/wrxaij65if+fkvvYfVcP/AM+19yPaf+G0Pjh/0UzXv+/4/wAK8t8UeLNZ8a6tLqmvandatqEv3ri6kLt9BnoPYVkUVnPEVqi5ZzbXm2XChSpvmhBJ+SQUUUVgbhRRRQAUUUUAFFFFABRRRQAUUUUAFFFFABRRRQAUUUUAFFFFABRRRQAUUUUAFFFFABRRRQAUUUUAFFFFABRRRQAUUUUAFFFFABRRRQAUUUUAFFFFABRRRQAUUUUAFFFFABRRRQAUUUUAFFFFABRRRQAUUUUAFFFFABRRRQAUUUUAFFFFABRRRQAUUUUAFFFFABRRRQAUUUUAFFFFABRRRQAUUUUAFFFFABRRRQAUUUUAFFFFABRRRQAUUUUAFFFFABRRRQAUUUUAFFFFABRRRQAUUUUAFFFFABRRRQAUUUUAFFFFABRRRQAUUUUAFFFFABRRRQAUUUUAFFFFABRRRQAUUUUAFFFFABRRRQAUUUUAFFFFABRRRQAUUUUAFFFFABRRRQAUUUUAFFFFABRRRQAUUUUAFFFFABRRRQAUUUUAFFFFABRRRQAUUUUAFFFFABRRRQAUUUUAFFFFABRRRQAUUUUAFFFFABRRU9jZzajeW9pbp5k88ixRoP4mY4A/M00nJ2Qm0ldiWdncahcJBawSXM7nCxQoXZj7AcmtofD3xURkeGdYI/68Jf8A4mv1g/Zr/Zp8OfA3wfp//EuguvFc0KyX+pzIGkEhAOxM/cC9OOc555r3JLqZVAE0gA6Dca9X6tSp6Tu35NJfk7/gef7arU1hZLzTb/NWPwu/4V54q/6FnWP/AAAl/wDiaP8AhXnir/oWdY/8AJf/AImv3WW7n/57Sf8AfRp63U//AD2k/wC+jR7LD/yy/wDAl/8AIj5q/wDMv/AX/wDJH4Tf8K88Vf8AQs6x/wCAEv8A8TR/wrzxV/0LOsf+AEv/AMTX7urdTcfvpP8Avo1It1Nx+9f/AL6NT7PD/wAsv/Al/wDIhzV/5l/4C/8A5I/B7/hXnir/AKFnWP8AwAl/+Jo/4V54q/6FnWP/AAAl/wDia/eQXM2f9a//AH0akW4l4/ev/wB9Gl7PD/yy/wDAl/8AIj5q/wDMv/AX/wDJH4L/APCvPFX/AELOsf8AgBL/APE0f8K88Vf9CzrH/gBL/wDE1+9i3Ev/AD0f/vo09biX/no3/fRpcmH/AJZf+BL/AORHfEfzL/wF/wDyR+CH/CvPFX/Qs6x/4AS//E0f8K88Vf8AQs6x/wCAEv8A8TX75rPJx+8b8zUqzScfO35mly4f+WX/AIEv/kQviP5l/wCAv/5I/Af/AIV54q/6FnWP/ACX/wCJo/4V54q/6FnWP/ACX/4mv37WaT++35mpFlfj52/OlbD/AMsv/Al/8iH+0fzL/wABf/yR+AH/AArzxV/0LOsf+AEv/wATR/wrzxV/0LOsf+AEv/xNf0BrI/8Aeb86esj4+8350v8AZ/5Jf+BL/wCRH/tH8y/8Bf8A8kfz8/8ACvPFX/Qs6x/4AS//ABNH/CvPFX/Qs6x/4AS//E1/QUsjZ+8fzp6u394/nS/2b+SX/gS/+RH/ALR/Mv8AwF//ACR/Pl/wrzxV/wBCzrH/AIAS/wDxNH/CvPFX/Qs6x/4AS/8AxNf0IK7Y+8fzqRWPqam+G/kl/wCBL/5EdsR/Mv8AwF//ACR/PX/wrzxV/wBCzrH/AIAS/wDxNH/CvPFX/Qs6x/4AS/8AxNf0Mqx9aeDx1pc2G/kl/wCBL/5ELYj+Zf8AgL/+SP54m+HvilRk+GtYA9TYS/8AxNYU0MlvK0UsbRSKcMjggg+hBr+irTPEOkeI5r+1sr611CSxm+z3cMUiyGKQAHa4HQ+xr5R/bv8A2PfDvxK+HOqeLvDulQaZ4w0iFrnfaRiNbuJeXR1GBnGSG+vWnGNGs+SmmpPa7Tv5bK34/IHOrSXNUs0t7K1vxdz8gKKKK4zrCiiigAooooAKKKKACiiigAooooAKKKKACiiigAooooAKKKKACiiigAooooAKKKKACiiigAooooAKKKKACiiigAooooAKKKKACiiigAooooAKKKKACiiigAooooAKKKKACiiigAooooAKKKKACiiigAooooAKKKKACiiigAooooAKKKKACiiigAooooAKKKKACiiigAooooAK6H4ef8lA8M/9hO1/9GrXPV0Pw7/5KB4Z/wCwna/+jVrrwf8AvNP/ABL8zlxX+71PR/kfulqoC6tegDAE8n/oRr8/PiF4vf4G/tZfFH4ubJZ9O06Sy0PVLdG4aKfSVltzjpn7RBEmf+mtfoJq3/IYvv8ArvJ/6Ea5u+8A+GNW/tL7d4c0m9/tSSGW/wDtFjFJ9reLHktLlfnKbV2ls7cDGMVvKDkk07O2/ra/4XXzCElFtNXT/pfc7P5HxP8As0axf/s++C/jK+r6olr4rfXNLDPNpkupG51S7s4JXgWBJYi7ySyui5kRQSCSFBpmoftO+INW1zR/Eut+EtDHjbwnB4yto7iaOdBDLZW8TDEUV5JGN4ZVkBkl+6dkgzmvtrUvhv4S1y11i21Hwtot/bazIk2pw3WnwyJfSIFCPMGUiRlCqAWyRtGOlVLX4M/D+ztRb2/gXw1BbhZ0EUekW6ptnUJOMBMYkVVV/wC8FAOQKUoyt7unu2Xk+VJP5a+qa7akZJW5tfeu/NXba+enpZ99PjX48fGLxV8RPhb418B+M49FuINQ8M+HfElvcaJaTWpijutShSSCQSTy7yvy4ddvQ5Xnjzv4oalrfijw/wCFfAWoNKY/g3qlnZ6hM5P+kXMmrQ2tgx9c2aSvz/z0/L9Hbn4YeDdQZmuvCWh3LPaw2LGbTYXLW8Lh4YTleY0cBlXopAIANW7v4e+FdSk1B7zw1o92+pTw3N609hE5upYceTJKSvztHtXazZK4GMYp8q9opdOa9u9n7v8A4Cvx1M05eylCT1atfteKUv8AwJq/oeDah+0V8Sta+OXiDwz4P8G2epeG/C+s2Olau91JbxymOdEd7gTSXsbR4Eg2Ri2lEmw/OCdq8/bftX/EG38S6bcXdr4bn8OXvj/UvBCWNvYXC3iiFJWhuPONwUJJRQyeVyAcEZwPpbVfhf4N1/xTZ+JdU8JaFqXiOz2fZtYu9Nhlu4NhLJsmZS67SSRg8EnFWI/hz4TRrdl8L6KrQai2rxMNPhzHfNnddL8vExycyD5jk81koy5Um/6vG7+5SsunNo9rayle/Kv6tL9XHXrbY+R/FH7XXxE174O+EbrRLLTI/EPinwBrWvzHTbaV5ra7thGqfZ1MjYA3vkMHOUHPBB9P8P2vw0+BvwBl+LHgzw3pWs6zb+F5tS/tW12nUNZGxJZmnucGSUtIFZ2fcVOeB0r2Lw78IfAnhLW21jQ/BXh3RdXYyM2oafpUEFwTJjzCZEQN82Bu55wM1J4f+EXgXwrrV9rOieCvDuj6xfLJHd6hYaVBBcXCuwZ1kkRAzhmAJBJyQCamUZNSto5L7tZf/JJdPh27OFk482qT+/SP/wAi38/v+YPHH7XHxK+Gun6rZXsXhDxFrC+HtG8Q2epabY3MFlCLy+S1e3ljNzIznDF0kEiZC/crB+L3x4+LOpXGp+FIvEGkaPq/hj4j6Dos+q6Lpl1BFe212scsYeP7YWVQ25ZE8zEqkKCnJP11pHwT+Heg6LeaPpvgLwxp2k30kc11YWujW0UFxJGd0byRqgVmUgFSQSCMitLUvhf4N1yDWoNS8JaFqEOuSRy6rHdabDKuoPGAI2nDKfNKhRtL5xgY6U38Sl53+6UWl8knG/W92TG6Vm/L/wAlab+9qVum2x4TrH7Rnjzw74i+OdzcWug3/hz4Y2UE/wBitbCdb3U5JLDzz+9M5SFFfnPlyHaSOCu5vIP2kvjN4y1z4d674H8Wv4d1l59G8OeKoNX8M2k1rDAJtVhjNvIkk02/ONySB13AH5K+6NJ8H6Doc9/Lpuiabp8uoLGt5Ja2kcTXIjTy4xIVA3hUAUZzhRgcVjaP8EPhzoOi3uj6Z4A8L6dpF9JHNd2Fpo1tFBcSRndG8kaoFZlIBUkEgjIqY+7OMnqly/he/wB7s/lbZjl70bLR6/ja3romv+3r7pHxb8Ofjv428Ca14h8B/D3w9b6x4m8QeOfFmoRyXkcMyFbeaP8AdLHLe2YLMZASwlJRVJEb5+X6B8E/Gr4l+M/jd4f8F3On+HPDFt/whtl4n1mCaJ9QuFnkuGiltoJorhYtuBlZMPjHR88esax8Gfh/4j0uTTNW8C+GtU06S9fU3s73SLeaFrt8h7goyEGVsnL43HJya3NL8F+HtF1CK/07QdMsL6KyTTY7q1s445UtEOUtwyqCIlPIT7o7CoprkUFLXlSXraLS9Nbaa3t5tFz95za05m36XkpP8Lq+lrm6vWnrTF609aTGSL0qRajXpUi1BRKtcX8ZrrVLX4d6n/Y8uoRajIFii/smAS3LFmA2xknCE5x5h4TO7BxXaLUnUVDGfKngf4Q+L/hN418I6pIsNrbX2y2vG0O2Mpt8sT9musnM6HJIuW+dHLE5U4H0V8Uf+SX+L/8AsD3n/oh66XGSMjNc18Uv+SYeMP8AsD3n/oh66cH/ALzT/wAS/M58V/u9T0f5H88dFFFcx1BRRRQAUUUUAFFFFABRRRQAUUUUAFFFFABRRRQAUUUUAFFFFABRRRQAUUUUAFFFFABRRRQAUUUUAFFFFABRRRQAUUUUAFFFFABRRRQAUUUUAFFFFABRRRQAUUUUAFFFFABRRRQAUUUUAFFFFABRRRQAUUUUAFFFFABRRRQAUUUUAFFFFABRRRQAUUUUAFFFFABRRRQAUUUUAFdD8O/+SgeGf+wna/8Ao1a56uh+Hf8AyUDwz/2E7X/0atdeD/3mn/iX5nLiv93qej/I/dPVv+Qxff8AXeT/ANCNfLi+L9DudD8X3WoeO72L4sW0Gph9AbxBcWkloiGTyxHpolVNqxbGWbymLDEm9s7q+o9W/wCQxff9d5P/AEI1AvautLZ+Rm+qPlm//au1db74hQ2WseF1tNFlX7FqF8lpAkIFyYpIZVfVlDzYKgLO1kc5Ow5C16b8KPi/d+N/iNrmhT67oWo29pYW93b2+l2m2fDpGWkmP2uR4SS2RDNBEcONry7HavXVqRamEXFLmd/6/r8etmqm+ZtrT+kSL2qVe1RL2qVe1DEPXrUi9qjXrUi9qkZItSLUa1ItQWiRe1Sr2qJe1Sr2qRj161Kvaol61KvaoAkWnr0pi09elSUSL1p60xetPWpYyRelSLUa9KkWoKJVqRelRrUi9KhgSL1rmvil/wAkw8Yf9ge8/wDRD10q9a5r4pf8kw8Yf9ge8/8ARD11YT/eaf8AiX5nPif93qej/I/njooorlOsKKKKACiiigAooooAKKKKACiiigAooooAKKKKACiiigAooooAKKKKACiiigAooooAKKKKACiiigAooooAKKKKACiiigAooooAKKKKACiiigAooooAKKKKACiiigAooooAKKKKACiiigAooooAKKKKACiiigAooooAKKKKACiiigAooooAKKKKACiiigAooooAKKKKACiiigArofh3/wAlA8M/9hO1/wDRq1z1dD8O/wDkoHhn/sJ2v/o1a68H/vNP/EvzOXFf7vU9H+R+6erf8hi+/wCu8n/oRqBe1bd94fmuL+5mEsaiSVnAOeMkmox4dmH/AC1j/X/CuhVI2WpPK7mYtSLWiPD83/PWP9f8KcNBm/56R/r/AIUe0j3HysoL2qVe1XBoco/5aJ+v+FPXR5R/Gn6/4VPPEOVlNetSL2q1/ZMv99P1/wAKcNMkH8afr/hU88R8rK61ItTDT5P7yfmf8KcLGT+8v5n/AAqeZFJMjXtUq9qUWbjuv5n/AAp627juv5n/AAqeZDsIvWpV7U0Qv/s/mf8ACnhGH938/wD61TdBYetPXpUY3Dsv5/8A1qcGb0H5/wD1qm5RMvWnrUAkPoPz/wDrU4TEfwj8/wD61IZZXpUi1UFwf7o/P/61OF4f7g/P/wCtUDLy1IvSqC32P4P1/wDrU7+0f+mf/j3/ANapswNFetc18Uv+SYeMP+wPef8Aoh61/wC1B/zz/wDHv/rVzfxO1LzPhr4tTy8btIvB97/pi/tXVhE/rNP/ABL8znxX+71PR/kfz4UUUVyHWFFFFABRRRQAUUUUAFFFFABRRRQAUUUUAFFFFABRRRQAUUUUAFFFFABRRRQAUUUUAFFFFABRRRQAUUUUAFFFFABRRRQAUUUUAFFFFABRRRQAUUUUAFFFFABRRRQAUUUUAFFFFABRRRQAUUUUAFFFFABRRRQAUUUUAFFFFABRRRQAUUUUAFFFFABRRRQAUUUUAFFFFABRRRQAV0Pw7/5KB4Z/7Cdr/wCjVrnq6H4d/wDJQPDP/YTtf/Rq114P/eaf+JfmcuK/3ep6P8j+gST/AFjfU1R1PWLHRYoJb+7hs457iK1iaZgoeaVwkaD1ZmYAD3q9J/rG+prw74kfs96/8S/i14W8V33j42+h+HNSttRsvDsOlHy90Uiud0nn/M7bSN+35QeF65ybdtDZHt9eW6P8UPFWrf8ACWanL4e8NaZ4W0aTULeHVL/xLLFJJJauybp4/sWyCIlGLSCWQovO1ug9Srw28/Zs05vBPxOW00Tw5b+OvFkWtW8fiBbRVuGiu2kMKTXAj8wqoaMMPmA2cZwKFdy12s/v0t+v/BNIKL5VL+Zfdrf9D06b4ieGrHxJp/hi+8RaLaeLL63+0W+hNqMX2udArEtFESHdBsf5gvRCeMGuJm/aQ8M6b8JdB8XavfaTo2r65oP9tad4dvdViiuLxhbiUwQlgGkILKu5UPUHHOK5dv2fdUT4xXuu3FlDrmhX2qW2sedJ4y1awNjNFDFGo/syNWtLna0COHdkJ3YI+QFsI/s8+O9G8A3PhvTrfwlrDa14HsfCmo3Wr3U6Cxkt4Jo98SLbN9piZpy2x2hKlScndhXvTb66fk7/AI2V3ppdbk07fb8vz128te/Q960v4keGNU8QR+HI/EOk/wDCUm0W9k0Fb+Jr6OJlVt5h3b9vzD5tuOR610teSeEfh/4u8OfFW51C2FhpHhG4i8y/ig1eW8fVLoQRRJKbaS1UWjL5eN0U7K4X5oyzbo/W6t23X9f1/wAHTYwhzW97f+v6/wA9woooqTQKKKKACiiigAooooAKKKKACiiigAooooAK534kf8k68V/9gi8/9EPXRVzvxI/5J14r/wCwRef+iHrqwn+8U/8AEvzOXFfwKno/yP5/qKKK807wooooAKKKKACiiigAooooAKKKKACiiigAooooAKKKKACiiigAooooAKKKKACiiigAooooAKKKKACiiigAooooAKKKKACiiigAooooAKKKKACiiigAooooAKKKKACiiigAooooAKKKKACiiigAooooAKKKKACiiigAooooAKKKKACiiigAooooAKKKKACiiigAooooAKKKKACuh+Hf/JQPDP8A2E7X/wBGrXPV0Pw7/wCSgeGf+wna/wDo1a68H/vNP/EvzOXFf7vU9H+R/Qe2lzMzHK8n1pP7Lm9V/OteiuTnZ0cqMj+y5vVfzo/sub1X868q/ay+OGo/Af4e6drWmWsNzNfanHp7tKCfKRo5HZ1GRlsRkAEgZIJ6YPzD4T/a21TxJ8ZPCGmeDD4guIdS1K3g1a5124Fw91CzhZCLaMeVbhFJbdFtB25YYzXq4fAYnEUnWgvd119P6/pani4rNcLha3sJv3tNPXsfef8AZc3qv50f2XN6r+da9cr8S/EUPhjwzFdz3uo6esupafZLcaXHA8wee8hgQYmVk2FpArnG4IWK4YKa8tSk2kuun3ntqN3Y0/7Lm9V/Oj+y5vVfzrxfx/8AHDW/F3wz8aT/AA+tb7w9qGnapDoth4l1FbG4s5br7elrKohWeSUbSWBWaKM4IK9Qag8ffHfWLiz+Gn/CPO2mXOpalp0mvJ5McjW0Ml7FZyWjh8lGaV5l3AZAtZcEHBohNzcYr7TSXz/q78vVCklGMpPZXb+X9WXme3/2XN6r+dH9lzeq/nXkHin9qjwtY+IvH/g26Op6LrnhzRb7VJJrG90m6ujDBErvJDAtzK8cm2RHQXcMatxkEZFbtx+0HpeleLLjw/JoHiS8t9O1Oy0TUPEX2e3Wytrm6it3tt581XfzGuY0PlRtsY/OEUozEZSna3Xb5u352XzG4ct2+l/wtf8ANbHoX9lzeq/nR/Zc3qv514p4J+NmvaP/AMLQbxTMurDT9Rvrjw5DDCkLzW8dy1otkD8qvIJkiAYnJ+1RgnvXP6T+13p3wr+FHh66+JGqprHiu/vNWhKR3em6WZo7S+lgeRTd3FtCQuIlCK5kO4Ha2HYJVG4qXRpfj/lZ36K24ONpOHVNr7v8+nc+i/7Lm9V/Oj+y5vVfzrzOy/ai8OatrEcOnaH4gv8ARPt2n2E3iSK2hXT4JL6G2lsyxeVZWEn2uJPkjYox/eBFKs3W6f8AFnSNUXQjDb3q/wBs6tfaNb740G2a1+0+Yz/Pwh+yybSMk5XIGTipOcVdr+tH+TX3kqzSa2epv/2XN6r+dH9lzeq/nXzJ8FfjtrBs7zxBrHi3xJ4t03T/AAzLrXiHTdY0K3097GXeDbnTyLa2NxDIEu13lpkPkr+9U/f9w8b/ABt0TwHJrCX1jqt2+lrpbSpYWwmeT7fdNawCNQ25iHUlgBnBG3ceKOaVk+/+dvx6F8nvOP8AXT/M6v8Asub1X86P7Lm9V/OvOH/aQsYdLt2m8G+KYtfl1xvDp8NCG0kvo737G14isyXLQBHhVWEglKL5ilygDlat7+0PoUem2fiWZfEen21roWu6teaH9ntCw/s2WGK6hm+Zj58cjFUEUvlt+8JZhsNHNL+vS/5ajjTcpKCWr/za/NP7meo/2XN6r+dH9lzeq/nXni/tHaXDY65JfeFvE2malpxsjbaPdW0H2zU0vJWis3gVZmVRLIjpidomjKnzRGATXUfDr4lRfEJtbt20HWPDepaLdJZ32n61HCJY5HhjmG1oZZI3GyVfmRyM5GeDRzS18v8Agf5q/a6vuZrldrf1/wAP079Db/sub1X86P7Lm9V/OteilzsfKjI/sub1X865v4madLF8N/FjkrhdIvD1/wCmD13dct8VP+SYeL/+wPef+iHrrwc39Zp/4l+ZzYqK+r1PR/kfzxUUUVxnWFFFFABRRRQAUUUUAFFFFABRRRQAUUUUAFFFFABRRRQAUUUUAFFFFABRRRQAUUUUAFFFFABRRRQAUUUUAFFFFABRRRQAUUUUAFFFFABRRRQAUUUUAFFFFABRRRQAUUUUAFFFFABRRRQAUUUUAFFFFABRRRQAUUUUAFFFFABRRRQAUUUUAFFFFABRRRQAUUUUAFFFFABRRRQAV0Pw7/5KB4Z/7Cdr/wCjVrnq6H4d/wDJQPDP/YTtf/Rq114P/eaf+JfmcuK/3ep6P8j+iWisKS4l8xv3r9f7xpv2mb/nq/8A30a5vZs6OYs+KPCejeNNIm0vXdMtdW0+X79vdxLIh9DgjqOx7Vg/Dn4NeDPhPaSW/hXQLXShIcySqC8z85AaRiWYA9Mk47Vq/aZv+er/APfRo+0zf89X/wC+jVrnUXBS0fToZOFNzVRxXMuvU36wvGng+y8daNDpl/LPDBFf2WoBrdlVvMtrmK5jByCNpeFQ3GSCcEHkN+0zf89X/wC+jR9pm/56v/30ahQaaaexqpW1Rwz/ALO2lX3ibXte1bxFrWs6nqzWq+dPFYwG2ht7oXMUCm3tozKgdVUGcyuq7grKXctfm+APheS61i4iN/by6rr9l4iuDHcbgtxbSJKkaBgQkTSIzsg6tNKQQW46r7TN/wA9X/76NH2mb/nq/wD30aIwcbNdNvvT/NJ+uopNSTT67/db8tPQ8wf9lLQ7iLV7S68V+KLvSb211azt9LkltFg0+PUmZrryilsHdizZVp3lK464LA9jffBnRb+PXkkur8DWdc07X7jbIny3Fn9k8pU+ThD9hi3A5J3PgjIxvfaZv+er/wDfRo+0zf8APV/++jTjFxd0/wCk0/zSZftH/Xnb/JHNt8CvDM2paLfTfbZrnSdbu9dt2a42gzXDvI8bhQA8QkZJFU9GhibJK85Un7PFjZ2+mN4e8W+JPCmqafNqDpq2mPZyTSRXtybmeB0uLaWFk83aVPl712ABuW3dz9pm/wCer/8AfRo+0zf89X/76NJU2kknt/lb8tPTQlyUnd/1rf8AN39Tn7j4MaRe2utxXOoalO+sa1p2vXUzPEHNzZCzEeNsYUK32GIsMc7n2lcjbm6P8A7DR/GdrrieKPEU9jZapd6vY+H5pbb7BaXFykyzlMQCZlY3ErBXlYKT8u1flrsvtM3/AD1f/vo0faZv+er/APfRp8r2v/VkvyS+4bnePK9jjr/9nnw3qHhrQ9De81SOz0vSbnQ2aGdEkvLKeLy5IZmCdMiOQMmxleJSDjcrV9P/AGebKOO+fWfF/ibxRf3s2kyy3+qSWiy/8S67N1boFgt4owC5w2Eyy9w3zV3P2mb/AJ6v/wB9Gj7TN/z1f/vo0KLi7p/1e/5i5tn/AF/Wi+5GG3wd0ZvFx8RG5vvtp19fEfl+Ynl/aBpn9nbMbM+X5PzYznfzux8tYupfs4+GtU03UbKW+1VYr6y1+wkZJogwj1e5W4uiuY/vK6gR5yAM7g55rtvtM3/PV/8Avo0faZv+er/99GmlJWs9tPwt+Whoq00009rfhe35v7zhviv8J7DVLTXPEFvZ+ItU1yW00yC2t/D89lHdwyWV1LPbz25uykIkV7h2YSsUZU27Tkq0X7O3g/xH4fsfFmr+KF1iPUdf1ZbtIvEFzaTagsUdtDbqbj7H/oyOxhZgkHyBWTPz76777TN/z1f/AL6NH2mb/nq//fRpKLV9d/8Agf5L7l2Rm5Xt5fklZL5dP+CzforA+0zf89X/AO+jR9pm/wCer/8AfRpezYcxv1y3xU/5Jh4v/wCwPef+iHq19pm/56v/AN9Guc+JVxK3w58VgyOR/ZF5wWP/ADweuvBwf1mn/iX5nLipfuKno/yP5+6KKK4jsCiiigAooooAKKKKACiiigAooooAKKKKACiiigAooooAKKKKACiiigAooooAKKKKACiiigAooooAKKKKACiiigAooooAKKKKACiiigAooooAKKKKACiiigAooooAKKKKACiiigAooooAKKKKACiiigAooooAKKKKACiiigAooooAKKKKACiiigAooooAKKKKACiiigAooooAK6H4d/8AJQPDP/YTtf8A0atc9XQ/Dv8A5KB4Z/7Cdr/6NWuvB/7zT/xL8zlxX+71PR/kf0CSf6xvqa8C+Lnxc8cW/wAVPB/g/wAH+D/ED6W2tWP9ueI/7JnNqluZ0MkcchTbt2Z3yZwBkA9SPfZP9Y31NNrJq6NkFfKfhXxHefDTUPHFnp9yRf8AjrxDqseiLOxkSPVkvHt2wpI+XyTDMVUj5badq+rKoQ+H9Lt2iMWm2cZiuZLyMpAg2TuGDyjjh2Ej5bqd7ZPJpcvvXe1mn5ptf5ffbfYfN7tlvdP7k/8AP7rnyZ4N+IXjPwB8P/Cfgf4deH/7Z1ae58Q3Illgt7vENrqkkW0xz6hZZLGZCZBK5XHMbbty3fGeqfETVLfxpPq93psapr3hJ7Tw3NDKDp91Jeae/lNcrPIhRWLKxjiG4/OMfdP0V4h+E/gfxdosOj674N8P61pMFw95FYahpcE8Ec7li8qxuhUOxdyWAyS7ZPJqzJ8OPCU2qJqb+F9FfUUggtVvG0+EzLDDIssMYfbkJHIquq5wrKCMEZql8UZPpJP+u3RfK6tdpzH3Wmun+a+/r99nc8mX4seOkvG8HS3nhlfF58TtoC68+nTpp+3+zV1ESCyNyZGco3leX9oHIL7sDYWab8XPHHijW7Hwpp174W07W7T+1H1PWrqxuJ7G7SyuIoGFtCLhGjLNMC5aWTyWRkIkyGr17X/h74W8VabqWna34a0fWNP1OZLi+tNQsIp4ruVFRUklR1IdlEcYBYEgIoHQVT1L4S+Bta0PSNF1DwZ4evtG0dlfTdOudKgkt7JlGFMMbIVjIHA2gYpWv91vnZK/yettnsxytay/re6+ffdW0PFPgz8QfE2l+HfhLbXD6dpXgjUdE0+OO/GmzaiL+8lWT9wl1HOgtQMRbXmgZJC4VWDELX0vXLQ/CvwVbeItO8QQ+D9Bi17TYPstjqiaZALq1hAZfLilC7kTDuNqkDDN6mupq9NfV/1/Xpbq5d738l/X9f8AARRRRSGFFFFABRRRQAUUUUAFFFFABRRRQAVzvxI/5J14r/7BF5/6IeuirnfiR/yTrxX/ANgi8/8ARD11YT/eKf8AiX5nLiv4FT0f5H8/1FFFead4UUUUAFFFFABRRRQAUUUUAFFFFABRRRQAUUUUAFFFFABRRRQAUUUUAFFFFABRRRQAUUUUAFFFFABRRRQAUUUUAFFFFABRRRQAUUUUAFFFFABRRRQAUUUUAFFFFABRRRQAUUUUAFFFFABRRRQAUUUUAFFFFABRRRQAUUUUAFFFFABRRRQAUUUUAFFFFABRRRQAUUUUAFFFFABXQ/Dv/koHhn/sJ2v/AKNWuerofh3/AMlA8M/9hO1/9GrXXg/95p/4l+Zy4r/d6no/yP6IvLT+4v5UeUn9xfyp9FcJ1HJfEb4iaP8ADPSbW91SOWaS8uVsrK1tow0t1cMCUiXJCgkK3LFVGCSQOa57w78Xi/irT/DHirQT4b13VA8mmpHOt1BdKq7mUSKBtkRQSysAODsaQAmtP4seCdS8YWei3OkNYtqGjXrX0VrqaM1td7rea3eGQryoZJ3+bDbSAdrDKnzX4S/CzxWdW0i/13RdP8L2mj6ze6kkKz/aru73/aobeMuuFSGK3uQij5idijEYXDehThRdFyk9fXW+trfhfR79NzaKhy3f9f1/Vj6C8pP7i/lXJ/FX4i6T8IfAOq+LtYs7y807TRG0sGmwCa4bfIsY2ISNxy44zn0yeK6+uK+MHh3UPFXgdtP0y3+1XZ1HTp/L3qnyRXsEshyxA4RGOO+MDJ4rznfoZRtfUZ4y+K/h7wTa+Fri4Se/j8SahbadYGwjV8mcgJK2WGIhuXLdfmUAEkCus1SZtP027uoNPl1KeGJpEs7Xy1lnYAkRoZGRAzHgbmVcnkgc1846l8DfF1xcWyTWNvd2XhrxBpdt4bEdyhdNHTUILy4kYvgqVRIodmSSLJWGd4Fef6x8CfH+ueLviXrFv4Km0fUtf0DxFpV29smh2thqUky7bAwvB/pkxYIGd72QbXc7VVWIS42lG+12/krRt+b9HddBwX71Qe3u69NW0/usuu1ttz7UgAmhjdoDCzKGMcgUshI6HBIyPYke9cX4G+Lnh3x9L4wjskuLJ/CupzaZqP2+ERjdEMmVCCQ0R+bDeqMCAQRXk+u/AG7v/F3inxcnhuCfxV/wmOh3+i6pJNGZ7ewii0yK9aFi/wC5DRw3aSKNrSqgBDjZUk3wX8VzXs0MNnbw6V4k1nU7LxKk1wpL6RJey3UMiqNwYsrSwbeGAvSxxsxRZtrW119z91r82n6N9BW9xSfl62s2/wBLd3pZHsXwx+IGl/FbwXZeJtKs7uzsbuSaNIdQhWOdTFM8TblDNjLISBnOCMgHIHU+Un9xfyr4y8efs6eKte8KeF9O1fw9retaDa3+vyXWgaCugXUyy3OovNaXRi1ZHtiBCXG5GWZDKABhnA62P9nG8hvtX8QjQrjUPFdv4o8PXWi63rF1BNqUdhDBpcN9J5ofbG7xw3ay7Npm2Yw48urjFTlvZX69uZL8tfQmKb062+V9NP67bM+oPKT+4v5UeUn9xfyr598K+F/Gdp408L6NdeDby20nQfFesavJ4ia+tGtLm3ukv2hMUazGfcDdRq6vGuDnBcfNX0LWfRMb0k12GeUn9xfyo8pP7i/lT6KQDPKT+4v5UeUn9xfyp9FADPKT+4v5UeUn9xfyp9FADPKT+4v5UeUn9xfyp9FADPKT+4v5Vy/xTjQfDHxeQqg/2Pedv+mD11dct8VP+SYeL/8AsD3n/oh67MH/ALzT/wAS/M5cV/u9T0f5H88VFFFcx1BRRRQAUUUUAFFFFABRRRQAUUUUAFFFFABRRRQAUUUUAFFFFABRRRQAUUUUAFFFFABRRRQAUUUUAFFFFABRRRQAUUUUAFFFFABRRRQAUUUUAFFFFABRRRQAUUUUAFFFFABRRRQAUUUUAFFFFABRRRQAUUUUAFFFFABRRRQAUUUUAFFFFABRRRQAUUUUAFFFFABRRRQAUUUUAFbPgu+h03xjoV5cP5dvb38Esjn+FVkUk/kKxqK0p1HSnGot07/cZ1IKpBwfVWP6OtG1WDXNIstRtXWW2u4UnjdehVlBB/WrlfkN+yr/AMFGNa+B/h238KeKNLbxJ4btU2WbQyBLi35ztycgryfy9ya+mY/+CsfwzZFLaDrasRyu1Tg+lbSw/O+ak1bzaT+d2v8AIwVflVqid/JNr8E/8z7gor4h/wCHsXwx/wCgHrf/AHwtH/D2L4Y/9APW/wDvhaX1Wp3j/wCBR/zH9Zh2f/gMv8j7eor4h/4exfDH/oB63/3wtH/D2L4Y/wDQD1v/AL4Wj6rU7x/8Cj/mH1mHZ/8AgMv8j7eor4h/4exfDH/oB63/AN8LR/w9i+GP/QD1v/vhaPqtTvH/AMCj/mH1mHZ/+Ay/yPt6iviH/h7F8Mf+gHrf/fC0f8PYvhj/ANAPW/8AvhaPqtTvH/wKP+YfWYdn/wCAy/yPt6iviH/h7F8Mf+gHrf8A3wtH/D2L4Y/9APW/++Fo+q1O8f8AwKP+YfWYdn/4DL/I+3qK+If+HsXwx/6Aet/98LR/w9i+GP8A0A9b/wC+Fo+q1O8f/Ao/5h9Zh2f/AIDL/I+3qK+If+HsXwx/6Aet/wDfC0f8PYvhj/0A9b/74Wj6rU7x/wDAo/5h9Zh2f/gMv8j7eor4h/4exfDH/oB63/3wtH/D2L4Y/wDQD1v/AL4Wj6rU7x/8Cj/mH1mHZ/8AgMv8j7eor4h/4exfDH/oB63/AN8LR/w9i+GP/QD1v/vhaPqtTvH/AMCj/mH1mHZ/+Ay/yPt6iviH/h7F8Mf+gHrf/fC0f8PYvhj/ANAPW/8AvhaPqtTvH/wKP+YfWYdn/wCAy/yPt6uH+OGuWXhz4PeM7/UbhLW0j0m5VpXOAC0bKP1YV8q3H/BWT4bRwu0Ph/WpZQPlQhVBPpntXyJ+1r+3hr/7R1n/AMI/ptj/AMI94QV1lNqW3zzsBwZGHGOTwPb3zrSpvD1I1ajVou+jTvbpo39//DGdSp7eDpQT101TVr9dUvuPlaiiiuE7gooooAKKKKACiiigAooooAKKKKACiiigAooooAKKKKACiiigAooooAKKKKACiiigAooooAKKKKACiiigAooooAKKKKACiiigAooooAKKKKACiiigAooooAKKKKACiiigAooooAKKKKACiiigAooooAKKKKACiiigAooooAKKKKACiiigAooooAKKKKACiiigAooooAKKKKACiiigAooooAKKKKACiiigAooooAKKKKACiiigAooooAKKKKACiiigAooooAKKKKACiiigAooooAKKKKACiiigAooooAKKKKACiiigAooooAKKKKACiiigAooooAKKKKACiiigAooooAKKKKACiiigAooooAKKKKACiiigAooooAKKKKACiiigAooooAKKKKACiiigAooooAKKKKACiiigAooooAKKKKACiiigAooooAKKKKACiiigAooooAKKKKACiiigAooooAKKKKACiiigAooooAKKKKACiiigAooooAKKKKACiiigAooooAKKKKACiiigAooooAKKKKACiiigAooooAKKKKACiiigAooooAKKKKACiiigAooooAKKKKACiiigAooooAKKKKACiiigAooooAKKKKACiiigAooooAKKKKACiiigAooooAKKKKACiiigAooooAKKKKACiiigAqazs7jULhILWCS5nc4WKFC7MfYDk0tjZzajeW9pbp5k88ixRoP4mY4A/M1+vP7Nf7NPhz4HeD9PP9nW914rnhWS/wBTmQPIJCAdiZ+4q9OOc555rroUFUTnJ2iv6/rsc1Ws4NRgrtn5Pj4e+KiMjwzrBH/XhL/8TS/8K88Vf9CzrH/gBL/8TX7opdTKoAmkAHQbjUq3c/8Az2k/76NdfscP/LL/AMCX/wAiYc1f+Zf+Av8A+SPwp/4V54q/6FnWP/ACX/4mj/hXnir/AKFnWP8AwAl/+Jr92Vup/wDntJ/30akW6m4/fSf99Gl7LD/yy/8AAl/8iHNX/mX/AIC//kj8Iv8AhXnir/oWdY/8AJf/AImj/hXnir/oWdY/8AJf/ia/eFbqbj96/wD30aeLmbP+tf8A76NL2eH/AJZf+BL/AORDmr/zL/wF/wDyR+Df/CvPFX/Qs6x/4AS//E0f8K88Vf8AQs6x/wCAEv8A8TX70LcS8fvX/wC+jUi3Ev8Az0f/AL6NLkw/8sv/AAJf/Ij5q/8AMv8AwF//ACR+Cf8AwrzxV/0LOsf+AEv/AMTR/wAK88Vf9CzrH/gBL/8AE1+963Ev/PRv++jUizycfvG/M1PLh/5Zf+BL/wCRHfEfzL/wF/8AyR+Bn/CvPFX/AELOsf8AgBL/APE0f8K88Vf9CzrH/gBL/wDE1+/CzScfO35mnrNJ/fb86XLh/wCWX/gS/wDkQ/2j+Zf+Av8A+SPwE/4V54q/6FnWP/ACX/4mj/hXnir/AKFnWP8AwAl/+Jr9/wBZX4+dvzqRZH/vN+dK2H/kl/4Ev/kR/v8A+Zf+Av8A+SP5/P8AhXnir/oWdY/8AJf/AImj/hXnir/oWdY/8AJf/ia/oGWR8feb86kWRs/eP50v9n/kl/4Ev/kR/wC0fzL/AMBf/wAkfz6/8K88Vf8AQs6x/wCAEv8A8TR/wrzxV/0LOsf+AEv/AMTX9Bqu394/nT1dsfeP50r4b+SX/gS/+RHbEfzL/wABf/yR/Pf/AMK88Vf9CzrH/gBL/wDE0f8ACvPFX/Qs6x/4AS//ABNf0KKx9TUqsfWlzYb+SX/gS/8AkQtiP5l/4C//AJI/nm/4V54q/wChZ1j/AMAJf/iaRvh74pUZPhrWAPU2Ev8A8TX9DoPHWs/S/EOkeI5r+1sr611CSxm+z3cMUiyGGTGdrgdD7Gp5sN/JL/wJf/IhbEfzL/wF/wDyR/OrNDJbytFLG0UinDI4IIPoQaZX6/8A7d/7Hvh34lfDnVPF3h3SoNM8YaRC1zvtIxGt3EvLo6jAzjJDfXrX5AVnUpqKU4O8X+nT+v8AgGtOo5NxkrNf1cKKKKxNgooooAKKKKACiip7Gzm1G8t7S3TzJ55FijQfxMxwB+ZppOTshNpK7Es7O41C4SC1gkuZ3OFihQuzH2A5NbQ+HviojI8M6wR/14S//E1+sH7Nf7NPhz4G+D9P/wCJdBdeK5oVkv8AU5kDSCQgHYmfuBenHOc8817kl1MqgCaQAdBuNer9WpU9J3b8mkvyd/wPP9tVqawsl5pt/mrH4Xf8K88Vf9CzrH/gBL/8TR/wrzxV/wBCzrH/AIAS/wDxNfust3P/AM9pP++jT1up/wDntJ/30aPZYf8All/4Ev8A5EfNX/mX/gL/APkj8Jv+FeeKv+hZ1j/wAl/+Jo/4V54q/wChZ1j/AMAJf/ia/d1bqbj99J/30akW6m4/ev8A99Gp9nh/5Zf+BL/5EOav/Mv/AAF//JH4Pf8ACvPFX/Qs6x/4AS//ABNH/CvPFX/Qs6x/4AS//E1+8guZs/61/wDvo1ItxLx+9f8A76NL2eH/AJZf+BL/AORHzV/5l/4C/wD5I/Bf/hXnir/oWdY/8AJf/iaP+FeeKv8AoWdY/wDACX/4mv3sW4l/56P/AN9GnrcS/wDPRv8Avo0uTD/yy/8AAl/8iO+I/mX/AIC//kj8EP8AhXnir/oWdY/8AJf/AImj/hXnir/oWdY/8AJf/ia/fNZ5OP3jfmalWaTj52/M0uXD/wAsv/Al/wDIhfEfzL/wF/8AyR+A/wDwrzxV/wBCzrH/AIAS/wDxNH/CvPFX/Qs6x/4AS/8AxNfv2s0n99vzNSLK/Hzt+dK2H/ll/wCBL/5EP9o/mX/gL/8Akj8AP+FeeKv+hZ1j/wAAJf8A4mj/AIV54q/6FnWP/ACX/wCJr+gNZH/vN+dPWR8feb86X+z/AMkv/Al/8iP/AGj+Zf8AgL/+SP5+f+FeeKv+hZ1j/wAAJf8A4mj/AIV54q/6FnWP/ACX/wCJr+gpZGz94/nT1dv7x/Ol/s38kv8AwJf/ACI/9o/mX/gL/wDkj+fL/hXnir/oWdY/8AJf/iaP+FeeKv8AoWdY/wDACX/4mv6EFdsfeP51IrH1NTfDfyS/8CX/AMiO2I/mX/gL/wDkj+ev/hXnir/oWdY/8AJf/iaP+FeeKv8AoWdY/wDACX/4mv6GVY+tPDcdaXNhv5Jf+BL/AORC2I/mX/gL/wDkj+eJvh74pUZPhrWAPU2Ev/xNYU0MlvK0UsbRSKcMjggg+hBr+irTPEOkeI5r+1sr611CSxm+z3cMUiyGKQAHa4HQ+xr5R/bv/Y98O/Er4c6p4u8O6VBpnjDSIWud9pGI1u4l5dHUYGcZIb69acY0az5Kaak9rtO/lsrfj8gc6tJc1SzS3srW/F3PyAooorjOsKKKKACiiigAooooAKms7O41C4SC1gkuZ3OFihQuzH2A5NLY2c2o3lvaW6eZPPIsUaD+JmOAPzNfrz+zX+zT4c+B3g/Tz/Z1vdeK54Vkv9TmQPIJCAdiZ+4q9OOc555rroUFUTnJ2iv6/rsc1Ws4NRgrtn5Pj4e+KiMjwzrBH/XhL/8AE0v/AArzxV/0LOsf+AEv/wATX7pR3UygATSAAdNxqRbuf/ntJ/30a6/Y4f8All/4Ev8A5Ew5q/8AMv8AwF//ACR+FP8AwrzxV/0LOsf+AEv/AMTR/wAK88Vf9CzrH/gBL/8AE1+7a3U//PaT/vo1It1N/wA9ZP8Avo1Ps8P/ACy/8CX/AMiHNX/mX/gL/wDkj8IP+FeeKv8AoWdY/wDACX/4mj/hXnir/oWdY/8AACX/AOJr95PtM3/PV/8Avo1ItxL/AM9X/wC+jS9nh/5Zf+BL/wCRHzV/5l/4C/8A5I/Bf/hXnir/AKFnWP8AwAl/+Jo/4V54q/6FnWP/AAAl/wDia/exbiX/AJ6P/wB9GpFnk4/eN/30aXJh/wCWX/gS/wDkR3r/AMy/8Bf/AMkfgf8A8K88Vf8AQs6x/wCAEv8A8TR/wrzxV/0LOsf+AEv/AMTX76rNJ/z0b8zUqzSf32/M0uXD/wAsv/Al/wDIhfEfzL/wF/8AyR+Av/CvPFX/AELOsf8AgBL/APE0f8K88Vf9CzrH/gBL/wDE1+/yzP8A32/OpBK+fvt+dTbD/wAkv/Al/wDIj/2j+Zf+Av8A+SP5/f8AhXnir/oWdY/8AJf/AImj/hXnir/oWdY/8AJf/ia/oGWR/wC8351Isjf3j+dL/Z/5Jf8AgS/+RH/tH8y/8Bf/AMkfz6/8K88Vf9CzrH/gBL/8TR/wrzxV/wBCzrH/AIAS/wDxNf0Gh2x94/nUqs3qfzpXw38kv/Al/wDIjtiP5l/4C/8A5I/nt/4V54q/6FnWP/ACX/4mj/hXnir/AKFnWP8AwAl/+Jr+hZWPqamDdeanmw38kv8AwJf/ACIWxH8y/wDAX/8AJH88TfD3xSoyfDWsAepsJf8A4msKaGS3laKWNopFOGRwQQfQg1/RTpfiHSPEct/a2V9a6hJYzfZ7uGKRZDFJgHa4HQ+xr5R/bw/Y98OfEj4c6p4u8PaVb6Z4v0iI3PmWiCNbuIcujqMDPUhvr1zTjGjWfJTTUntdp38tlb8fkDnVpLmqWaW9la34u5+QNFFFcZ1hRRRQAUUUUAFFFFABRRRQAUUUUAFFFFABRRRQB0Pw8/5KB4Z/7Cdr/wCjVr9zbr/j8m/66N/M1+GXw7/5KB4Z/wCwna/+jVr9zbr/AI/Jv+ujfzNevR/3eP8Ail+UTzqn8eXovzkfBP7WHiXW/E3xk1PxV4c0fV9Ytfg1b2d2LrT5IFtoLySZLi9E4klR3H2SNUxEkhBc5A4q1+0r8bNc+Lnw/wDH8WkXug2fgrQtb0C0FvcW0smo3/nyW1wsySiYJGnzptUxOWCOdw7fadn4M8P2Merx22habbx6zI8uprFZxqL52Xa7TAD94SvBLZyOKw7j4F/Da8ura4uPh74VnuLWCO2glk0W2Zooo8eXGpKZVVwMKOBgYrKnCUOVN6JqXzveXy0sl0Wr1SNaj57taNq3ytZenVvu/U+eo/2mvijqnirS7Oybwja2GrePNS8FwLcaRdSywLbq7Jcu4vFDn5RmMKucHDLnjk9a/aQ1jVrf4eePtR8NeHrjxfpui+MpYrvbdCKGaxXZmKMTgBJfLG4PvYD7rL1r7Mh+HfhSGaCaPwzo8c1vfSapDIthEGjvJARJcKdvErAnMg+Y55NRf8Kp8EvbQ2zeDtAa3hS5jjhOmQbES4z9pUDbgCXJ3gffz82az5J8tr62evnypX/8C5n87dC+aPtOZrS+3lzN2+7lXy82fFnx4+Mnir4jfCvxt4C8aR6LcQX/AIZ8OeJLe40S0mtTFHdalCkkEgknl3lflw67OhyvPHnXxR1LW/FHh/wr4C1BpjH8G9Vs7PUJnP8Ax8XMmrQ2mnsfUmzSV+f+en5fpBcfC/wbqDM114S0K5Z7WGxYzabC5a3hcPDCcrzGjgMq9FIBABq1efD3wrqUmoveeGdHu31KeG5vWnsInN1LDjyZJSV+do9q7WbJXAxjFXyr2iktua9u9n7v/gKv89TNOXspQb1atfteKUv/AAJq/oeDah+0X8Sta+OXiDwz4P8ABtnqXhrwvrNhpWryXUltHKY50R3uBNJextHgSDZGLaUSbD84J2rz9r+1h8QoPE2m3F3a+G5/Dl98QNS8DrY29hcLeKIUlMNx5xuChJKKGTyuRnBGcD6X1T4X+DfEHiiy8S6p4R0LUvEdns+zaxd6bDLeQbGLJsmZS67SSRg8EnFWI/hx4SR4GXwvoqtb6i2rwsNPhzHfNnddL8vExycyD5jk81koysk3/V43f3KVl05tHtbWUr35V/Vpfq469bbHyL4o/a6+IuvfB3wjdaJZaZF4h8U+ANb1+Y6bbSvNbXdsI1T7OpkbAG9yQwc5Qc8EH0/w/a/DT4GfAGT4s+DPDelazrVv4Wm1L+1bXadQ1kbElmae5wZJS0gVnZ9xU54HSvY/Dvwg8B+EdabWdD8E+HdF1djIzahp+kwQXBMmPMJkRA3zYG7nnAzUvh74Q+BPCmuXus6J4K8O6PrF+kkd3qGn6VBBcXCuwZ1kkRAzhmAJBJyQCamUZNTto5L7tZf/ACSXT4duzjZSjzapfjpH/wCRb+Z8v+OP2ufiX8NNP1ayvYvCHiPWF8O6N4hs9S0yxuYLKEXl8lq9vLGbmRnOGLpIJEyF+5WD8X/jx8WdSuNU8KReIdI0bV/C/wAR9B0W41XRdMuoIr22u1jljDx/bCyqG3LInmYlUqoKck/Xej/BH4daDot7o+meAfC+naTfSRzXVhaaNbRQXEkbbo3kjVArMpAKkgkEZFaWpfC/wbrkOtwal4R0LUIdceOXVY7rTYZV1B4wBG04ZT5pUKu0vnGBjpTlbmT87/dKLS+STjfre7IjdKzf9crTf3tSt022seE6x+0d488O+Ivjnc3FroN/4c+GFjBP9itbC4W+1SWSw88/vTcFIUV+c+XIdhI4K7m8f/aS+M/jLXfh1r3gfxc/h7WXn0Xw54qg1fwzaTWsMAm1WGM20iSTTb843JIHXcAfkr7p0nwdoGhzX82m6Hpuny6gsa3klraRxNciNPLjEhUDeFQBRnOFGBxWLo/wQ+HOg6LfaPpngDwvp2kX0sc13p9po1tFb3Ekbbo3kjVArMpAKkgkEZFTH3Zxk9UuX8L3+92fytsype9Gy0ev42t66XX/AG9fdI+LPhz8ePG/gPWvEXgP4eeHbfWPE3iDxz4s1COS8jhmQrbzR/uljlvbMFmMgJYSkoqkiN8/L9BeCfjV8TPGfxw8P+C7nT/Dnhi2/wCENsvE+swTRPqNws8lw0UttBNFcLFtwMrJh8Y6Pnj1nWPgx8PvEelPpmreBfDWqadJfSam9ne6RbzQtdvkPcFGQgytk5fG45OTW5pfgvw9ompQ3+naDplhfQ2SabHdWtnHHKlohyluGVQREp5CfdHYVFP3IwUteVJetotL8baa3t5tF1Pec2tOZtryvNSf4XV9LXNxakXpUa1IvSpKJFqVaiWpVqWBxfxmutUtfh3qf9jy6jFqMgWKL+yYBLcsWYDbGScITnHmHhM7ucV4Z4G+EPi/4S+NPCOqSLDa219stbxtDtjKbfLE/ZrrnM6HJIuW+dHLE5U4H1X1HNSYyRkZqBnNfFH/AJJf4v8A+wPef+iHr+eOv6HPil/yTDxh/wBge8/9EPX88ddcv92h/il+UTnj/vE/SP5yCiiiuU6gooooAKKKKACuh+Hn/JQPDP8A2E7X/wBGrXPV0Pw7/wCSgeGf+wna/wDo1a68H/vNP/EvzOXFf7vU9H+R+6WqgLq16AMATyf+hGvlvwv4W8LfFz47/GG1+Jul6d4hvNAntoNI03XoVlisdLe2RzcQRyDanmS+ZumXnKKCRtAr6l1b/kMX3/XeT/0I1yPi74WeC/iFPaz+KvCGg+JprUFbeTWNMgu2hBIJCGRTtBIHT0rqS1jL+vVefT0bJvuvP+l+vqkeD/EH9pzxD4f+MWmeG/C76bq/hqbX7bwve3M2iSKNNvZoHZY/tBvVNw6lUkZY7cJsYKZVfBrgvhf+0J8SfB/wD8Hz3VxH4x8VeLvF99otjcXdvl7XbPcFlcT3sSzE+UVjj86AKCq5baA31rcfCXwPeeJh4juPBnh+fxCJI5hq0mlwNd+ZGAI380pv3KAADnIxxT5vhH4GvNN1fT5/Bfh6aw1i5F5qVrJpUDRXs4bcJZkKYkfdzuYE55zWfJJLV69fS8Xb52lrurpa2Kclsla3+Ul+sfW19L2PD0+PPxUuL3wN4TvtK8NeCvGmrWGr6hqNxqyG+tFSycKqRR292NrvuVmBnfywrA7iK4vwp+2T8RPG3gCfXLODwlo93onglvF+prf2dzJFqJ8+dBDa4uVMKBbcgyMZfmkUbeOfd/iZ8ArPxb4S0nw34b0zwLoWlacJvs9vrHg6PVIrN3HElpEJ4Y4XBLEkq4JI44OdXwz+zf8AD3Q/BPhLw1f+FtJ8TweGbYW+n3evadBdzxnIZ3VmT5WZhuO0AZx6Co5Zu+v9WlrbbRuOmzt5uy0Vuvl846X80mr7q/lr5HoX7QXxY+I3/C0LzwrpvhnT08LaVY39ho+qafc3F3dzXGnrdeRJKtxGqlWJUEJ82RkLjJ8a+OHxHvf20vCHhzT7GO1svBF34s0TTtN1C33C5bUZtOuZrgF95XbC0kKYCg7lcE8YH3lfeF1s4tcvPDMGkaJ4j1QK02qT6b5wmkRdqPOqPE821flGZAQOAccVzPwl+Anhj4W/DzQPCwsbPWf7Ku21Rby6sol/092Z3uY4wNsLZkcKE+4pCg8USipy10S5beqd3r6d9nZrraoycIafFaS++Nl+P4OXkfEemePNY+O3x++CPjfVIpLVPDet2HhOSBun9qGyuZ9SOPZ1tk/4D+f0R8M/2kvib8S/iJdS2HgyxHw6t9b1LQ7i6kkt47i0e1Vwshc3xkldnjJMP2RNquCHcDcfoGD4d+FbeSGSLwzo8bwX76tEyWEQMd64Ie5U7eJmDMDIPmOTk81FF8K/BcfjCXxYnhDQU8VS5EmuLpkAvnymw5n27zlPl69OOlRyys1e17vyvLlv8rqXomuw9L6dkvkua3zs4/NPoz49tv23Pifp3gXw94i1Kw8KXx8S+DNc8QWFpY6ddRG0urDBVZWa6bzY3UNkKEYEj5jjJ1P2gv2lPFt9pus+HbS4g0nQv+Ed8N6zqesaOJUu7W2vr3y71llDny41hGQwXcoYtu6EfWlr8L/BtnHpsdv4S0KCPTbea0sVj02FRawzD99FEAvyI/8AEq4Dd80nhP4ReBfA32n/AIRvwV4d8P8A2qH7NP8A2XpUFt5sWSfLfYg3LlmO08ZJ9aUo8z8u3fWej8tYp/4fMNdbOz/LSOq89JW/xHlHxDl8F/sp/Cu+8Q/C7wj4Y0nUdQbTNPSSzt0htSs04hguroxFWkjQyuxYtubkbxnI4vXP2oviXofjqb4fBPCl1r9v400zwy/iJNMuRYyQ3ljJc7ha/aiyzRFVDL57Bgw+7nNfQ+g/BP4d+F9L1bTNG8BeGNI03WIhBqVnY6Nbww3sYDAJMioBIuGYYYEfMfWr2jfCXwP4f03T9O0vwZ4f03T9PvP7Rs7Wz0uCKK2usY8+NFQBJcEjeAGwetH2ryd1p914u33KSv15vIT+F23s/vs0n99tOlj480/4+fFT4n/Ej4NQrr2l6AY/GniDw5q0On6fciz1B7KOTEjx/a8lGjI2xMx2yDflgAg7qX9qb4iWfw7+IvjCe38MG00nxjN4N0i1FjcKIn+2xW8d7eTG4wY1EhLRoi7iow6bsD6Mn+Enga8sVsrjwZ4ensl1E6utvJpUDRi+JJN0FKY84kkmT73PWtJPAfhldE1XRx4d0kaRq0k02o2AsYvIvXl/1rTR7dshf+IsCW75rON0lfXT737l/S9pJdubTY0eu2mv4e/b7rx9eXXc+LPi98UvE3iz4meF/BfipdKvdR8G/E7R4BrWh20tra3i3GnTzBDBJLKY5I84Yea2dyn5elcr+zv+0d8TNB+EngbwD8MvB9jr19o3hUa9eDUXt1FzHJfTptDy31r5CKsbZmC3HzOoMagZb7x0n4Q+BNB0uw0zTfBXh3TtNsLz+0bSztdKgiht7rBXz40VAEkwSN4AbB61X1H4E/DXWrDSLHUPh54Vv7LR1ZdNtrrRLaSOxDMGYQqyERgsATtxkgGlH3Vy33ab+UOX89fwB6y5rbK3/k7l+Tt5HD/C/wCK3jn4g/Hr4j+G7hdB0vwp4PlsIfs4s5pdQuXubMTEGcTiJNjnqI23A4+XG4+8LWTpvhrSNH1LUtSsNKsrLUdTZHvru3t0jlu2RdiGVwMuVX5QWJwOBWstJ7L0/wCH/Eav1JVri/jNdapa/DvU/wCx5dQi1GQLFF/ZMAluWLMBtjJOEJzjzDwmd2Diu0WpB0rNlHyp4H+EPi/4S+NfCOqSLDa219stbxtDtjKbfLE/ZrrJzOhySLlvnRyxOVOB9FfFH/kl/i//ALA95/6Ieul6nmua+KX/ACTDxh/2B7z/ANEPXTg/95p/4l+Zz4r/AHep6P8AI/njooormOoKKKKACiiigAooooA6H4ef8lA8M/8AYTtf/Rq1+5t1/wAfk3/XRv5mvwy+Hf8AyUDwz/2E7X/0atfubdf8fk3/AF0b+Zr16P8Au8f8UvyiedU/jy9F+cj86P2htHjHxX+P/iWfRdLNtoN/4Xu5vEwlC61pMapAzHT1aMBpHxjmeLtw5wK918fftPeMPDuo+PtV0mz0Q+HfBWraVpM+i6hbTHVNUN0YcyRTLKFh4nUIphk3GN+RnA901L4O+Atc8UL4k1LwR4c1DxErxyrq91pNvLdh48CNhMyF8rtXBzxgY6Ve1L4aeENa8UWfibUfCuiX/iSzCi21i606GS8gCklQkzKXXBJIweMms6cXBRjfRP8A+R/RWt53u2b1JKeq7W/C3y11v8rI+erf9p7xlfX2l6pJY6G3hfWfGt14Kj0FLaZdWtfLWVftMk/mlGIMJdovJXCOvz9z438Afi3rPij9lnxn4EjgstK0Xw38Ob65kS+gk+36lJOLvE1u28ILdNuxm2sS+R8vf7sg+GPg6DxdP4qi8J6HH4onUrLra6bCL2QFQhDT7d5BUBeT0GOlJH8JPAyQ2kS+DPDyxWlnNp9sg0qDbDbS582BBs+WN9zbkHDbjkHNYSpylScJPVq3/krXz1bl87dEXCooVVUS2d//ACZP/wBJ935X6s/M/wAaSatD+zhd/AlTN9h0XTbjxs9wzE50n+z1urdCc5P+nXAT/tj+FfVXiH9ob4j6HrOjeBfhv4SstcvtH8Iafrl2NQa3UXMcmE2h5b228hFWNsyhZ/mZQUUDLfStx8OfCd4s6z+F9GnW408aRMsmnwsJLIdLVsrzCMn92fl56VF4k+E/gfxp/Zn/AAkPg3w/r39mLssf7T0uC4+yL8vyxb0OwfKvC4+6PStWnzSaejab+Skl+Djfu0+5jFWjFPVpNfe4t/jzJdk12PnH4kftWfEHwZ4k+IN1b2XhxfDng3W9B064064sp5L65iv1h83bcLcCNHQyNg+WwPHHHOhH+1b4zutL8PiDTdFbU9T+IOreEGt1gl3Lb2yXJiZVMuRKTFFknKnccKMjH0Xf/Dfwlq41MX/hbRb0apLDPf8A2jT4ZPtckOPJeXK/OybV2lslcDGMVBH8IPAaeKm8TL4J8Or4kacXTawNJg+2GYAgSGbZv34ZhuznBPrWLi2lG/8AXuf5S/8AAjRN7/19r/OP/gJ4Z+yb4Z8D6r8G/C/xS1LSbDXviZKk93qmv3UKSaw2pBJFuLbzWHmKVUPGIeFVVAC4Fcm37ZnxC0zwT4f8UXVl4W1G28XeE9c8R6ZY2NrcJLo7WUXmxx3TmdhcqQRG7KsGHzj0r6nt/hL4Ht/GZ8XxeDPD8fixmZzryaXAL4sU2E+fs35KkrnPTjpSWHwa8AaXca3cWfgbw3aXGuRyQ6rLBpFuj6gkhLSLOQmZQxJJD5BJ5qZqUlpppZLotGtPK7T8rW6lwtFpy1s1fu9b/wCfrdnxl8aP2mPizcfDD4haK2q6NpOqx+BtK8YWmreHdPurWe3huZvLmtwxunIkXKlZ1xgBvkyQV950z4tfEeL41WXgN7vw7dafpngu38TapfJpFybq9kM7xvDAn2vEe5VGGYyEMOjbsL7M3w18IzNcs/hXRXa505dHnZtOhJlsRnFq3y/NCMnEZ+XnpVnw98PfC3hO5guNE8NaPo08FmunRS6fYRQNHaqxdYFKKCIwxLBB8oJJxRL4m46b/wDt3L914+tnfciN+VKWr0/9sv8AfaXpzeR8T/EL9pzxr40+B4XXbbw7d6L8SfAniLVLS10W3niutEW2tyypcSPNItxlXEbMEhxIDwelcr8L/jdr3wf8TeI7Hwvo8eqeIPFd94S0a0adI5I4WOhJIT5clzbLI7CMqqGeLJbO442t956f8GPh9pdxrlzZ+BfDVpca7HJDq00GkW6PqCSEtItwQmZQxJJD5BJ5qxdfB/wHqOl6jpt34J8OXWnal5H22zm0m3eG68hQsHmoUw/lqqhNwO0KAMYqFpzNdbL5Kbla/o7X+Zbu+Xy5vvcYq9vVXtseE2Hx2+M194q+EXg/UdF8MeEPEvihNaOsNfQNqCW4sSuxoUt73aDIp+aNpnKE/eO3DfVi579a5fRfhr4Q8OjRv7K8K6Jpn9ixyxaX9j06GL7Akp/erBtUeUH/AIguN3fNdQtJ7Jev5/5WKV7kq1x3xlutUtfh7qf9jy6jFqMgWKL+yYBLcsWYDbGScITnHmHhM7ucV2K1MtZso+VfA3wh8X/Cbxr4R1R1htrW+2Wt42h2xlNvlifs11k5nQkki5b50csTlTgfQXxeP/FqfFv/AGC7j/0Wa6xe1cp8X/8AklXi7/sF3H/os11YL/eqX+JfmjmxX+71PR/kfz1UUUVyHWFFFFABRRRQAUUUUAFFFFABRRRQAUUUUAFFFFAHQ/Dv/koHhn/sJ2v/AKNWv3Nuv+Pyb/ro38zX4ZfDv/koHhn/ALCdr/6NWv3Nuv8Aj8m/66N/M169H/d4/wCKX5RPOn/Hl6L85HzEvi/Q7nQ/F91qHju9i+LFtBqYfQG8QXFpJaIhk8sR6aJVTasWxlm8piwxJvbO6qt/+1dq633xChstY8LraaLKv2LUL5LSBIQLkxSQyq+rKHmwVAWdrI5ydhyFr6mXtUi1nySXLZ7LXz/p69/PU25lrpu1/X6HkXwo+L9343+I2uaFPruhajb2lhb3dvb6XabZ8OkZaSY/a5HhJLZEM0ERw42vLsdq9lXtUa1Ivar6Jf1/X9eRBKvanr1pi9qevWoGSL2qRajXtUi1LKRItSL2qNakXtUMslXtT1pi9qetQwJV7VItRr2qRaljHr0qRetRr0qRetSyh61IvSo1qRelQUSLUq1EtSrUsCRelSL1qNelSL1qBnNfFL/kmHjD/sD3n/oh6/njr+hz4pf8kw8Yf9ge8/8ARD1/PHXXL/dof4pflE54/wC8T9I/nIKKKK5TqCiiigAooooAK6H4d/8AJQPDP/YTtf8A0atc9XQ/Dv8A5KB4Z/7Cdr/6NWuvB/7zT/xL8zlxX+71PR/kfunq3/IYvv8ArvJ/6Ea+XF8X6Hc6H4vutQ8d3sXxYtoNTD6A3iC4tJLREMnliPTRKqbVi2Ms3lMWGJN7Z3V9R6t/yGL7/rvJ/wChGoF7V1pbPyM31R8s3/7V2rrffEKGy1jwutposq/YtQvktIEhAuTFJDKr6soebBUBZ2sjnJ2HIWvTfhR8X7vxv8Rtc0KfXdC1G3tLC3u7e30u02z4dIy0kx+1yPCSWyIZoIjhxteXY7V66tSLUwi4pczv/X9fj1s1U3zNtaf0iRe1Sr2qJe1Sr2oYh69akXtUa9akXtUjJFqRajWpFqC0SL2qVe1RL2qVe1SMevWpV7VEvWpV7VAEi09elMWnr0qSiRetPWmL1p61LGSL0qRajXpUi1BRKtSL0qNakXpUMCRetc18Uv8AkmHjD/sD3n/oh66Vetc18Uv+SYeMP+wPef8Aoh66sJ/vNP8AxL8znxP+71PR/kfzx0UUVynWFFFFABRRRQAUUUUAdD8O/wDkoHhn/sJ2v/o1a/c26/4/Jv8Aro38zX4ZfDv/AJKB4Z/7Cdr/AOjVr9zbr/j8m/66N/M169H/AHeP+KX5RPOn/Hl6L85HzGvi/Q7nRPGF1qHju9i+LFtb6mH0BvEFxaSWiIZPLEemiVU2rDsZZvKYsMSb2zuqrf8A7V2rre/EKGy1nwutnosq/YtQvktIEhAuTFJDKr6soebBUBZ2sjnJ2HIWvqZakWsuSXu2ey18/wCn8/PU25t9N2v6/Q8i+E/xgu/HHxG1zQp9d0LUbe00+3u7e30u02z4dIy0kx+1ySQklsiGaCI4cbXl2O1ezrUS1KtX0S/r+v68iCWpFqOpFqCkSrUi9qjWpF7VBaJUqVelRJUq9KhjJFqVetRLUq9akaJFqRajWpFqGUSL0qRajXpUi1DKJVqZahWplqGBIvauU+L/APySrxd/2C7j/wBFmurXtXKfF/8A5JV4u/7Bdx/6LNdWD/3ql/iX5o58V/u9T0f5H89VFFFch1hRRRQAUUUUAFFFFABRRRQAUUUUAFFFFABRRRQB0Pw7/wCSgeGf+wna/wDo1a/c26/4/Jv+ujfzNfhl8O/+SgeGf+wna/8Ao1a/eSfw3M1xK3mxjc5OOfWvVpSUcPG/80vyiefJN15W7R/ORjr2qRa0x4dmH/LWP9f8KcPD83/PWP8AX/Cl7SPc05WZy1Ivar40Gb/npH+v+FOGhyj/AJaJ+v8AhU+0j3Hyspr2p69auLo8o/jT9f8ACnf2TL/fT9f8KnniHKyqvapFqwNMkH8afr/hThp8n95PzP8AhUuSK5WQrUi9qkFjJ/eX8z/hThZuO6/mf8KnmRVhF7U9aVbdx3X8z/hThC/+z+Z/wqW0Fhy9qkWmBGH938//AK1OG4dl/P8A+tU3HYkXpUi9ahDN6D8//rU4SH0H5/8A1qQydakXpVYTEfwj8/8A61OFwf7o/P8A+tUFFtalWqIvD/cH5/8A1qet9j+D9f8A61TZgX16VIvWs7+0f+mf/j3/ANan/wBqD/nn/wCPf/WpWYGR8Uv+SYeMP+wPef8Aoh6/njr+g/4nal5nw18Wp5eN2kXg+9/0xf2r+fCuqSthof4pflEwj/vE/SP5yCiiiuQ6gooooAKKKKACuh+Hf/JQPDP/AGE7X/0atc9XQ/Dv/koHhn/sJ2v/AKNWuvB/7zT/AMS/M5cV/u9T0f5H7p6t/wAhi+/67yf+hGoF7Vt33h+a4v7mYSxqJJWcA54ySajHh2Yf8tY/1/wroVSNlqTyu5mLUi1ojw/N/wA9Y/1/wpw0Gb/npH+v+FHtI9x8rKC9qlXtVwaHKP8Alon6/wCFPXR5R/Gn6/4VPPEOVlNetSL2q1/ZMv8AfT9f8KcNMkH8afr/AIVPPEfKyutSLUw0+T+8n5n/AApwsZP7y/mf8KnmRSTI17VKvalFm47r+Z/wp627juv5n/Cp5kOwi9alXtTRC/8As/mf8KeEYf3fz/8ArVN0Fh609elRjcOy/n/9anBm9B+f/wBapuUTL1p61AJD6D8//rU4TEfwj8//AK1IZZXpUi1UFwf7o/P/AOtTheH+4Pz/APrVAy8tSL0qgt9j+D9f/rU7+0f+mf8A49/9apswNFetc18Uv+SYeMP+wPef+iHrX/tQf88//Hv/AK1c38TtS8z4a+LU8vG7SLwfe/6Yv7V1YRP6zT/xL8znxX+71PR/kfz4UUUVyHWFFFFABRRRQAUUUUAdD8O/+SgeGf8AsJ2v/o1a/c26/wCPyb/ro38zX4ZfDv8A5KB4Z/7Cdr/6NWv3kn8NzNcSt5sY3OTjn1r1aUlHDxv/ADS/KJ58k3XlbtH85GQtSLWkvh2Yf8tY/wBf8KcPD83/AD1j/X/Cl7SPc05WUFqVaujQpf8AnpH+v+FPXRZR/wAtE/X/AAqOeI+VlSpFq1/ZMv8AfT9f8KculyD+NP1/wqeeI1FkC1Ivaphp8g/iX8z/AIU4WMg/iX8z/hU8yKSYxKlXpSrauvdfzP8AhThA/qv5n/Co5kOwq1KvWmLGw/u/n/8AWp+G9F/P/wCtSuNIkWpFqEFvQfn/APWpwkPoPz/+tUjLC9KkWqvnn+6Pz/8ArU8XRH8I/P8A+tUFFxamWqC3uP4P1/8ArU8aj/0z/wDHv/rVLTA0F7Vynxf/AOSVeLv+wXcf+izW6NTx/wAs/wDx7/61cx8Vb77V8MfFkQTaTpVyc59ImPp7V1YNP61S/wAS/NHNiv8Ad6no/wAj+fSiiiuM7AooooAKKKKACiiigAooooAKKKKACiiigAooooA6H4d/8lA8M/8AYTtf/Rq1/QJJ/rG+pr+fv4d/8lA8M/8AYTtf/Rq1/QJJ/rG+prv/AOYaH+KX5ROP/mIl6R/ORR1PWLHRYoJb+7hs457iK1iaZgoeaVwkaD1ZmYAD3q5XiHxI/Z71/wCJfxa8LeK77x8bfQ/DmpW2o2Xh2HSj5e6KRXO6Tz/mdtpG/b8oPC9c+31zJs6Dy3R/ih4q1b/hLNTl8PeGtM8LaNJqFvDql/4llikkktXZN08f2LZBESjFpBLIUXna3QddN8RPDVj4k0/wxfeItFtPFl9b/aLfQm1GL7XOgViWiiJDug2P8wXohPGDXmN5+zZpzeCfictponhy38deLItat4/EC2ircNFdtIYUmuBH5hVQ0YYfMBs4zgVnt+z7qifGK9124sodc0K+1S21jzpPGWrWBsZooYo1H9mRq1pc7WgRw7shO7BHyAtOvJG+9lf1/p31stLaXuVUsuZx7yt6K3L/AFv18jqJv2kPDOm/CXQfF2r32k6Nq+uaD/bWneHb3VYori8YW4lMEJYBpCCyruVD1Bxziu10v4keGNU8QR+HI/EOk/8ACUm0W9k0Fb+Jr6OJlVt5h3b9vzD5tuOR614Kf2efHejeAbnw3p1v4S1hta8D2PhTUbrV7qdBYyW8E0e+JFtm+0xM05bY7QlSpOTuwvonhH4f+LvDnxVudQthYaR4RuIvMv4oNXlvH1S6EEUSSm2ktVFoy+XjdFOyuF+aMs26PeVvaSUdtbfK/wDwNevRbtTUsmuX+trfr+b6I9boooqBBRRRQAUUUUAFFFFABRRRQAUUUUAFFFFABRRRQBzvxI/5J14r/wCwRef+iHr+f6v6AfiR/wAk68V/9gi8/wDRD1/P9W1X/d4f4pflEwp/x5+kfzkFFFFcJ2BRRRQAUUUUAFdD8O/+SgeGf+wna/8Ao1a56uh+Hf8AyUDwz/2E7X/0atdeD/3mn/iX5nLiv93qej/I/oEk/wBY31NUdT1ix0WKCW/u4bOOe4itYmmYKHmlcJGg9WZmAA96vSf6xvqa8O+JH7Pev/Ev4teFvFd94+NvofhzUrbUbLw7DpR8vdFIrndJ5/zO20jft+UHheucm3bQ2R7fXmXgv45WPiRfiC+q2DeHYPB99cwzT3E4eO4tIi4+1qcDapaGdSp6GJuT1r02vEZfgLq1xqllONTs7W1m1vUJ9ZhjV2N9ps1213FAG+XDiRY1YHK7JZwM7gaWvNbo0/k7qz/P5X3dh6ct+t181Z3/AE+dulze8JftAeHL74Y6Z4z8Y3+lfD62vby4sRFreqwxIs0U8sXl+a+xWc+SzbR0wRzjNVfEH7S3hDTNW17RtP1Gw1TXdD1LTLC+09dQhWSNbu5t4DNhSzBY/tALblHzLtyM5rzzXP2afE/2Pw/PbfZdYurGXXIp9Oi8W6p4ejeG+vzdI4urJC7FVVVaJ4ypLEhhsG7oNW+AusXdrqXh+107Qk8J3svh64EN1qE87xCwntfNtTG8B82Mw27bZGfLMQrIBlqpayj25lf09fRX0720a1mO6Uvn96/r5X1W3qMfxb8DS+C38YJ4z8PP4SRtja8uqwGwVt+zBn3+WDuIX73U460upfFjwRovh/Stdv8Axj4fsdE1Zlj07UrnVII7a9ZgSiwyF9shYAkBScgV534g+EPii18Xaj4p0KPQtRvo/FS6/YaXqlzLbwSxtpMVhIHmSGQwyhhJIrLHICMA4Lkrn6b8IfHHhnXrDxVYWHhXU9Zuhqi6ho11fTW9lYi+uIZma2mW2kaUjycOGjj85nZ8x/dK9O342Tt83pfZbsckkt/+G11+XbrfQ9A8IfGvwx4i07wkuoazpOheIfEtkl5Y+H7nUovtcykEkRIxV5QMNyq9j6V39fP3gH4L+NvAOo+AYdMOjaZbabpVjpuv6lY6pNtv4rdZcW6ac9q0YQGQ7JlnikXdzvVdj/QNXpr6v7un9fhazcve3kv6/r/hiiiikMKKKKACiiigAooooAKKKKACiiigArnfiR/yTrxX/wBgi8/9EPXRVzvxI/5J14r/AOwRef8Aoh66sJ/vFP8AxL8zlxX8Cp6P8j+f6iiivNO8KKKKACiiigAooooA6H4d/wDJQPDP/YTtf/Rq1/QJJ/rG+pr+fv4d/wDJQPDP/YTtf/Rq1/QJJ/rG+prv/wCYaH+KX5ROP/mIl6R/ORR1PWLHRYoJb+7hs457iK1iaZgoeaVwkaD1ZmYAD3q5XiHxI/Z71/4l/Frwt4rvvHxt9D8OalbajZeHYdKPl7opFc7pPP8AmdtpG/b8oPC9c+31zJs6DzLwX8crHxIvxBfVbBvDsHg++uYZp7icPHcWkRcfa1OBtUtDOpU9DE3J60zwl+0B4cvvhjpnjPxjf6V8Pra9vLixEWt6rDEizRTyxeX5r7FZz5LNtHTBHOM1gy/AXVrjVLKcanZ2trNreoT6zDGrsb7TZrtruKAN8uHEixqwOV2SzgZ3A1yGufs0+J/sfh+e2+y6xdWMuuRT6dF4t1Tw9G8N9fm6RxdWSF2Kqqq0TxlSWJDDYNyi3yxct7K/yW//AG89PJ30shytztLa7+6+n3b+at1PQ/EH7S3hDTNW17RtP1Gw1TXdD1LTLC+09dQhWSNbu5t4DNhSzBY/tALblHzLtyM5rro/i34Gl8Fv4wTxn4efwkjbG15dVgNgrb9mDPv8sHcQv3upx1ry7VvgLrF3a6l4ftdO0JPCd7L4euBDdahPO8QsJ7XzbUxvAfNjMNu22RnyzEKyAZar3iD4Q+KLXxdqPinQo9C1G+j8VLr9hpeqXMtvBLG2kxWEgeZIZDDKGEkisscgIwDguStx+F8z6v8AOKWnzb36btBHWKb3/wCBt9//AA10eial8WPBGi+H9K12/wDGPh+x0TVmWPTtSudUgjtr1mBKLDIX2yFgCQFJyBWX4Q+NfhjxFp3hJdQ1nSdC8Q+JbJLyx8P3OpRfa5lIJIiRirygYblV7H0rz/TfhD448M69YeKrCw8K6nrN0NUXUNGur6a3srEX1xDMzW0y20jSkeThw0cfnM7PmP7pb4B+C/jbwDqPgGHTDo2mW2m6VY6br+pWOqTbb+K3WXFumnPatGEBkOyZZ4pF3c71XY5HW1+tr+W99fLR387JNqzh6c1tbbefy8+3Tq7M+gaKKKBhRRRQAUUUUAFFFFABRRRQAVzvxI/5J14r/wCwRef+iHroq534kf8AJOvFf/YIvP8A0Q9dWE/3in/iX5nLiv4FT0f5H8/1FFFead4UUUUAFFFFABRRRQAUUUUAFFFFABRRRQAUUUUAdD8O/wDkoHhn/sJ2v/o1a/oPbS5mZjleT61/Ph8O/wDkoHhn/sJ2v/o1a/olrrlJrDQt/NL8onJFXxEvSP5yMj+y5vVfzo/sub1X86168T/ay+OGo/Af4e6drWmWsNzNfanHp7tKCfKRo5HZ1GRlsRkAEgZIJ6YOdGNSvUjShux4itTw1KVao/djueq/2XN6r+dH9lzeq/nXwZ4T/a21TxJ8ZPCGmeDD4guIdS1K3g1a5124Fw91CzhZCLaMeVbhFJbdFtB25YYzX6FV0YvC1sG4qru1f+v6/wAjlwWOoY9SdF3UXby+Rkf2XN6r+dH9lzeq/nWZ8S/EUPhjwzFdz3uo6esupafZLcaXHA8wee8hgQYmVk2FpArnG4IWK4YKa5Oz/aBsNV8OeNdbtNA1SPSfDktzaR6jPJaNFqF1DI0LQQxxTvMr+aoXbNHGTvXAOa8/2js36/hb/NHqcmiffQ7/APsub1X86P7Lm9V/OvL/AAr8WNU8FeA9ci8cvceIvFXh/VY9JkXSbREm1SW48p7MQx5WMFxcRx7iyIGRyxUAkZOkftGXtjrHiBNZ8K+J2u5/EUGhaV4ajtbRr2GZtKF4Y2dZvJZWMch83zmRS43OqqxS+ZvbX+l+Oq03V1fdEqN/x+5X19NG/NJ9j2b+y5vVfzo/sub1X868gvP2odH1Lwrq14+heMPDVmND1LUYdWa0s/MElkpF3BCjyyD7RC+4AyR+Q5QlXkTk7tx+0HpeleLLjw/JoHiS8t9O1Oy0TUPEX2e3Wytrm6it3tt581XfzGuY0PlRtsY/OEUozClKT5V/Wtvzt63Vh8vu83TX8LX/ADPQv7Lm9V/Oj+y5vVfzrxTwT8bNe0f/AIWg3imZdWGn6jfXHhyGGFIXmt47lrRbIH5VeQTJEAxOT9qjBPeuf0n9rvTvhX8KPD118SNVTWPFd/eatCUju9N0szR2l9LA8im7uLaEhcRKEVzIdwO1sOwlVG4qXRpfj/lZ36K24ONpOHVNr7v8+nc+i/7Lm9V/Oj+y5vVfzrzOy/ai8OatrEcOnaH4gv8ARPt2n2E3iSK2hXT4JL6G2lsyxeVZWEn2uJPkjYox/eBFKs3W6f8AFnSNUXQjDb3q/wBs6tfaNb740G2a1+0+Yz/Pwh+yybSMk5XIGTipOcVdr+tH+TX3kqzSa2epv/2XN6r+dH9lzeq/nXzJ8FfjtrBs7zxBrHi3xJ4t03T/AAzLrXiHTdY0K3097GXeDbnTyLa2NxDIEu13lpkPkr+9U/f9w8b/ABt0TwHJrCX1jqt2+lrpbSpYWwmeT7fdNawCNQ25iHUlgBnBG3ceKOaVk+/+dvx6F8nvOP8AXT/M6v8Asub1X86P7Lm9V/OvOH/aQsYdLt2m8G+KYtfl1xvDp8NCG0kvo737G14isyXLQBHhVWEglKL5ilygDlat7+0PoUem2fiWZfEen21roWu6teaH9ntCw/s2WGK6hm+Zj58cjFUEUvlt+8JZhsNHNL+vS/5ajjTcpKCWr/za/NP7meo/2XN6r+dH9lzeq/nXni/tHaXDY65JfeFvE2malpxsjbaPdW0H2zU0vJWis3gVZmVRLIjpidomjKnzRGATXUfDr4lRfEJtbt20HWPDepaLdJZ32n61HCJY5HhjmG1oZZI3GyVfmRyM5GeDRzS18v8Agf5q/a6vuZrldrf1/wAP079Db/sub1X86P7Lm9V/OteilzsfKjhPiZp0sXw38WOSuF0i8PX/AKYPX8+lf0O/FT/kmHi//sD3n/oh6/nirqk28NC/80vyic8VavP0j+cgooorkOoKKKKACiiigArofh3/AMlA8M/9hO1/9GrXPV0Pw7/5KB4Z/wCwna/+jVrrwf8AvNP/ABL8zlxX+71PR/kf0HtpczMxyvJ9aT+y5vVfzrXork52dHKjI/sub1X86P7Lm9V/OuM+N3iTxJo9l4b03wvLFbajrmpmwa4dVLxRLbT3DtFu+XzdsBVd4KZYbgRXn/gPxVrWj+NPDEOlX+rX3hLWdSuNIvI/EkqzXEV7DBcSSNAwJYASWssbhiUzjygF5PXGlKUOe67/AJ/5OxoqV1c9z/sub1X86P7Lm9V/OteuL+LXirVPCvhWFtDNqmtajqFnpVnPfxtJbwSXE6RebIispcIrM2wMu8gLuG7I5ed3SW7aXzei/Ez5Vq3sv03N3+y5vVfzo/sub1X86878S+KLn9nHwLqPiHxV4o1rx9pwniUzatPoemSWm8lf9c5sbfyydgAYl9zcFsgLgWP7VVjd66mpNo15F8Nm8Ix+KX8Us1qYreM+YWMgFyZCoCbMJE3z5OSuGqfa62/r4XL8kx8ul/63UfzaPY/7Lm9V/Oj+y5vVfzrxfwj+2d4Q8fadMfDmj6p4g15b+Owh8P6PfaVf3FwzxSSh1ngvXtEURwzMfMnRh5eCuXjD9FB+0dZ6pZ2K6L4K8V67rt1NfRHw/bQ2kF3AtnOILiWR7i5jgCLKUUYlLPvBQMoJFuUlo/60v+W/bqTpvf8Ar+lp36Ho39lzeq/nR/Zc3qv515fq37U3h+xQz2PhzxJrdhBo9vr+oX1nbQRxadYyyXEbSTieaNw0Rtpd8aq0gxwrYbbnfHH4v+INPNra+BDKNQ0vxFa22omS2jmh1CIWct5NZxclhI0SRjcAuGlTBPzAKU3Hfvb8Ur+ivr/mVybq2qV/w5vvt+aPYf7Lm9V/Oj+y5vVfzryHxL8aL26+Nfw/0vQdRVfCFzvOqTpFG6XTS6fc3UMe45dPLSBJTgDInj5IyKyvDv7dvw28VLqz6UbzU1sjaNCul3NjqEt7FcXcVqkqQ21zJJFiSeEmO4SKXD8RsysqtObfLbXt17fp92pOnfTT8dvzXz0Pc/7Lm9V/Oj+y5vVfzrjvC/xw07xFd2Wn3Wg614f1qfWJNDn0rU1tzNZ3CWZvB5rQzSRlWgCsrRu/31Bwd2Ot8IeLLTxpo76lYxzRQJd3VkVuFAbfbzyQOeCRgtGxHPQjIB4o5pb/ANajsv6/ryJP7Lm9V/Oj+y5vVfzrXopc7DlRkf2XN6r+dH9lzeq/nWvRRzsOVGR/Zc3qv50f2XN6r+da9FHOw5UZH9lzeq/nXN/EzTpYvhv4sclcLpF4ev8A0weu7rlvip/yTDxf/wBge8/9EPXXg5v6zT/xL8zmxUV9Xqej/I/niooorjOsKKKKACiiigAooooA6H4d/wDJQPDP/YTtf/Rq1/Qe2lzMzHK8n1r+fD4d/wDJQPDP/YTtf/Rq1/RLXXKTWGhb+aX5ROSKviJekfzkZH9lzeq/nR/Zc3qv51r15r8bvEniTR7Lw3pvheWK21HXNTNg1w6qXiiW2nuHaLd8vm7YCq7wUyw3AisIc1SXKjrULux2f9lzeq/nR/Zc3qv514Z4D8Va1o/jTwxDpV/q194S1nUrjSLyPxJKs1xFewwXEkjQMCWAElrLG4YlM48oBeT9FVpWjKjJK9xyp8pkf2XN6r+dH9lzeq/nXH/tC+J9Q8H/AAm1bVNL1K+0i7jns4vt2m2a3l1Ckl3DHI0ULRSiSTY7bV8tyTjCk8VxHw7+OFxpfg64W+k8RfEHVZNfm0jRrSTTINP128UQLcYu7eRbSK2dU81wZVgDRLE2C0i7+eM3K6XT/gL9fz7EuNkn3dvwuez/ANlzeq/nR/Zc3qv515837Qtpc2+nwaT4N8Ua74luTcifwzZx2cV7Y/Z3WOczvPcx24CvJEo2zN5nmK0e9MsMCw/aKt7z4mT2lguoa9Y6l4e0m/0bw9ZW0Ud880t1fx3UjCUx7BGsMXmea6qhTA+dwrUpSev9P07hyaSf8u/3pfLfr0PYP7Lm9V/Oj+y5vVfzrxTwT8bNe0f/AIWg3imZdWGn6jfXHhyGGFIXmt47lrRbIH5VeQTJEAxOT9qjBPeuf0n9rvTvhX8KPD118SNVTWPFd/eatCUju9N0szR2l9LA8im7uLaEhcRKEVzIdwO1sOwlVG4qXRpfj/lZ36K24ONpOHVNr7v8+nc+i/7Lm9V/Oj+y5vVfzrzOy/ai8OatrEcOnaH4gv8ARPt2n2E3iSK2hXT4JL6G2lsyxeVZWEn2uJPkjYox/eBFKs3Xab8WNI1T+wfKtr1f7Z1e90W33og2zWv2nzGfD8Ifssm0jJOVyBk4v31uv60f6r7ydGk1tv8AI3v7Lm9V/Oj+y5vVfzrXoqedj5UZH9lzeq/nR/Zc3qv51r0Uc7DlRkf2XN6r+dH9lzeq/nWvRRzsOVGR/Zc3qv51zfxM06WL4b+LHJXC6ReHr/0weu7rlvip/wAkw8X/APYHvP8A0Q9deDm/rNP/ABL8zmxUV9Xqej/I/niooorjOsKKKKACiiigAooooAKKKKACiiigAooooAKKKKAOh+Hf/JQPDP8A2E7X/wBGrX9EtfztfDv/AJKB4Z/7Cdr/AOjVr+giS4l8xv3r9f7xrslHmw0P8UvyicidsRL0j+cjdrJ8UeE9G8aaRNpeu6Za6tp8v37e7iWRD6HBHUdj2qt9pm/56v8A99Gj7TN/z1f/AL6Ncyi4u6ZvK0lZq6Mr4c/BrwZ8J7SS38K6Ba6UJDmSVQXmfnIDSMSzAHpknHau0rA+0zf89X/76NH2mb/nq/8A30aclOpLmm7sUIwpx5YKy8h3jTwfZeOtGh0y/lnhgiv7LUA1uyq3mW1zFcxg5BG0vCobjJBOCDyPOdU/Ze8N+KvEetav4r1TUvF/9rPbrc2Oq2unrbPbQTmeK0kWG1jM8KvtIE5kYBMBgHkD+ifaZv8Anq//AH0aPtM3/PV/++jU+zenk7/PT/K3pp1ZblePL0PPpP2VPAFj/aQ8MaavgNb1bR/K8K21tZQw3VrOZre8SIRGMzqzFSXVldMK6soxWj4d+Aem6Jq9rq954j1/xBrEOtLr0l9qktvvnuRYPYAMkUMaKnkyE7I1QbgD6g9h9pm/56v/AN9Gj7TN/wA9X/76NNRlHZ/1/SX3Lsg5uvy/C39er7s47WP2efDmteFW0Ce91RLM2usWe+OWMSbNSZ2uDkxkZUudnHHGQ1ad98GdFv49eSS6vwNZ1zTtfuNsifLcWf2TylT5OEP2GLcDknc+CMjG99pm/wCer/8AfRo+0zf89X/76NEYuL5k9f8Ahn+aX3DU3FJLp/wP8kc23wK8Mzalot9N9tmudJ1u7123ZrjaDNcO8jxuFADxCRkkVT0aGJskrzlSfs8WNnb6Y3h7xb4k8Kapp82oOmraY9nJNJFe3JuZ4HS4tpYWTzdpU+XvXYAG5bd3P2mb/nq//fRo+0zf89X/AO+jSVNpJJ7f5W/LT00E5KTu/wCtb/m7+pz9x8GNIvbXW4rnUNSnfWNa07XrqZniDm5shZiPG2MKFb7DEWGOdz7SuRtzdH+Adho/jO11xPFHiKexstUu9XsfD80tt9gtLi5SZZymIBMysbiVgrysFJ+Xavy12X2mb/nq/wD30aPtM3/PV/8Avo0+V7X/AKsl+SX3Dc7x5Xscdf8A7PPhvUPDWh6G95qkdnpek3Ohs0M6JJeWU8XlyQzME6ZEcgZNjK8SkHG5Wr6f+zzZRx3z6z4v8TeKL+9m0mWW/wBUktFl/wCJddm6t0CwW8UYBc4bCZZe4b5q7n7TN/z1f/vo0faZv+er/wDfRoUXF3T/AKvf8xc2z/r+tF9yMNvg7ozeLj4iNzffbTr6+I/L8xPL+0DTP7O2Y2Z8vyfmxnO/ndj5axdS/Zx8Nappuo2Ut9qqxX1lr9hIyTRBhHq9ytxdFcx/eV1AjzkAZ3BzzXbfaZv+er/99Gj7TN/z1f8A76NNKStZ7afhb8tDRVpppp7W/C9vzf3nDfFf4T2GqWmueILez8RaprktppkFtb+H57KO7hksrqWe3ntzdlIRIr3DswlYoypt2nJVov2dvB/iPw/Y+LNX8ULrEeo6/qy3aReILm0m1BYo7aG3U3H2P/RkdjCzBIPkCsmfn31332mb/nq//fRo+0zf89X/AO+jSUWr67/8D/JfcuyM3K9vL8krJfLp/wAFm/RWB9pm/wCer/8AfRo+0zf89X/76NL2bDmKvxU/5Jh4v/7A95/6Iev54q/oE+JVxK3w58VgyOR/ZF5wWP8Azwev5+66px5cND/FL8onNB3rz9I/nIKKKK4zrCiiigAooooAK6H4d/8AJQPDP/YTtf8A0atc9VzR9Sk0XVrHUIQDNaTpOgbpuVgw/UVvh5qnWhOWyaf4mNaDqUpQW7TR/R1RXlf7OHx10H49fDPSdd0m8je9ECx31nuHm28wGGDL1AJGQenvxXqlY1KbpTcJFU5qpFSRh+LvBejeOtK/s7W7Jb22DiWPJKvFIPuyRupDI47OpDDqCK5T4ffAfw58Pr37fHJf63qizXEsF9rFybiW386VpZRFnhNzuxYqAz5G4tgV6PRTjWqRi4KWjNuZ2tcKwvG3gvS/iB4budE1iOR7OZo5A9vK0M0MsbrJFLHIpDI6OiurA5BUVu0ViK9jyPUPgBd6tHplxe/FDxpda/pd6byx12RdLE9uDDJC0SwixFsVZZny5hMnI+fAABH+zT4di0nT9JGsa62kQaFL4eu7NriJv7RtXLFfOlMXmrIjOzK8TxnJ+bdgY9copvVp9V/lb8vzfcXS39b3/M8L8efC3XdF8LaZPH4i+I/j/wARadqIuNN1LSz4eh1PTg0EkUm3z4ba1kiZGZWEqyNl1K4Khlp/Dz9n3V/+EN0W/v8AxP4k8E+NUudTupb7TbqzursQXt01w1tcefBPbuwxCWaNMK6MImEZwfoCinffz/r8evcT2S6L/g/lfQ8yg+GOlfDDS9V1Pw/omq+JbhtDtdFGiR3UDPdxQSXDg77h0BkdruUu8knzYz1zuZ8PPgynh/wD4H0zWbuWfWdBuV1S4uIJvMWe9aKSOTc7rudAJmA4U4ROmMV6hRRfVye7t+Gv5lSblv8A1pb8tPzPMtC/Z68J+G49CisBfRwaPqt5q8MUlx5geS5hlgaNywJ8pIpvLRQRtWOMZIXBq6P+z9Bpfh+Pw9ceNvFGr+G7S4sJ9N0q/axKaetndRXEEUcqWqzOoMMcZM0kjFB97d81er0UJuLTXS34bfd07dBdb9f6/pnmviT4F6drl5qWo2fiDXPD2tXmtx6/HqmmPbma0uEsUsSI1mhkjZGgQhlkR+XYjBC7en+H/ge1+HXheLRLO8vdQiSe4uWutQkV55JJ53mkLFVUffkbGAOMV0dFF3a39aKw5Pmab6BRRRSEFFFFABRRRQAVy3xU/wCSYeL/APsD3n/oh66mvnf9tr9obRPgj8Hdat5bqGbxFq9s9lZacGBc+YpUuwzkIBnn8s4NdmD/AN4hLomm/RPU5cV/BnHq00vVn4g0UUVzHUFFFFABRRRQAUUUUAdD8O/+SgeGf+wna/8Ao1a/olr+cXR9Sk0XVrHUIQDNaTpOgbpuVgw/UV+837OHx10H49fDPSdd0m8je9ECx31nuHm28wGGDL1AJGQenvxXU/fw6S+y236NL/L8Ucvw17v7SSXyv/n+Z6pWH4u8F6N460r+ztbslvbYOJY8kq8Ug+7JG6kMjjs6kMOoIrcorjUnF3R17bHnHw++A/hz4fXv2+OS/wBb1RZriWC+1i5NxLb+dK0soizwm53YsVAZ8jcWwK9Hooq6lSdWXNN3YOTk7s5v4heCYPiJ4Tu9Cn1G90lZ5IZkvtO8r7RBJFKksbp5sciEh414ZGB7iuJb9naybTvM/wCEw8TL4t/tMaufGKvZjUTOIPs3Mf2b7Ls+z/uvL+z7cEtjzPnr1qis9tgvpY8lk/Z3tbeHTbnSPGvinQfElqbo3HiSzks5bzUPtLo84nSe2ktyGeONhshTZ5arHsTKlv8AwzJ4TtdSstV0251TSdb07TrTTtP1a3mjkurNIJLhy6PLG+5pjdSiXzN6yDGVyM165RTvpb+l6dvkLun138+uvfY87b4E+GZdR0S+nN9Pc6Rrd3rtuzXG0NNcO8jxyBQA8QkZJFU9GhibJK85cn7PFjZ2+mN4e8W+JPCmqafNqDpq2mPZyTSRXtybmeB0uLaWFk83aVPl712ABuW3esUUlokl0/yt+WnpoD1d3/Wt/wA3f1OAuPgxpF7a63Fc6hqU76xrWna9dTM8Qc3NkLMR42xhQrfYYiwxzufaVyNudo/wDsNF8aWuux+KPEU9lZapdaxY+H5pbb7BaXFykyzlMQCZlY3ErBXlYKT8u1flr1Ciq5n/AF6Jfkl9w2248r2CiiipEFFFFABRRRQAVy3xU/5Jh4v/AOwPef8Aoh66mvnf9tr9obRPgj8Hdat5bqGbxFq9s9lZacGBc+YpUuwzkIBnn8s4NdmD/wB4hLomm/RPU5cV/BnHq00vVn4g0UUVzHUFFFFABRRRQAUUUUAFFFFABRRRQAUUUUAFFFFAHQ/Dv/koHhn/ALCdr/6NWv6BJP8AWN9TX8/fw7/5KB4Z/wCwna/+jVr+gST/AFjfU13/APMND/FL8onH/wAxEvSP5yPAvi58XPHFv8VPB/g/wf4P8QPpba1Y/wBueI/7JnNqluZ0MkcchTbt2Z3yZwBkA9SPe6KK5kjoPlPwr4jvPhpqHjiz0+5Iv/HXiHVY9EWdjIkerJePbthSR8vkmGYqpHy207Vk+DfiF4z8AfD/AMJ+B/h14f8A7Z1ae58Q3Illgt7vENrqkkW0xz6hZZLGZCZBK5XHMbbty/WcPh/S7dojFptnGYrmS8jKQINk7hg8o44dhI+W6ne2Tyaw/EPwn8D+LtFh0fXfBvh/WtJguHvIrDUNLgngjncsXlWN0Kh2LuSwGSXbJ5NKKcYxj2SXySsvuf3pJPqxyfNNyWzbf3vX8Pud2ux86+M9U+ImqW/jSfV7vTY1TXvCT2nhuaGUHT7qS809/Ka5WeRCisWVjHENx+cY+6e6X4seOkvG8HS3nhlfF58TtoC68+nTpp+3+zV1ESCyNyZGco3leX9oHIL7sDYfWZPhx4Sm1RNTfwvor6ikEFqt42nwmZYYZFlhjD7chI5FV1XOFZQRgjNO1/4e+FvFWm6lp2t+GtH1jT9TmS4vrTULCKeK7lRUVJJUdSHZRHGAWBICKB0FXG0YuPm397jbu9k18/IIv3UnuvzseQ6b8XPHHijW7Hwpp174W07W7T+1H1PWrqxuJ7G7SyuIoGFtCLhGjLNMC5aWTyWRkIkyGrG+DPxB8TaX4d+EttcPp2leCNR0TT4478abNqIv7yVZP3CXUc6C1AxFteaBkkLhVYMQte16l8JfA2taHpGi6h4M8PX2jaOyvpunXOlQSW9kyjCmGNkKxkDgbQMU+H4V+CrbxFp3iCHwfoMWvabB9lsdUTTIBdWsIDL5cUoXciYdxtUgYZvU0R0tfyv579PO6Vtla+t2iHrzW0vt5dl8u+7vbTRnU0UUUDCiiigAooooAKKKKACiiigAooooAKKKKAOd+JH/ACTrxX/2CLz/ANEPX8/1f0A/Ej/knXiv/sEXn/oh6/n+rar/ALvD/FL8omFP+PP0j+cgooorhOwKKKKACiiigAooooA6HwT8QvEvw51Qal4Y1u80S9H/AC2s5ShOOmR0P4+tekf8NofHD/opuvf9/wAf4V4tRXRDEVqa5YTaXk2YSw9Gb5pwTfoj2n/htD44f9FN17/v+P8ACj/htD44f9FN17/v+P8ACvFqKv65if8An5L72R9Vw/8Az7X3I9p/4bQ+OH/RTde/7/j/AAo/4bQ+OH/RTde/7/j/AArxaij65if+fkvvYfVcP/z7X3I9p/4bQ+OH/RTde/7/AI/wo/4bQ+OH/RTde/7/AI/wrxaij65if+fkvvYfVcP/AM+19yPaf+G0Pjh/0U3Xv+/4/wAKP+G0Pjh/0U3Xv+/4/wAK8Woo+uYn/n5L72H1XD/8+19yPaf+G0Pjh/0U3Xv+/wCP8KP+G0Pjh/0U3Xv+/wCP8K8Woo+uYn/n5L72H1XD/wDPtfcj2n/htD44f9FN17/v+P8ACj/htD44f9FN17/v+P8ACvFqKPrmJ/5+S+9h9Vw//Ptfcj2n/htD44f9FN17/v8Aj/Cj/htD44f9FN17/v8Aj/CvFqKPrmJ/5+S+9h9Vw/8Az7X3I9p/4bQ+OH/RTde/7/j/AAo/4bQ+OH/RTde/7/j/AArxaij65if+fkvvYfVcP/z7X3I9p/4bQ+OH/RTde/7/AI/wo/4bQ+OH/RTde/7/AI/wrxaij65if+fkvvYfVcP/AM+19yPaf+G0Pjh/0U3Xv+/4/wAKP+G0Pjh/0U3Xv+/4/wAK8Woo+uYn/n5L72H1XD/8+19yPaf+G0Pjh/0UzXv+/wCP8K8t8UeLNZ8a6tLqmvandatqEv3ri6kLt9BnoPYVkUVnPEVqi5ZzbXm2XChSpvmhBJ+SQUUUVgbhRRRQAUUUUAFFFFABXQ+CfiF4l+HOqDUvDGt3miXo/wCW1nKUJx0yOh/H1rnqKqM5U3zQdmTKMZrlkro9p/4bQ+OH/RTde/7/AI/wo/4bQ+OH/RTde/7/AI/wrxaiun65if8An5L72c/1XD/8+19yPaf+G0Pjh/0U3Xv+/wCP8KP+G0Pjh/0U3Xv+/wCP8K8Woo+uYn/n5L72H1XD/wDPtfcj2n/htD44f9FN17/v+P8ACj/htD44f9FN17/v+P8ACvFqKPrmJ/5+S+9h9Vw//Ptfcj2n/htD44f9FN17/v8Aj/Cj/htD44f9FN17/v8Aj/CvFqKPrmJ/5+S+9h9Vw/8Az7X3I9p/4bQ+OH/RTde/7/j/AAo/4bQ+OH/RTde/7/j/AArxaij65if+fkvvYfVcP/z7X3I9p/4bQ+OH/RTde/7/AI/wo/4bQ+OH/RTde/7/AI/wrxaij65if+fkvvYfVcP/AM+19yPaf+G0Pjh/0U3Xv+/4/wAKP+G0Pjh/0U3Xv+/4/wAK8Woo+uYn/n5L72H1XD/8+19yPaf+G0Pjh/0U3Xv+/wCP8KP+G0Pjh/0U3Xv+/wCP8K8Woo+uYn/n5L72H1XD/wDPtfcj2n/htD44f9FN17/v+P8ACj/htD44f9FN17/v+P8ACvFqKPrmJ/5+S+9h9Vw//Ptfcj2n/htD44f9FM17/v8Aj/CvLfFHizWfGurS6pr2p3WrahL964upC7fQZ6D2FZFFZzxFaouWc215tlwoUqb5oQSfkkFFFFYG4UUUUAFFFFABRRRQAUUUUAFFFFABRRRQAUUUUAdD8O/+SgeGf+wna/8Ao1a/oi8tP7i/lX87vw7/AOSgeGf+wna/+jVr+iWuqf8Au0P8Uvyicsf94n6R/OQzyk/uL+Vcr8RviJo/wz0m1vdUjlmkvLlbKytbaMNLdXDAlIlyQoJCtyxVRgkkDmutrhPix4J1LxhZ6Lc6Q1i2oaNetfRWupozW13ut5rd4ZCvKhknf5sNtIB2sMqeelyuaU9jsja+pmeHfi8X8Vaf4Y8VaCfDeu6oHk01I51uoLpVXcyiRQNsiKCWVgBwdjSAE16X5Sf3F/Kvn34S/CzxWdW0i/13RdP8L2mj6ze6kkKz/aru73/aobeMuuFSGK3uQij5idijEYXDfQtb4qMITtTfrbb5avpbq/0VTUU7Ir3UtvY2s1zOY4oIUaSSRsAKoGST7AVzvw38faV8UPCdtr+l211aW8skkL2uoQCK4hkjcoySJk4OVyOSCCCODWV8cvDviLxl8Or3w54ZeC2vtYlisp726TzIbW1Zx9od4xJG0gMQdNqOrEuORyR4/wCI/hL8S10/xvpmr22k+OdI1y+0vXLq10K1/smK/WKSKK+07yLi8lGZbe3iPzyLFIWkR9oYseKLvJp7bfPS79LP71ZXeih7K2/6dPnfz0WrstT6C0XxPY69rniDS7eCVLjRLmO1uGkRQjs8EcwKEEkjbIoOQOQfrWjqkzafpt3dQafLqU8MTSJZ2vlrLOwBIjQyMiBmPA3Mq5PJA5r5a0H9nqXXdTtYLr4YxeFvBE3jOPVX8MT3Vq0UVguhTWrLJBBK8IRrhgjW8ZdGDkkFWeqmofsw6ppPw/vYPD/hO3tfEN34e8UaJPLFcQrNLBMXXS7VpC/MSoIljQnZCoC4QDFXJWS17fl/n/XQqCUqkIvZ79lq1r8ten6n1tABNDG7QGFmUMY5ApZCR0OCRkexI96828O/HCw1/wAcHw8/hXXdLtpb680yy168W0NjfXVsW82KMR3DzKcRysDLEgIjbBzgHzzXfgDd3/i7xT4uTw3BP4q/4THQ7/RdUkmjM9vYRRaZFetCxf8Acho4btJFG1pVQAhxsrO8J/CnxbY/Fye+tPDniDRJ11/V7248QaprkV1o89hcef5aWlkLuUwTs727F1t4DiOTc7Bikht73k9PO0Wvza9U99ieX92nfXT12ben3L17bn1B5Sf3F/KsLxp4s0/wLo0Op38E00Et/ZaeFt0Vm8y5uYraMnJA2h5lLc5ABwCeD8v+G/gb4sXw9cWXh/wC3w38Wx+HL3Tta8UnU7ZD4nv3iVY5vPtZXuJcyq832i5WOaPf8q5kkCzXvwR1/WPDWtw+APhyfgpb3UuhhNMP9mktdwapDcS6h9ntZ5LdvKhU/MziWbbtZcJHudrTS3V19133tul8r62Wo4Wdr6a/5dr7X16aaNn0J4w+KWheB/G3g3wxqcF0L3xVLcQWVxDAGgjeJAxEzZym7cqqcEFiBxkZlX4laNJ8VD4BS3uX1hdKbVnnWJfsyRiRI/LL7s+Z+8VtoUgKQSRkA+N2fwR1nUrLRbBfDMfhi9sLTVVutVjuY5EutVaSzlg1IMJGmk8yaDzCZR5gKEOMbS2fefBj4jaw19rscMOg+NPEHhDWUv76zvkC2Wq3Mln9mgWUKWIiht1iEoRhiEE9QDEd1fazf/kraXfdeuyauyX8N1vdK3/byTfbZ+ezd7an1F5Sf3F/Kjyk/uL+VfHnw9/Zeja38PWV14K8R2GgN4mS/wBZ0LxOnh63tGhXS76EyJb6PshkWSSeGOQSKWkUKGUopx2Hh7wH4w+Fr+H5dN8D3Wt6fYjxJo1vpel3tnEbCzuNSWbT3AmmRBbrBEq7UYugKARnBC1Nciunf/hr/np+PkNK6T7/AOb/AEV/ml1ufSflJ/cX8qPKT+4v5Vyfwf0O/wDC/wAJ/Bmj6rbi11PT9Gs7W6gDq4jlSFFddykg4YEZBwa6+nNcsnFO9iIvmSYzyk/uL+VHlJ/cX8qfRUFDPKT+4v5UeUn9xfyp9FAHKfFONB8MfF5CqD/Y952/6YPX88lf0O/FT/kmHi//ALA95/6Iev54q7Zf7tD/ABS/KJyx/wB4n6R/OQUUUVynUFFFFABRRRQAUUUUAFFFFABRRRQAUUUUAFFFFABRRRQAUUUUAFFFFABRRRQAUUUUAFFFFABRRRQAUUUUAFFFFABRRRQAUUUUAFFFFABRRRQAUUUUAFFFFABRRRQAUUUUAFFFFABRRRQAUUUUAFFFFABRRRQAUUUUAFFFFABRRRQAUUUUAFFFFABRRRQAUUUUAFFFFABRRRQB0Pw7/wCSgeGf+wna/wDo1a/olr+dr4d/8lA8M/8AYTtf/Rq1/RLXVP8A3aH+KX5ROWP+8T9I/nIKRmCKSxCj1JxS145+0xbLeaD4aivry5sPDp1bOs3EMbPCtqLacqLlVHNuZhAJN2F2k7iFyRz04e0mo3OyK5nY9Q0LxNpHii1e50fU7TVLdJGhaWzmWVVdThlJUnkHgjtWnXyn8PdXs/E3xU8JapolzYRX8OoXmm6pY+GoSts2n28d3BFNdMpK4aaGFoFYgqshC7wGavqytcRR9hPlKnHkdgorhPjh47k+HPwv1zWreOabUBGlpYxW1tLcyvdTOsMIWKJWkkw7qdqKWIBwDXhnw9+LEXgDwP4j8IeEIry3m0/XdPsdAPjLSdQsDDa6lMkaTzQXKQzPHHctdKApVW8tEDqTkcsbylypdvvbSt66rfQzl7qu/wDhlbf/AIa7Pq6ivljRfG3j3QPHPiLRrLUPCeoeKdZ8bW+iXep/Y7gWUSjw/wDafNFqJy6OphT9yZjuGR5ibwyR638bvHa/DrV9R8Taf4P1fS7zw54j/wCJSunTtG9zpoaN2mMkzLJb3GxyYNoKBgvmy4LFtWSfe34q/wDl9/k7XGLlUjT6y/zt+af9NX+q6K+ftS+LXjbSfFGuNZw+G7fwX4d8TaP4dex+xzm9uY72LTxuSQTLHD5T3uR+7kDqNuIyu51+GfhvwFr1pqnxC8W2mmX3jbS9fv4LrXNWVXvNIkiu3SG1gkf57eIReUFjj2iRZd5VjMxZtcsed7f8BP8AKS6+RCu0mlva3z1t6n0BRXx1qnxz+JvjHwz4t0yK7sdAuVt9I1rQ9cbRfs32nT7i+MSt9ni1WaUK4VSGkaBiC6tCD07c/Gz4qTfFLUdI03whHrvhnw1eQ6Zrt7aWttGJXNtFNLcxu+p+dAFEylYPsk5YJgSkvlM+ZXaellf7nZ37Wl7rv18tQ9Nf1urq3e61Xl56H0dRXy6v7SHjfw1oGleJNdfwhq+m614P1DxfaabpiT2k9pHCls8cMkzyyiZALjD3AjjGVyIxnA2/Enxc+IngFb7RtQvfCPiTxBJ/Y1xZXunafc2drFHe6nHZNHPC1zM3R2eOVZAH2uPLHlnfq4SUlC2rdvndq3ys/LTQI+8rry/G1n+K89fU+h6K8Z0P4jeNYfE1v4I1k6Le+K49Uzc3tjYyW1tNo/kCU3cdu1xI6HzD9m5kYBwWwV+WvE/hjqVxoPwT074U213J9r8TWCarYNJKzummTK0upYOQRsdJ0BUnYby3GO1YTlyxcvL9L/LS9+1nfYuMeZpf1u1+ey63Vtz7Sor5A8F/GX4k2Phf4ceFfh94MXX103wboep6ivl2jCeO4jKiNXm1G1a2AED/AL1YbkZb7g2Yfv8Aw78YvHt54k0m61KPw8fDWreJ9a8L21jaWk/25Gs2v2iuXmMxTDLYlGiEfVt4kGfLXpq0/ZOSf2W/w/z6GVOXtIKa62/FOX4JNs+gKK8m+HPxgvfGl98O4Jf7OP8AwkXhCTxDdC13ZSYNaKBH85xHm4kHOTlRzwc+s1MouO/n+Daf4od/6+V/1CiiioGct8VP+SYeL/8AsD3n/oh6/nir+h34qf8AJMPF/wD2B7z/ANEPX88Vdsv92h/il+UTlj/vE/SP5yCiiiuU6gooooAKKKKACiiigAooooAKKKKACiiigAooooAKKKKACiiigAooooAKKKKACiiigAooooAKKKKACiiigAooooAKKKKACiiigAooooAKKKKACiiigAooooAKKKKACiiigAooooAKKKKACiiigAooooAKKKKACiiigAooooAKKKKACiiigAooooAKKKKACiiigAooooAKKKKAOh+Hf/JQPDP/AGE7X/0atf0S1/O18O/+SgeGf+wna/8Ao1a/olrqn/u0P8Uvyicsf94n6R/OQUjKHUhgGHoRmlrzX43eJPEmj2XhvTfC8sVtqOuambBrh1UvFEttPcO0W75fN2wFV3gplhuBFc0IOpLlR1pczsdvoXhnSPC9q9to+mWml27yNM0VnCsSs7HLMQoHJPJPetOvnXwH4q1rR/GnhiHSr/Vr7wlrOpXGkXkfiSVZriK9hguJJGgYEsAJLWWNwxKZx5QC8n6KrSvTdOWrvf8Ar7ypRcdyteabaai1u13aw3TW0ongM0YfypACA65HysASMjnk1n654M8P+KI7xNZ0LTdWS8tTY3K31nHMJ7cncYXDA7oyedh4z2qLx14rh8D+D9X12dGlWxt2lSFBlppMYjjUd2dyqgdywrzbwr8WNU8FeA9ci8cvceIvFXh/VY9JkXSbREm1SW48p7MQx5WMFxcRx7iyIGRyxUAkcqs249fzvpp3fS25O1n/AFprr2Xm+p6H4f8Ahr4Q8J2tna6J4V0TRraym+0WsOn6dDAkEvltF5iBFAVvLdk3DnaxHQkVZuPA/hy7sTZT6Bpc1nsuIvs8llG0eyck3C7SuMSEneP4snOa8d0j9oy9sdY8QJrPhXxO13P4ig0LSvDUdraNewzNpQvDGzrN5LKxjkPm+cyKXG51VWKT3n7UOj6l4V1a8fQvGHhqzGh6lqMOrNaWfmCSyUi7ghR5ZB9ohfcAZI/IcoSryJybd3q/60v/AF6ruhxi+aMVu7W++3rvf7n2Z7DJ4V0WZboSaPYSC6uYb24DWqHzriLy/Kmfj5nTyYtrHlfKTBG0Yzrz4Y+DtQ8Z23i+68J6Hc+LLVPKg16bTYXv4kwy7UnK71GGYYB6MfWuMuP2g9L0rxZceH5NA8SXlvp2p2Wiah4i+z262Vtc3UVu9tvPmq7+Y1zGh8qNtjH5wilGblvBPxs17R/+FoN4pmXVhp+o31x4chhhSF5reO5a0WyB+VXkEyRAMTk/aowT3pa/g2vklovPlafoTvFPo7L7728raW9bHpujfBL4d+HdJ1TS9J8A+GNL0zVY2i1Cys9GtoYbxGGGWZFQLICOoYEGpW+DvgFvEGk67/wg/hv+3NIgjttN1M6Rb/abKKMERxwybN0aKGICqQBk4614xpX7UR+FPwN0PxR8SZZNYuZtU1PTrvUobrS9PRWt7ueMAR3Nzb+Z8kR2pCJJCEPyk8nt9Q+PGl+H9W1Nbe38TeK7i61+HQ7LTLG2tSBcPpS36LAxaPETx8mSd/lkdslIhuWrO7S6dvw/PT10Be+m/Jv5dfy1+V+hV+F/7Oo8F+PtQ8V6o3hH7VcW09utr4R8KDRIZmnkR557vNxO1xKfKRQxK7QZODv473wz8IfAngvSZtK8PeCvDuhaXNcx3stlpmlQW8L3EbK0czIiBS6siFWIyCikHgV5L4q+POr3WufDXXdCafSvDEsmp/8ACT6PqVrG1zGlvPDaSqzIXCNbzSO7NG7IViflgQasaj8epdF+OHiA6rqi6d8OND8O6hczu0MbI89nLa/aLjzBl8J9oeHZwN0MmQeDST1UV0v90Vzfd28wl1k+6+9u1vJ916s9N8O+A7mw8fa/4t1bUbfUtQvoY9PsktrL7OlnYxu8ixEl3aSQvI5eTKqQEAjXaS3QWvhnR7KK1it9KsYI7W3e0t0itkUQwtt3RIAPlQ7Eyo4O1fQV4f4V/bV8G+NbFW0PSNW1rVZNUj0mLSNHu9M1KaSaS2nuIm861vJbdVcWsy5eVShAMgRDvr0Hwf8AGrR/GTaXFBp+p2N3e2eoXT2t5HEJLR7K4S2uYJdkjL5iyvt+Qsh2sQ2MEko8qs9kv0bf4Xb9ddx31v1f+dl+Vl6abGjrfwd8A+Jv7DGseB/Deq/2EqppP27Sbeb+z1G3C2+5D5QGxMBMfdX0FbkXhfRoPs3l6RYx/ZbuW/g22yDyrmXzPNmTj5ZH86Xc45PmPknccs8IeJrXxp4T0bxBYxzRWWq2cN9BHcKBIqSIHUMASA2GGcEj3rXpy5otxe/6kq1tDmPDPwv8GeCtUvNS8PeEdC0HUb15JLq80zTYbaadpGVpGd0UFixVSSTyVGeldPRRU9LDCiiigDlvip/yTDxf/wBge8/9EPX88Vf0O/FT/kmHi/8A7A95/wCiHr+eKu2X+7Q/xS/KJyx/3ifpH85BRRRXKdQUUUUAFFFFABRRRQAUUUUAFFFFABRRRQAUUUUAFFFFABRRRQAUUUUAFFFFABRRRQAUUUUAFFFFABRRRQAUUUUAFFFFABRRRQAUUUUAFFFFABRRRQAUUUUAFFFFABRRRQAUUUUAFFFFABRRRQAUUUUAFFFFABRRRQAUUUUAFFFFABRRRQAUUUUAFFFFABRRRQAUUUUAFFFFAHQ/Dv8A5KB4Z/7Cdr/6NWv6Ja/na+Hf/JQPDP8A2E7X/wBGrX9EtdU/92h/il+UTlj/ALxP0j+cgrD8XeC9G8daV/Z2t2S3tsHEseSVeKQfdkjdSGRx2dSGHUEVuVynxG+JGlfDPSbW91RZ5pLy5WysrW2QNLdXDAlIlyQoJCtyxVRgkkDmuWHM5Lk3OuN76GH8PvgP4c+H179vjkv9b1RZriWC+1i5NxLb+dK0soizwm53YsVAZ8jcWwK9HrzPw78Y5H8Vaf4Y8VaI/hvXdUDyaakdwt1BdKq7mUSKBtkRQSysAODsaQAmvTK1r+1cr1Xdv5/d0/4JUua95HM/EL4d6L8UNBj0PxHbLqGi/aobq506ZEkgvPKcOsUyOpDx71VivfaAeMg8LJ+yp4Asf7SHhjTV8BreraP5XhW2trKGG6tZzNb3iRCIxmdWYqS6srphXVlGK9burqKxtZrmeRYoIUaSSRjgKoGST7AVznw3+IWm/FDwnba/pcF5aW8skkL2uoQ+VcQyRuUZJEycHK5HJBBBHBrmjo3y7rX9E/w081dakvbXbb9bf108jmPDvwD03RNXtdXvPEev+INYh1pdekvtUlt989yLB7ABkihjRU8mQnZGqDcAfUFNY/Z58Oa14VbQJ73VEsza6xZ745YxJs1Jna4OTGRlS52cccZDV2ui+LLTXtc8QaXbxzJcaJcx2tw0igI7PBHMChBJI2yKDkDkH61o6pdy6fpt3dQWU+pTwxNIlnatGss7AEiNDIyIGY8Dcyrk8kDmnJ3Wu39WHG6nGS3W333/AD1OMvvgzot/HrySXV+BrOuadr9xtkT5biz+yeUqfJwh+wxbgck7nwRkYhb4FeGZtS0W+m+2zXOk63d67bs1xtBmuHeR43CgB4hIySKp6NDE2SV57+CRpoY3aJoWZQxjkILISOhwSMj2JHvXDXHxl0W38D3/AIqa1vzp9nq8uiyRiNPNM0d+bFmA342eaCwOc7ecZ+Wqu18v+Av0X3C1cEvs7fg1+Vzk9Y/ZZ0XULKC2sfFXibQVEGqWdzJp0tpvu7bULn7TcQO0tu5Rd5wrw+XIBj5yQCOl034G6DpetWmqRXeotcW2sx64ivJGUM6aX/ZgUgJnZ5I3EZzv5zj5a9EpCcAmlGXs720/4e/5tv1bD08199k/wSXokuh59ZfA3w5auvmteXsG7WTJb3LoY5V1O4+0XKMAgOA3yrgjCnnceazIf2bfCMei6fpUr6pdWNp4eu/DRWe8LSXEFy8Uk00suPMM7PEG8wMOWY4yQRc8I/H7wz4z+Ed38RLKPUIdGtFuDNa3NuFu1aFipj8sMQWfClMHDB0IPNdj4O8T23jbwloviGyimgs9Wsob6GK5CiVEkQOocKSAwDDOCRnuaFe7a8vxUrfenIJPmfvd396ab/FK/mvI5PR/g/NazaBNrvjjxJ4wudD1P+1LKfWEsI2Rzaz2xjb7Nawhk2XDtyC24Kd2Mg519+z3p0n2KXSfFHiLw5e293qlw15pklqZJ49Qujc3Nu4mgkXyzJt2lVWRQgw4JYn1WiiXvKz/AK/rr3GpNJJPb/g/5v7zH8HeF7XwT4S0Xw7YyTS2Wk2UNjBJcsGlaOJAilyAAWwoyQBzWxRRTlJybk92QkoqyCiiipGFFFFAHLfFT/kmHi//ALA95/6Iev54q/od+Kn/ACTDxf8A9ge8/wDRD1/PFXbL/dof4pflE5Y/7xP0j+cgooorlOoKKKKACiiigAooooAKKKKACiiigAooooAKKKKACiiigAooooAKKKKACiiigAooooAKKKKACiiigAooooAKKKKACiiigAooooAKKKKACiiigAooooAKKKKACiiigAooooAKKKKACiiigAooooAKKKKACiiigAooooAKKKKACiiigAooooAKKKKACiiigAooooAKKKKACiiigDofh3/yUDwz/wBhO1/9GrX9EtfzoeEdRh0fxZot/cEiC1vYJ5CP7qyKx/QV/Q34X8Q2fizw7pus2EyXFnfW6XEUkZyCGAP6dPwrqlrho26Sf4qNvyf3HKtMRK/VL8G7/mjUrhPix4J1LxhZ6Lc6Q1i2oaNetfRWupozW13ut5rd4ZCvKhknf5sNtIB2sMqe7orlhNwlzI607Hz18JfhZ4rOraRf67oun+F7TR9ZvdSSFZ/tV3d7/tUNvGXXCpDFb3IRR8xOxRiMLhvoWiitK1aVefNJW/r7ypScndnAfHLw74i8ZfDq98OeGXgtr7WJYrKe9uk8yG1tWcfaHeMSRtIDEHTajqxLjkckeP8AiP4S/EtdP8b6Zq9tpPjnSNcvtL1y6tdCtf7Jiv1ikiivtO8i4vJRmW3t4j88ixSFpEfaGLH6fornXuu/9dNPS6v5ve60Ieqt/Xr6208t1Z6nydoP7PUuu6nawXXwxi8LeCJvGceqv4YnurVoorBdCmtWWSCCV4QjXDBGt4y6MHJIKs9VNQ/Zh1TSfh/eweH/AAnb2viG78PeKNEnliuIVmlgmLrpdq0hfmJUESxoTshUBcIBivryircm0ltt+Gn5Fxk4zhNfZ+7dy/NnzbrvwBu7/wAXeKfFyeG4J/FX/CY6Hf6Lqkk0Znt7CKLTIr1oWL/uQ0cN2kija0qoAQ42VPdeDfF7afqfw4/4Qy9m0m+8Vya0niwX9p/Z6Wsmpf2i6unnC5EoJeIIsJUtsPmBSWX6Lop82ij0XT5RX/tq+9k/YUO1teuiaX3XZ8ea58D/ABbdWfxOsfDngu60az1a9jvLnVLyDRY9c11ft5muLZLhZJ4bmBoDIkaX8UeAyJIXV3MW58Jf2b7fTNe8DyX3hPWE8OaRBrNwNN8WpoynT7yWfTnt/KttMxaohNtNKvlr8sgLna7An6noqYfu1aP9aW/4bzE9Zcz/AK0t+v8AS0PmTwt8DfF1lpXhnRLqwtovDk2lW99rlrJco8g1azjCW6BeVYOfs7l1YBTYr/frg9Y/Zt8VarL8No/EWj+Kr+00rwxo+n2//CLv4elk0G/gBFzLv1FDJCxJhImsZN58k55SMn7Xopwk4O67p/NXt+dvkvO6mvab9mvvtf8AL8X5W+bPC/7Pt1oPiTQPEsPh2C08TSeMtfn1XWPNja5Oj3Lak8EZfdkws8tnJ5C8K7bygbea0/gn4d8Z2niLwPFr/gy88OWnhbwnPoE99c31nPHeXG+yCvAsMzv5TLbuwMixt2ZFOM/QFFNScXdf1o1/7cy6j9o3Jqzev3y5v+B6JBRRRUEhRRRQAUUUUAct8VP+SYeL/wDsD3n/AKIev54q/oG+P/izTfBfwX8Z6pqtwttaLpdxEWbqWeMooA7nLV/PzXbL/dof4pflE5Y/7xP0j+cgooorlOoKKKKACiiigAooooAKKKKACiiigAooooAKKKKACiiigAooooAKKKKACiiigAooooAKKKKACiiigAooooAKKKKACiiigAooooAKKKKACiiigAooooAKKKKACiiigAooooAKKKKACiiigAooooAKKKKACiiigAooooAKKKKACiiigAooooAKKKKACiiigAooooAKKKKACiiigAr6p/Zj/wCCgHjH9n3SYfDt5ax+JfC0R/c2twxWW2BPIjb09FPAya+VqK1p1JU9uv3Gc6cam5+m3/D3vR/+hBvv/AlKP+Hvej/9CDff+BKV+ZNFa+3j/wA+4/j/AJmPsJf8/H+H+R+m3/D3vR/+hBvv/AlKP+Hvej/9CDff+BKV+ZNFHt4/8+4/j/mHsJf8/H+H+R+m3/D3vR/+hBvv/AlKP+Hvej/9CDff+BKV+ZNFHt4/8+4/j/mHsJf8/H+H+R+m3/D3vR/+hBvv/AlKP+Hvej/9CDff+BKV+ZNFHt4/8+4/j/mHsJf8/H+H+R+m3/D3vR/+hBvv/AlKP+Hvej/9CDff+BKV+ZNFHt4/8+4/j/mHsJf8/H+H+R+m3/D3vR/+hBvv/AlKP+Hvej/9CDff+BKV+ZNFHt4/8+4/j/mHsJf8/H+H+R+m3/D3vR/+hBvv/AlKP+Hvej/9CDff+BKV+ZNFHt4/8+4/j/mHsJf8/H+H+R+m3/D3vR/+hBvv/AlKP+Hvej/9CDff+BKV+ZNFHt4/8+4/j/mHsJf8/H+H+R+m3/D3vR/+hBvv/AlKP+Hvej/9CDff+BKV+ZNFHt4/8+4/j/mHsJf8/H+H+R+m3/D3vR/+hBvv/AlKP+Hvej/9CDff+BKV+ZNFHt4/8+4/j/mHsJf8/H+H+R+m3/D3vR/+hBvv/AlKT/h73o/bwDff+BKV+ZVFHt4/8+4/j/mHsJf8/H+H+R9D/tPftreMv2lvL068SLRPDMMgkj0q1JKu46NIx5Yj06Ak188UUVjUqSqO8jaFONNWiFFFFZmgUUUUAFFFFABRRRQAUUUUAFFFFABRRRQAUUUUAFFFFABRRRQAUUUUAFFFFABRRRQAUUUUAFFFFABRRRQAUUUUAFFFFABRRRQAUUUUAFFFFABRRRQAUUUUAFFFFABRRRQAUUUUAFFFFABRRRQAUUUUAFFFFABRRRQAUUUUAFFFFABRRRQAUUUUAFFFFABRRRQAUUUUAFFFFABRRRQAUUUUAFFFFABRRRQAUUUUAFFFFABRRRQAUUUUAFFFFABRRRQAUUUUAFFFFABRRRQAUUUUAFFFFABRRRQAUUUUAFFFFABRRRQAUUUUAFFFFABRRRQAUUUUAFFFFABRRRQAUUUUAFFFFABRRRQAUUUUAFFFFABRRRQAUUUUAFFFFABRRRQAUUUUAFFFFABRRRQAUUUUAFFFFABRRRQAUUUUAFFFFABRRRQAUUUUAFFFFABRRRQAUUUUAFFFFABRRRQAUUUUAFFFFABRRRQAUUUUAFFFFABRRRQAUUUUAFFFFABRRRQAUUUUAFFFFABRRRQAUUUUAFFFFABRRRQAUUUUAFFFFABRRRQAUUUUAFFFT2NnNqN5b2lunmTzyLFGg/iZjgD8zTScnZCbSV2JZ2dxqFwkFrBJczucLFChdmPsBya2h8PfFRGR4Z1gj/rwl/8Aia/WD9mv9mrw58DvB+nn+zoLrxXPEsl/qcyB5BIcHYmfuKvTjnOeea9xS6mVcCaQAdBuNer9WpU9J3b8mkvyd/wPP9tVqawsl5pt/mrH4X/8K88Vf9CzrH/gBL/8TR/wrzxV/wBCzrH/AIAS/wDxNfup9rn/AOe0n/fRp4up/wDntJ/30aPY4f8All/4Ev8A5EfNX/mX/gL/APkj8KP+FeeKv+hZ1j/wAl/+Jo/4V54q/wChZ1j/AMAJf/ia/dtbqf8A57Sf99GnrdTf89pP++jS9lh/5Zf+BL/5EOav/Mv/AAF//JH4Q/8ACvPFX/Qs6x/4AS//ABNH/CvPFX/Qs6x/4AS//E1+8S3M3/PV/wDvo09bmb/nq/8A30aXs8P/ACy/8CX/AMiHNX/mX/gL/wDkj8Gv+FeeKv8AoWdY/wDACX/4mj/hXnir/oWdY/8AACX/AOJr96VuJeP3r/8AfRp63Ev/AD0f/vo0uTD/AMsv/Al/8iPmr/zL/wABf/yR+Cf/AArzxV/0LOsf+AEv/wATR/wrzxV/0LOsf+AEv/xNfvetxL/z0f8A76NPWeT/AJ6N/wB9GlyYf+WX/gS/+RHfEfzL/wABf/yR+Bv/AArzxV/0LOsf+AEv/wATR/wrzxV/0LOsf+AEv/xNfvss0n99vzNSedJ/fb86nlw/8sv/AAJf/Ij/AH/8y/8AAX/8kfgL/wAK88Vf9CzrH/gBL/8AE0f8K88Vf9CzrH/gBL/8TX7+LNJx87fnUiyv/fb86VsP/JL/AMCX/wAiH+0fzL/wF/8AyR/P/wD8K88Vf9CzrH/gBL/8TR/wrzxV/wBCzrH/AIAS/wDxNf0BrI/95vzp6yPj7zfnR/s/8kv/AAJf/Ij/ANo/mX/gL/8Akj+fn/hXnir/AKFnWP8AwAl/+Jo/4V54q/6FnWP/AAAl/wDia/oJ8xv7x/OniRs/eP50v9m/kl/4Ev8A5ELYj+Zf+Av/AOSP58/+FeeKv+hZ1j/wAl/+Jo/4V54q/wChZ1j/AMAJf/ia/oPV2/vH86erN6mlfDfyS/8AAl/8iO2I/mX/AIC//kj+e3/hXnir/oWdY/8AACX/AOJo/wCFeeKv+hZ1j/wAl/8Aia/oWVj6mpFY8c0ubDfyS/8AAl/8iFsR/Mv/AAF//JH88v8AwrzxV/0LOsf+AEv/AMTSN8PfFKjJ8NawB6mwl/8Aia/ofBrN0vxDpHiSbULWyvrXUJLGX7PdwxSLIYpMA7XA6H2NTzYb+SX/AIEv/kR8uI/mX/gL/wDkj+dWaGS3laKWNopFOGRwQQfQg0yv1/8A27/2PPDvxK+HOqeLvDulQaZ4w0iJrkvaRiNbuJeXR1GBnGSG+vWvyAqKlNRSnB3i/wBOn9f8A0p1HJuMlZr+rhRRRWBsFFFFABRRRQAUUUUAFFFFABRRRQAUUUUAFFFFABRRRQAUUUUAFFFFABRRRQAUUUUAFFFFABRRRQAUUUUAFFFFABRRRQAUUUUAFFFFABRRRQAUUUUAFFFFABRRRQAUUUUAFFFFABRRRQAUUUUAFFFFABRRRQAUUUUAFFFFABRRRQAUUUUAFFFFABRRRQAUUUUAFdD8PP8AkoHhn/sJ2v8A6NWuerofh3/yUDwz/wBhO1/9GrXXg/8Aeaf+JfmcuK/3ep6P8j9zbr/j8n/66N/Ovgn9rDxLrfib4yap4q8OaPq+r2vwbt7O7F1p8kC20F5JMlxeicSSo7j7JGqYiSQgucgcV97XX/H5P/10b+dYtn4M8P2MesR22habbx6xI0upLFZxqL52Xa7TAD94SvBLZyOK6ZRk3GcXrHVevS/lv87ExcbOMlo9H6df8vS58l+IltPB3xx0r4l61oXh34l+C/HmtaVZ6LrzzBtY8N3DKohihVwQYd4LlYSrAvIWBxg9l+zz4V8KfEy68YeK/HmmabrfxD0zxddW0t1rEKvdaQsFyfsMMG8brdNnluoTAcuWyxY17TovwR+HXhzXLbWtJ8A+F9L1i1ULBqFlo1tDcRAJsAWRUDKNny8Hpx0rQ1j4V+CvEXie18R6r4P0HU/ENqY2t9WvNMglu4TG26MpKyl12nkYPB6URioNW2V7eSfLb1a5Xrv72+mql7y89G/N+99yd15XW2unxZH/AMu3/Zxsv/tSv0CWucX4e+FuP+Ka0fjUTrA/0CLi+PW6+7/ruT+8+9z1ro1pQXJSUO1vwhCP/ttyqkvaVXUXW/4znL/26xKtOWmrTloZJKvanrTF7U9allIetPWmLT1qSyVakqNakqGA9e1SLUa9qkWpYD1p69KYtPXpUsskp69aZT161LGh609aYtPWpGSLUq9qiWpV7VDA4r4zXWqWvw91P+x5dRi1GQLFF/ZMAluWLMBtjJOEJzjzDwmd2DivC/A3wh8X/CXxr4R1SRYbW2vtlteNodsZTb5Yn7NdZOZ0OSRct86OWJypxX1Z16808DPUZqGUjmvil/yS/wAX/wDYHvP/AEQ9fzx1/Q58Uv8Akl/jD/sD3n/oh6/njrsl/u0P8Uvyic0f94n6R/OQUUUVynUFFFFABRRRQAUUUUAFFFFABRRRQAUUUUAFFFFABRRRQAUUUUAFFFFABRRRQAUUUUAFFFFABRRRQAUUUUAFFFFABRRRQAUUUUAFFFFABRRRQAUUUUAFFFFABRRRQAUUUUAFFFFABRRRQAUUUUAFFFFABRRRQAUUUUAFFFFABRRRQAUUUUAFFFFABRRRQAUUUUAFdD8O/wDkoHhn/sJ2v/o1a56uh+Hf/JQPDP8A2E7X/wBGrXXg/wDeaf8AiX5nLiv93qej/I/c26/4/J/+ujfzr5hXxdodzofjC61Dx3exfFi2t9TD6A3iC4tJLREMnliPTRKqbVi2FZvKYsMSb2zur6euv+Pyf/ro386atdltVLyMujR8s6h+1dq63vxBhstY8LrZ6LKn2LUL5LSBIQLkxSQyq+rAPNgqAs7WRzk7DkLXpvwp+L1343+I2uaFPruhajb2lhb3dvb6XabZwHSMl5j9rkeEktkQzQRHDja8ux2r12n1EIuKXM7/ANf1/wAPZq5vmba0/pEi09aYtPWmIlWnLTVpy1LAlXtT1pi9qetSykPWnrTFp61JZKtSVGtSVDAevapFqNe1SLUsB609elMWnr0qWWSU9etMp69aljQ9aetMWnrUjJFqVe1RLUq9qhgPXrT1pi9aetSxo5r4pf8AJL/GH/YHvP8A0Q9fzx1/Q58Uv+SX+MP+wPef+iHr+eOuuX+7Q/xS/KJzx/3ifpH85BRRRXKdQUUUUAFFFFABRRRQAUUUUAFFFFABRRRQAUUUUAFFFFABRRRQAUUUUAFFFFABRRRQAUUUUAFFFFABRRRQAUUUUAFFFFABRRRQAUUUUAFFFFABRRRQAUUUUAFFFFABRRRQAUUUUAFFFFABRRRQAUUUUAFFFFABRRRQAUUUUAFFFFABRRRQAUUUUAFFFFABRRRQAV0Pw7/5KB4Z/wCwna/+jVrnq6H4d/8AJQPDP/YTtf8A0atdeD/3mn/iX5nLiv8Ad6no/wAj9zbr/j8n/wCujfzpq1sz+G5nuJW82MbnJ7+tNHhuYf8ALWP9f8K6faRtuRyszKfWl/wj03/PWP8AX/Cnf2BN/wA9I/1/wpe0j3K5WZ609avjQpf+ekf6/wCFOGiyj/lon6/4VPPEOVlNactXRo8o/jT9f8KUaTKP40/X/ClzxDlZWXtT1qwNMk/vp+v+FOGnyf3k/M/4VLkiuVkC09amFjIP4l/M/wCFOFm/qv5n/Cp5kVYYtSUotX9V/M/4U/yH/wBn8z/hUuSCwi9qkWmiJh/d/P8A+tTwrD+7+f8A9alcLDlp69KjG70X8/8A61ODN6D8/wD61K5RNT161B5jeg/P/wCtTvOP90fn/wDWqWMsLT1qsLgj+Efn/wDWpRdEfwj8/wD61SMuLUq9qore4/g/X/61OGoY/g/8e/8ArVNmBfXrT1rPGpf9M/8Ax7/61OGqAf8ALP8A8e/+tU2Y0ZHxS/5Jf4w/7A95/wCiHr+eOv6D/idqXmfDTxanl43aReD73/TF/av58K65f7tD/FL8onPH/eJ+kfzkFFFFch1BRRRQAUUUUAFFFFABRRRQAUUUUAFFFFABRRRQAUUUUAFFFFABRRRQAUUUUAFFFFABRRRQAUUUUAFFFFABRRRQAUUUUAFFFFABRRRQAUUUUAFFFFABRRRQAUUUUAFFFFABRRRQAUUUUAFFFFABRRRQAUUUUAFFFFABRRRQAUUUUAFFFFABRRRQAUUUUAFFFFABXQ/Dv/koHhn/ALCdr/6NWuerofh3/wAlA8M/9hO1/wDRq114P/eaf+JfmcuK/wB3qej/ACP6BJP9Y31NUdT1ix0WKCW/u4bOOe4itYmmYKHmlcJGg9WZmAA96vSf6xvqa8O+JH7Pev8AxL+LXhbxXfePjb6H4c1K21Gy8Ow6UfL3RSK53Sef8zttI37flB4XrnJt20Nke315l4L+OVj4kX4gvqtg3h2DwffXMM09xOHjuLSIuPtanA2qWhnUqehibk9a9NrxGX4C6tcapZTjU7O1tZtb1CfWYY1djfabNdtdxQBvlw4kWNWByuyWcDO4GlrzW6NP5O6s/wA/lfd2Hpy363XzVnf9Pnbpc3vCX7QHhy++GOmeM/GN/pXw+tr28uLERa3qsMSLNFPLF5fmvsVnPks20dMEc4zVXxB+0t4Q0zVte0bT9RsNU13Q9S0ywvtPXUIVkjW7ubeAzYUswWP7QC25R8y7cjOa881z9mnxP9j8Pz232XWLqxl1yKfTovFuqeHo3hvr83SOLqyQuxVVVWieMqSxIYbBu6DVvgLrF3a6l4ftdO0JPCd7L4euBDdahPO8QsJ7XzbUxvAfNjMNu22RnyzEKyAZaqWso9uZX9PX0V9O9tGtZjulL5/ev6+V9Vt6jH8W/A0vgt/GCeM/Dz+EkbY2vLqsBsFbfswZ9/lg7iF+91OOtLqXxY8EaL4f0rXb/wAY+H7HRNWZY9O1K51SCO2vWYEosMhfbIWAJAUnIFed+IPhD4otfF2o+KdCj0LUb6PxUuv2Gl6pcy28EsbaTFYSB5khkMMoYSSKyxyAjAOC5K5+m/CHxx4Z16w8VWFh4V1PWboaouoaNdX01vZWIvriGZmtpltpGlI8nDho4/OZ2fMf3SvTt+Nk7fN6X2W7HJJLf/htdfl2630PQPCHxr8MeItO8JLqGs6ToXiHxLZJeWPh+51KL7XMpBJESMVeUDDcqvY+ld/Xz94B+C/jbwDqPgGHTDo2mW2m6VY6br+pWOqTbb+K3WXFumnPatGEBkOyZZ4pF3c71XY/0DV6a+r+7p/X4Ws3L3t5L+v6/wCGKKKKQwooooAKKKKACiiigAooooAKKKKACiiigAooooA534kf8k68V/8AYIvP/RD1/P8AV/QD8SP+SdeK/wDsEXn/AKIev5/q2q/7vD/FL8omFP8Ajz9I/nIKKKK4TsCiiigAooooAKKKKACiiigAooooAKKKKACiiigAooooAKKKKACiiigAooooAKKKKACiiigAooooAKKKKACiiigAooooAKKKKACiiigAooooAKKKKACiiigAooooAKKKKACiiigAooooAKKKKACiiigAooooAKKKKACiiigAooooAKKKKACiiigAooooAKKKKACuh+Hf/JQPDP8A2E7X/wBGrXPV0Pw7/wCSgeGf+wna/wDo1a68H/vNP/EvzOXFf7vU9H+R/Qe2lzMzHK8n1pP7Lm9V/OteiuTnZ0cqMj+y5vVfzo/sub1X864z43eJPEmj2XhvTfC8sVtqOuambBrh1UvFEttPcO0W75fN2wFV3gplhuBFef8AgPxVrWj+NPDEOlX+rX3hLWdSuNIvI/EkqzXEV7DBcSSNAwJYASWssbhiUzjygF5PXGlKUOe67/n/AJOxoqV1c9z/ALLm9V/Oj+y5vVfzrXrB8deK4fA/g/V9dnRpVsbdpUhQZaaTGI41HdncqoHcsK43UcU2QopuxP8A2XN6r+dH9lzeq/nXl/hX4sap4K8B65F45e48ReKvD+qx6TIuk2iJNqktx5T2YhjysYLi4jj3FkQMjlioBIydI/aMvbHWPECaz4V8Ttdz+IoNC0rw1Ha2jXsMzaULwxs6zeSysY5D5vnMilxudVVil8ze2v8AS/HVabq6vuhKN/x+5X19NG/NJ9j2b+y5vVfzo/sub1X868gvP2odH1Lwrq14+heMPDVmND1LUYdWa0s/MElkpF3BCjyyD7RC+4AyR+Q5QlXkTk7tx+0HpeleLLjw/JoHiS8t9O1Oy0TUPEX2e3Wytrm6it3tt581XfzGuY0PlRtsY/OEUozClKT5V/Wtvzt63Vh8vu83TX8LX/M9C/sub1X86P7Lm9V/OvnrwH8WtcuPjVNZX3i/XLqxk1vWdPuNJ1jQ47TSILe3Mpg+xXotIzcXAES7oxPMdnnsVXy8r3unftMaDLYyapq+geIvDOgS6dNq+maxqlrE0Oq2sSh2eCOCWSZG8tlcRTxxSMG4QlXCypuUVJdVf7/+Gf3PswceWTg902vudvuPSP7Lm9V/Oj+y5vVfzrxzx3+0Nc6f4UuZbnR9Y+G2r2eo6LLNH4mFkQ+m3Gp29vPMJIZp4QuxpUYMyyR5DFVyjGt42+N3iGLxZ8PtW0m2vtF8Hyy38+r2mrWcQlv9PRraJLuPDNJCim48/wCfY+yNg6DIqlJuz87fl/n+D7MbhZX/AK2v+X5ruj2z+y5vVfzo/sub1X868X1H49S6L8cPEB1XVF074caH4d1C5ndoY2R57OW1+0XHmDL4T7Q8OzgboZMg8GmeFf21fBvjWxVtD0jVta1WTVI9Ji0jR7vTNSmkmktp7iJvOtbyW3VXFrMuXlUoQDIEQ76UZSlFSXVX+V3H8WtCXFKTi+n+XM/uW/Y9r/sub1X86P7Lm9V/OuV8H/GrR/GTaXFBp+p2N3e2eoXT2t5HEJLR7K4S2uYJdkjL5iyvt+Qsh2sQ2ME8Z8RfjRql34Z8N654LeaGJdJXxlqVrParLLLpSBC9sQM7ZZFkfaVOd0DYJGcnO1v/AFv+XLJ+iYcv9fdp63aXqz13+y5vVfzo/sub1X868l+I3izWrP4maSbrxfrHgzwVcW1odL1TS9NtbrTr+8klcPBqE8sMrQIR9mWPDW4czMolZyqpq+Bf+Et+I11/wmT+NLzR9JTUrq3tPDFjZWjWktrBcSQg3UkkTztM+xnJiliVMouxijmQ53a78/w/r+tAsumu3zv2/q1z0X+y5vVfzo/sub1X868u+BfxC8QeMr7S49Y1D7Yk3hDTdUkHkxpm5lmuVkk+VR1EaDHQY4Aya9oo5na/9aO36DceWTj2t+KT/UyP7Lm9V/Oj+y5vVfzrXoo52LlRkf2XN6r+dH9lzeq/nWvRRzsOVHCfEzTpYvhv4sclcLpF4ev/AEwev59K/od+Kn/JMPF//YHvP/RD1/PFXVJt4aF/5pflE54q1efpH85BRRRXIdQUUUUAFFFFABRRRQAUUUUAFFFFABRRRQAUUUUAFFFFABRRRQAUUUUAFFFFABRRRQAUUUUAFFFFABRRRQAUUUUAFFFFABRRRQAUUUUAFFFFABRRRQAUUUUAFFFFABRRRQAUUUUAFFFFABRRRQAUUUUAFFFFABRRRQAUUUUAFFFFABRRRQAUUUUAFFFFABRRRQAV0Pw7/wCSgeGf+wna/wDo1a56uh+Hf/JQPDP/AGE7X/0atdeD/wB5p/4l+Zy4r/d6no/yP6JaKKK4TqMPxd4L0bx1pX9na3ZLe2wcSx5JV4pB92SN1IZHHZ1IYdQRXKfD74D+HPh9e/b45L/W9UWa4lgvtYuTcS2/nStLKIs8Jud2LFQGfI3FsCtz4jfEjSvhnpNre6os80l5crZWVrbIGlurhgSkS5IUEhW5YqowSSBzXPeHfjHI/irT/DHirRH8N67qgeTTUjuFuoLpVXcyiRQNsiKCWVgBwdjSAE11w9v7NqLfL2/PTr52+Zoufl02PTK5n4hfDvRfihoMeh+I7ZdQ0X7VDdXOnTIkkF55Th1imR1IePeqsV77QDxkHpqp6xq1roOk3up3sogs7OB7ieVuiRopZifoAa4pWSu+mv3akxTbsup5XJ+yp4Asf7SHhjTV8BreraP5XhW2trKGG6tZzNb3iRCIxmdWYqS6srphXVlGK0fDvwD03RNXtdXvPEev+INYh1pdekvtUlt989yLB7ABkihjRU8mQnZGqDcAfUHQ8B/Fyz8SfD698TeIreLwUdLkni1i21S8QJpxi5JkmO1QpjKSbjj5XBOKp+H/ANoPwXrkPiDUX8SaDa+GtNukt7bXm1eA2d6ps1undJchMInm5wzcROxIAONLuOl/P7/89PVJdErTH3m+XzX6P+vN92Rax+zz4c1rwq2gT3uqJZm11iz3xyxiTZqTO1wcmMjKlzs444yGrTvvgzot/HrySXV+BrOuadr9xtkT5biz+yeUqfJwh+wxbgck7nwRkYlm+Mng+8stUGh+L/CuqapZ6QdaFq+uQxxi1Me+O4mdN7RW7AqfO2MoVtwDdDfb4n+E7TxBY+Hb7xToNp4nvHMMWjHVIftMswiSV444yQ7kJJG/C52urYAYURvGV1v/AMH/ADS+4abjFW2X/A/4Byum/s+6daeK21W88S69rGlpqV1rFr4cvTaCwtLy48wSSoY7dJ3wJpQqyyuo35xlVK0dN/Zj0OHTJNJ1jxH4k8UaFFps2kaZpeqXMCxaVayqEZIHghildhGqIsk7yyKF4YFnLbGifEnxP4u8QPLoHhKzuPBVvfzadPrV9rBt7yV4pGilltrVYHWSFZFZd0k0TNscqhXYZIfEH7TXwu0Hwhq3iUeOvD2p6TpV1DZXs2navayi3mlkCLG58wKrfeOGIOEY4OKi6hHsrf8AA1++yb16Dd3K73/4dv8AVtfNlCb9m3Stc0u9tfF3ibxB47mu2sVe7177EWFva3SXSWwjgtooTG8iDzC0ZdwcF8Km3Y0z4F6HYJaW9xfanqmm2VpfadaadfSRvDb2V0Ila1BWMO0aCEBN7MwDEFiAoXdh+Kvgq48QaRoMXjDQJNc1i1F7pumJqcBub23Kswmhi3bpEKqx3KCMKTng0aB8VPBXivVr7S9E8X6DrGp2EkkV3ZafqcE81u8ZxIsiIxKFSQCCBjvTktGpba/5P/g/PuyVKzTT9Pu0/Bfcl2RycP7NvhGPRdP0qV9UurG08PXfhorPeFpLiC5eKSaaWXHmGdniDeYGHLMcZII0dH+D81rNoE2u+OPEnjC50PU/7Usp9YSwjZHNrPbGNvs1rCGTZcO3ILbgp3YyDqaH8ZPAPibQ7vWtH8ceG9W0azuEtLnULHVrea3gmdlVInkVyquxdAFJySwA6irmifErwj4m0G01zRvFOi6tot5cC0ttRsdRhmt55y2wRJIrFWct8u0HOeMZquaX9ebv+Lf4iso67br8LNfcrHHX37PenSfYpdJ8UeIvDl7b3eqXDXmmSWpknj1C6Nzc27iaCRfLMm3aVVZFCDDglia1v+yj8MLhbL/hIfCmmeOJLHS7PR7OXxVp9tqD21tbIVRIy8Xy7izOxH3mb0AAg8G/tIWvif4HX/xAu9Dl0i7s3eBtDmulZ3nZlFrGsuAD54lt2UkD/XLxmuk0D43+Fbrwt4E1LX9d0XwtqXjCzt7jTdK1DVIkluJJUjbyYN5QzMDIq/KuSWXgZApJOSa9Pxvb9X879SpNuXNLf3vzXN+Nv6RjXH7O9rN4d0nw0vjbxZF4Vs7KLTrjQ/PtJINQt4z8qTSPbtMnyYQmGSIlVGSW+atXT/gzFofiiXUNH8WeItH0S4vX1G58LWktt/Z01y7mSSTc8DXEYeQ72jimSNm3ZU73Db9l8TvB2peJX8O2nizQ7rxAkUszaTDqUL3axxyNFK5iDbgqSI6McYDKQcEEVq2fiLSdRayW01OzumvrY3toIbhHNxANuZY8H5k/eJ8wyPnXnkUavXff8d/y/DyJsldf1p+uv4+ZzngX4UaR8P7i1l064vZmt9IttFT7U6MDDA8jox2oPnJlbJ6cDAHftK8j0v8AaHsbrwT488S3ei3NrB4Wilvlt45kke/0/wAoyQXcZO0Kkqq+NxAUo2TgZqT/AIWx4t0vQdPOr+D9Jl8Sa5dJa6FY+H/EJvrO83QvKZJbqS2hMUaJG7uwik+Xb5fmuwjoWq0/q/8AWvbW5T3u+v6JfpY9YoryTW/jJ4i8FafjxT4SsLPVl0jVdWaDS9aa7tmWzSJ1VJXtomO8TYJaNdpQ4Dgg16np939v0+2udnl+dEsm3OcZAOM/jS/r8/8AJi2s31v+Fr/mixRRRQBy3xU/5Jh4v/7A95/6Iev54q/od+Kn/JMPF/8A2B7z/wBEPX88Vdsv92h/il+UTlj/ALxP0j+cgooorlOoKKKKACiiigAooooAKKKKACiiigAooooAKKKKACiiigAooooAKKKKACiiigAooooAKKKKACiiigAooooAKKKKACiiigAooooAKKKKACiiigAooooAKKKKACiiigAooooAKKKKACiiigAooooAKKKKACiiigAooooAKKKKACiiigAooooAKKKKACiiigAooooAK6H4d/8AJQPDP/YTtf8A0atc9XQ/Dv8A5KB4Z/7Cdr/6NWuvB/7zT/xL8zlxX+71PR/kf0S0UUVwnUcJ8WPBOpeMLPRbnSGsW1DRr1r6K11NGa2u91vNbvDIV5UMk7/NhtpAO1hlT5r8JfhZ4rOraRf67oun+F7TR9ZvdSSFZ/tV3d7/ALVDbxl1wqQxW9yEUfMTsUYjC4b3nVtYsNB0+e/1K8gsLK3QyTXFzII441HVmY8ADuTWF4O+J3hnx41xHouqJcT2+0yW0iNDMqt9x/LcBtjdVfG1hypIrthWqxoyjFad+2/y1v1+RopS5bI6muH+MngXUviZ4Hm8M6fqjaLFqFxAl9fRBDNHarIryiJZI5I2dwuzEilcOxIOMHuKK4WZnztq37PHjG0k8RGz8Wr4zj1C+0nX1XxYtvbvPqFlOhMUhs7SONYZIYbdRII2dGiDYcfLVnRvgb4m1bxpa+JvEth4Xs5W8ZQ+KLjTtNmluUjWPR5LJMSyQR+bMJjHIHKJhVHQqM+6aRrFh4g02DUNLvrbUrCcborqzmWWKQZIyrKSDyCOD2p9tqVpeXN3b291DPcWjrHcRRyBnhYqHCuAcqSrKwB7EHvVxk46L+tv/kY/cut7m9/NW+TTX6v7/S3z1rn7M+sXfw5k0DT30W0u20/xVa71LpH5mqSSPC2Vjzgbl8w4zkcbq6HVPgTqF5ceNLuE6VHf654s0HXIbk7hILawGnB43YJnf/otzsUZH70ZK7mx7HqmqWeiabd6jqN3BYafaRNPcXd1IscUMagszu7EBVABJJOABU0E8d1DHNDIssMih0kjYMrKRkEEdQRRCThLmjvp+aa/GKKUnGKj0V/xtf8AJf0zyfwz4T+I/gWe48N6P/wjl34Skvbq7ttcvbudL+wjmlebyPsSwGOfYzlFk+0RfKVyhKHzPMfDf7OvxIWx8WX2t3Oly+INU0mxth53ivUtUivL22ujctMzTwKtnFKxKiG3iKRZJUOMKPpzS9d03XPtf9m6ha6h9juHtLn7LOsvkTpjfE+0na65GVPIyKNF13TfEmnR6hpGoWuqWEjOiXVlOs0TMrFGAZSQSGVlPoQR2rOy/D8Gmvyfz0bu0mS7O68/1T/NfLVKybR88XH7OviDVPijqOu6vp9teabrN/bazNNb+O9YthpV1HbxR7Y9OSL7JeeW8CuksgiLbgGQbBnzHwboo+NFzpnw80nWPAGqWnh7wHqfhxtd8G6gdYiQS/ZIYTdBY41tjKYZG+yh5NwST958mW+1rPWtO1K+v7K0v7W6vNPkWK8t4ZleS2dkV1WRQcoSjKwBxkMD0NJd67pthqlhptzqFrbajqHmfY7OadVmudi7pPLQnL7RycA4HJq4y5dFtb9Gl9yfz630sPfme/8Awbv73r2T2Vrp+E638GfGvxKkuNS8U6Z4T0K8Y6JajTNJv57+3uLaz1SK9laWWS1hJO1XSOHyyFLNlyJDs0fDuk2Hir9oLxG+kXlvqHh7Rpo9Uvfs8hkSLX2ga0aIsDtDJbIjPH1VpUYgFgT7K2u6autpox1C1Grvbm7XTzOv2gwhgplEed2wMQu7GMkCr1F9LdNfx3/FXt3S7WC+jj6fkl/6TZel+rueAeGv2dda0f8A4RWKbVbFdNstGSHVdPhVyt1qUEbR2k6vgZRVmkLblyTDbkfdNchN+ylr8Z8LxXdrZ+J7BPC+k+HtXsl8baxoMMZtA4d0jtI2jvUcSthJkjxs6kSEL9XVT1DWdP0hrRb++trJrydbW2FxMsZmmYErGmT8zkKSFHJwfSiMuTbq0/nrb/0q3fZdBTSqay7NfLR/pf731Z49ovwHvtJ/4R1lOmQy2fjbWvEt9Nblg81veJqCRgHZlpQt1bBt3GIiAx2rnmtF+DXxSXQ7LS7q48M6Q+j+Ebrwlp+p6bqFxNNL5rWqresj2yiFhHAzeUGkAfaN5BJHt3ib4leEPBWraTpfiHxVomg6nq8nladZanqMNtNevuVdsKOwMh3OowoPLAdxRqXxK8I6P4usfCl/4q0Sx8UX6eZaaJc6jDHe3CfN80cBYO4+R+QD90+hpP3lrs9Pwa/BN/f6GkpNyctnv/5Nzfn/AJHmfhb4G+K/hj4pi1bw/wCNLjxVAdBOjPZ+KobOBYhAd9isZsbOH5FLzq28MQJcr0Kth+HfgX4y0Gd/EWkaf4V8H6rZaoupaf4P0u/nuNGbdbyw3StP9miaA3Hmq5MVuQkkKyFZS7g+9aX4k0jW2RdO1Syv2kt0u0W1uEkLQuWCSjaTlGKsA3Q7TjpWlTu27t6/8G79dd73M+VLT+trL7ltbboeK+Lvhz46+JVj9q1qHw9o2pPoOtaT9isL+e6hia6jgSE+e8EZkGYnZj5SbdwUK+Cx9g0q1ex0uztpCpeGFI2K9MhQDj8qtUUu9v63/wAxvW1+l/xt/kgooooA5b4qf8kw8X/9ge8/9EPX88Vf0O/FT/kmHi//ALA95/6Iev54q7Zf7tD/ABS/KJyx/wB4n6R/OQUUUVynUFFFFABRRRQAUUUUAFFFFABRRRQAUUUUAFFFFABRRRQAUUUUAFFFFABRRRQAUUUUAFFFFABRRRQAUUUUAFFFFABRRRQAUUUUAFFFFABRRRQAUUUUAFFFFABRRRQAUUUUAFFFFABRRRQAUUUUAFFFFABRRRQAUUUUAFFFFABRRRQAUUUUAFFFFABRRRQAUUUUAFdD8O/+SgeGf+wna/8Ao1a56uh+Hf8AyUDwz/2E7X/0atdeD/3mn/iX5nLiv93qej/I/olooorhOo8l/aG8OPr2m+FLl9Mv9V0zSdZGoX0OmLvuEjW2nWOVI8/vDHM8MmwBidnCsflPmfw31Gf4q/EDwh4hgGpazd6DrGpQ3OrPafZbW3sVW6to4xlU8yWZhazOoDbSDnyhtU/U1Rw+VtPlbduf4MYzXbDE8lPk5ddUn5O9/wA+687mqqWViSvPPj54p1Lwt8MdTOh2lzqHiHUmj0rTLSzMYnkuJ2EYMfmOibkUvJ8zquIzkgc16HRXBKPMrPb9Ov4f8MzNNxd1v/X9fqj5EsfiFqnwv8K+NfDNvouqfCa0i1PT7+yl1hLCdtH0m8mjhvLtTDPcW+IplupC0hITzkaRCgOa/g/xXrOreJruw8IfFCXWLTX/ABzBpknjCCxsp5bq0Hh15i0bLELZ3Dwrtljj8vKAFHAdW+w6K1jL+bV/8Nb8vm279hLRu3VP72nr63d/kut2/kPUPiZ8R/C/w/vfEM/jq41S7k8PeKFjhl0yzjhguNMLpbXahYgxlby90gZjEzMdkUa4UdVrvjbxzbeLvFOtReMJ4dF0Hxjoehw+Ho7C18i5t72LTFn86VozKSrXjyRmN0KtkMZFKqv0lRRCXLLmauv+Cn+jXz8ik1yqMlfe/ne33Ws/vPkfQf7S8Hal4rtNAguIZviP4j1bSlvLSEsLLUI7yZTdM2GUH7H5jZYYJsUXqwFcNrvxX1D4RfBHQNG8K+J4fB2pw3niW6slvtQs7G0vo7bUp0S0jE1jdvcT5aPbbwLGzKW/eKdufvGisrNU1BPa2votPue3loDalUc3s23b1ev4aeup80XXxK8beLvEUGj6d4mfw6moeNLfSPtFrY280ltZyeGRfvHF5qMu/wA8l1dw+DgEOgKHm9S/t3x1eeAtSup21/xf4Sm8UNp968EaTXk2n6jFbqWWMKivPDG8bbFVf3zYUDAr67orapJS+BWtb70rX/Ud1aKa2ST897/fdfd5nx1ceNNd/wCE81L4p6Dp8t/q2s+BNa1XQ9NvLaQP9lhmsVs42jVPNw43zlMFgbhlHQCk+HvxM+IfjG38Pada/F3w5rdrrXiZNOOteGNW0/xBd2sJ0u+nlidk020hjbdBC8e6B2Vt28yJ+7r7GopRkopRtolb/wAmcvv1s+/zsZ63k31v/wCkqP4P3v8AhrnzT4e+Pd14Rfw+vjrxha2emuPEmj/2rqi29qNRvrHUlt7XJVFQXDxJK3lRhQ537U+XC8f4s8V+LfjB4V8MW1j4P1zxtqdl4Os9YGpaUdOhS01+4RJbWeRbm6t8NH5RfbGrcT/w8Z+xqKh3tpv/APtf/JK3+Fdi21zXitP+CrfclbW97vufLHij4w+HLPVNJ8faN4j0X+2/FWi2EN78PtdjUXus24kl2xWIJEn2hGnuEKBZkZlCFYyTIOq+EfjrwR4ZfVPB3iDUNN0z4i6h4ivrm70S/KLqOpytdu0F3HCfnmi8lYSkihljjiC7h5LBffaKb1uu9/ufT0X9WM7Pv2/BWv2v/XU+dP2Zf+Qpon/Yg6P/AOlF5X0XRRR0t6/i2/1Lk+abl3t+CS/QKKKKQgooooA5b4qf8kw8X/8AYHvP/RD1/PFX9DvxU/5Jh4v/AOwPef8Aoh6/nirtl/u0P8Uvyicsf94n6R/OQUUUVynUFFFFABRRRQAUUUUAFFFFABRRRQAUUUUAFFFFABRRRQAUUUUAFFFFABRRRQAUUUUAFFFFABRRRQAUUUUAFFFFABRRRQAUUUUAFFFFABRRRQAUUUUAFFFFABRRRQAUUUUAFFFFABRRRQAUUUUAFFFFABRRRQAUUUUAFFFFABRRRQAUUUUAFFFFABRRRQAUUUUAFdD8O/8AkoHhn/sJ2v8A6NWuerofh3/yUDwz/wBhO1/9GrXXg/8Aeaf+JfmcuK/3ep6P8j+iWiiiuE6jyX9obUtSt9N8KabYa5/wj0GsayLG8vDL5O6L7NPIIhKOYjJJHHEHX5wZBt+bFec+Ab3+w/iJ4OHh7y/DOl6rql/pN/4cjvWuftRtY7lZrsI3+rC3FuFMijMvmqZMMQtfSmraPYa9p89hqVnBf2Vwhjmt7mMSRyKeqsp4IPcGuc8B/CXwl8M0uR4c0S3097l2kmmGXlcli+C7EttDMxC5wNxwBmvQp4iEaLg1r+D31fmtLaPbS25tGaUbHX1xvxi+Iln8Kfhn4h8VX1xb2sWn2xMcl3MsMXnORHEHdiFVTI6AsSAM5rsqzdb8O6d4jWyXUbf7Slndx30Cl2VVmjOY3IBAbafmAORkA4yAR5slzK39W6/h6eqMk7O/9f19/oz55+Fvx+sdK+HPiDT9E8T2fxb1TRNdttE03UINbhnXUWvTG1t51ynmbFR5pI2ba7hbdiFc4Bs6X8YvHWg+KNesL7wpBqHiTVPFVvodrpI8Qs2n2hOi/a/MS4aDd5OYSW/cK43uwjcgK/sHiz4S+FfHF1fXWsaY091e2kNlNcQ3U1vL5cMxngKPG6skkcrF0kQh0Ykqwql4b+BvgzwnPb3Gn6Zctdw6kNXF5e6ldXdxJeC1a086SWaV3lbyHaP5y3GD1AI1i09Zb/8ADfnZt+tltcS0b9H97Tt8k7adlfryryvVP2ktZufBGr6hrvgUabpE3h/WrmP7B4lkW7e504Ml1CHjhRoY2ZX8q4R/MwFYxxMdo6O++PGs6P4q1LT4fB0cvhXQ9d03w9fa1PrR+0+ZexWZheKDyWMu2S8RZN8iYXDKZCWVe31D4M+DtU0M6PdaP5unGDULYw/aph+7vixu13B8/OWbnOVz8u2rtz8MfDV4mqJNpu9dT1O01i7HnyjzLu1+z+RJw3G37Jb/ACjCnZyDlskOVTvJaafmv05kvl6lKzglLfX8eXb7n+G/Tx++8Ra+3wD8QXUeq6gurR+N7qzjuPtTrMkP/CRtEkQfOQnklUC5xsIHSrWpftSXOh2XjK41PwzbQXGj3sdhp+iQXt3cazctLdNbQTXFilkZIoJGAZJYPtO9NxQMV2n0CX4FeDJvGTeJ20+8GoNdrqD2q6teLp0l0oAW4exEv2Z5gVVhI0RYMqtncoIhuv2f/BOotrrahZ6nqsmscTy6nrt/dyW+JRMPsjSzsbPEgRx9nMe1o4yMGNNuerak/n+G34/8Ec5c0pNLdtr5tu3y09dtNzi/Bf7RXinxpqfhrR4/h1JperamNQkuv7WubzT4IILWWzVpoRdWMVxMrJeDbugj/eRlPunzRwfw3+Inii1+A6+FrvXr/VPGeqxwy6Zql3cFro2V4sk0k3mYY7rdYr1VLf8APCIE/MDX0P4a+Ffh/wAK3Wm3VouqXd7p0F1bW15q+s3upTpFcPE8yGS5mkZgWgiI3E7duFwCcpp/wk8IaXPo09todulzo+mTaPYXDM7SwWcpQyRBySxBMSckk8HB5OVUipQ5Y7ta/j/wF3s2Om1Gzl0f6v8AR7d0vU8E0H9qbVfC/hH4daRaeEdc8b6i3hjSNT1m7httTu59txFgGN7eyuI5Jj5crEXMtuCdvznLFO+0H9oHWtU8S2UV54Ng0/w1f65qvh201T+1/MuZbuya7O42whAWF0s5PmMm9X+XyyuJG6eX9n/wU02gzW1nqmkzaJZQabaSaNr1/p7Paw/6mGcwToblE5ws28De/wDfbO9a/DTw3Z/2aIdN2f2bq11rlr+/kPl3lz9o8+Xlud32q4+U5Ub+AMLjoqyjNylHRtyt89vu/q5hTjy01GW6S+9Rd/k5W+S0s9Dk7D482LaP4c1bU7FdL03U/CNx4tubhrneLOKFbZnjPyjfxcE7vl+50548o+DfxXu/ihovxB8NeEviTpPiDxZqWip4h026t9Ygv10a5ulkSSzLR+Z5aQSpGRlWwJuFYDbXrWkfs0/DvQ1uEttGvHhmtXsfs91rF7cQw2ryRyNbQxyTMsMO6KP91GFQAFQuCQeu8UfD7QPGV5bXer2H2m6tra5s4ZknkidIZwgmUFGB58uM56gorDBANYys7tLdP85Pz/u7ro+5onZryf8Al06P4uvXyPAtE1CL7Tofw+s73xt4KvdW1j7Nr9jr/iGfUtQjjWynuFS0vpZp2VLgQ8SQyAqsUu0QThiut8VNPufhba/2VoGv+IVsh4U8SXqfb9bu72ZJkitjG3nzyPKxRmdlLOxTeQpAwB6Jb/s/+B4fD9/o8unX9/FezR3Mt9qWs3t5qIlj/wBS6X00zXEbR5JQpIpQsxXaSc2bT4H+D7XTPsLWN7fRtbXdm9xqWrXl5cyxXKos4knmlaWQlYo1DMxKqihSoGKJ+8mlvb9LfdfoVRlyTi5apP8AV/136X0R12hSPNoenySMzu1vGzMxySSoySavVHb28drbxQRLtijUIi5JwAMAVJVSalJtGFOLjBRe6QUUUVJoFFFFAHLfFT/kmHi//sD3n/oh6/nir+h34qf8kw8X/wDYHvP/AEQ9fzxV2y/3aH+KX5ROWP8AvE/SP5yCiiiuU6gooooAKKKKACiiigAooooAKKKKACiiigAooooAKKKKACiiigAooooAKKKKACiiigAooooAKKKKACiiigAooooAKKKKACiiigAooooAKKKKACiiigAooooAKKKKACiiigAooooAKKKKACiiigAooooAKKKKACiiigAooooAKKKKACiiigAooooAKKKKACiiigArofh3/wAlA8M/9hO1/wDRq1z1dD8O/wDkoHhn/sJ2v/o1a68H/vNP/EvzOXFf7vU9H+R/RLRRRXCdRw/xY+Jg+GWj6fOmmy6rfaldixtLdG2J5nlvIWlfB2RKkUjM4DFQpO09K5Pwj8ZtUTxlpHhnxAulatJrBP2PVfDsjPbxP5LTiGdWJ2Exo7I4J8wKTtj4B7b4ieBp/GlrpctjqraNq+k3ZvrC7EKzIspikiIkjb76FJZFIBVvm4ZSARwHww+C/iXSb7T7zxXq2niPS9Xv9WstN0WArE01zJcEySyPljiO6kRUXaF7mTgr6FP2HsXzWv8AO99bW/D9TaPJy67nttcn8UvGl54A8E3es6fpsGr36TW1tb2dzdtaxSSTXEcK75VjkKKDICSEY4HSusrgfjr4Eu/iV8L9W8PWNlpep3FzJbSfYdakMdndLFcRSvDMwjlIR1RlP7t/vdDXmyvbQzjbmVyt4Z+MlrH4Q1zWPHx0fwI2g6i2m6nPNrCyabHJiMo0d3KkO5WEsY+ZEIfcmOMnZ1n4weA/DvhXT/E+reNvDul+GtRKiy1m81a3hs7ospZfLmZwj5VSRtJyATXjuh/Afxf4W0zStU0XRvB+mX+k+In1nTvAttfTR6HYxPZNaPFb3K2oaJmMklwWW1C73ddmWaU3dN+Efj/wfrum+MdI03wjq3iOVtWN9od3qNxZ2Vp9unhnY210trK7FWgAfdAnmtI7/u/uHR2v8vxstPm+t7LrcnZaa6/hd/kreb6HpF18XtF0vxhrml6rd2Gk6Ppmk6bqh1y8vkit3+2XFzCiZbCr81uuG3HcZQABjnJ8D/Hiw8TL8RH1bT28OQeDb+5hmnuJ1eO4s4i4+2KcDapaGdSp6GJuSMGvONG/Zl8T+EfF3h3xNpmp6TqNz4f0TT9Pt9HuWe3065mjmvWmJURyGARpdqLeRd7IA6FdrZPRyfs/6xcapY3H9qWVrbT65qFxrcEau5vtMmu2u4oA2Fw4lWNWByuyW4AzuBpNe+0ttV+Vn+ena7s3YufKneOvw/P3feXlr+Om1zoPB/7Q/hq++FumeNfGl/pPw6tb68ubARa5q8MSJNFPLF5fmvsVnPks20dMEc4zXX3PxO8HWfia18OXHizQ4PEN3K0FvpMmpQrdzSLGkrIkRbezCOSNyAMhXU9CDXgGvfsw+Kfsfh64tvsms3VhNrsVxpsXjDVvDkbwX+oG6Rxd2KM7MqqqNC8ZQliQw2Dd1Fj+zncaVo/iG20220jTpL7xH4c1O02zyzNBZ6cmmqYGmaPe7AWlyEznPmAkqXbFxUZPXRX/AA5kvy978NGjON9n2/HT8N/PS+p7XD4k0i4+y+VqtlL9quJLS32XCHzpo9/mRJg/M6+XJuUcjY2ehrkPDPxch8QePPE/hxtLmt4tLjM1lfLIJF1NY2Mdz5aAAhoZgI2HOSynPOBwul/C74iaX4k0qFIfDDeH9B17VtcsLxtRuPtd39rjvDHFLB9n2RbJLsKWWSTcqlgFPy1D4K/Zx8VfD/VPA+rWnxF1LxFeaOLi3vrLW7axS0MN0pe7MJt7SOcsbhYZQJZWB2EMcncMdb6bW/F7fc1rfo/mU9Lr+rJ/qtvyZseGfj9rGpfD+PxvqfhKzHh7VI7Z/D8eg64uoXt9JcSrHDbzRvFDFBMzSICFmljUiTdIAm5t62+Ini/RbnQ7Xxf4S0nSrnV9WXToG0bXpL+IIbeeUuzSWsDBwYNpTbtw4IckFR58PgT4x13XNb117Twt8PtUle2voo/Dt1Pf22p6jBcpOl5dxtBbhGZUaF9u+R0mIMp8pK7hvDvj/wAbXnhm98T6d4b0F9G1pL77HpOq3GoB4ha3ETN50ltB8xaZMR+XgBGO87got6xTW9/wuvx3+VtE7k/zLydvWz9dL29XfVq1+x+HXi7/AIT7wLoXiP7J9g/tS0juvs3meZ5e4Z27sDOPXAro65T4U+FLvwL8N/Dfh+/khmvdNsY7aaS3YtGzKMEqSASPqBXV0PfQYUUUUgCiiigAooooAKKKKAOW+Kn/ACTDxf8A9ge8/wDRD1/PFX9DvxU/5Jh4v/7A95/6Iev54q7Zf7tD/FL8onLH/eJ+kfzkFFFFcp1BRRRQAUUUUAFFFFABRRRQAUUUUAFFFFABRRRQAUUUUAFFFFABRRRQAUUUUAFFFFABRRRQAUUUUAFFFFABRRRQAUUUUAFFFFABRRRQAUUUUAFFFFABRRRQAUUUUAFFFFABRRRQAUUUUAFFFFABRRRQAUUUUAFFFFABRRRQAUUUUAFFFFABRRRQAUUUUAFFFFABXQ/Dv/koHhn/ALCdr/6NWuerofh3/wAlA8M/9hO1/wDRq114P/eaf+JfmcuK/wB3qej/ACP6JaKKK4TqMPxd400bwLpX9o63erZWxcRR5Us80h+7HGigs7nsigsegBrB8K/GDSPEmsJo91a3/h3W5lMltp2sweTLcxjnfEclX45ZVJZMjeEJxWf8bvB9/wCKbLw3d2Okxa9/YmpnUJdMecQvcIbaeDETngSqZg65KjKD5k+8PMvhb4d8Q+MvFPhzWb/w9q1iNB1q/uH1TxJKVuHt9t3bW1tBESxx5UsDvISoYoDmUksvoU6NOVFzb19VvrbT5fjp1Noxi43bPpeqGva/pnhbRrzV9Z1C10rSrOIzXN7eSrFDCg6s7sQFA9TV+vPvjjpGp6p4LtptK0yTW59M1fTtVk0uJlV7uK3u4pnRNxALhULopIBdFGea87qr7XXyV9X8tzL8f18vnsbXgf4jaN8QobuTSY9WgNqyrJDrOi3uly4YHayx3UMbOhwQHUFSQRnINbw1K0Ootp4uoTfrEJza+YPNEZJUPtznaSCM9Mg188fGz4myfEHwPZW/h3SPHGl2E+pJBc67/wAI34jtZrIiKSQH7FZta386MVWMsrLCDKpLMUKVwWneH/Hdva6X4l+zeMB8ULz4dNaWE0o1BrX+04fNBW5gMptY5CrIyrcMA7nKuzZak21JJrv+EHL5apL5oXS68vxkl89G38rH2bRXxX4ZsfEdn4btm1TxT8RNd8D3GtRtrVvpnhzxVpeq2iC1mK+Wbq4udRkief7MH+yyBE2dAryk3tC1i71bQ9Fk8TXfxQvfAC6l4htxJoj6rJqi3MeobLNLptOzehFgWdQG+UMoE37wLWjjZtf1tf73su+ncV9FK39a/wCWvY+xq53xn8QfD3w9h0mbxFqcelxarqMGk2ckqMVkupiRFHlQdu4gjLYHvzXgOk/D34g+PprpNd13xdoWqWfg7TJtLnXUp7SBdU8/UMPcpbukU8qoLXzosmNtw3KRsIffaDf/AB68N+Hdf1C31Q6V4n19JIrL53GlWKaddQpKF5WNjMzS+ZgZMkQP3VpSXLK3Zr7r2+96+m77Fyja+vT8eXm+7p56o9+1jx3oWgeKNA8O39+sGta8Zhp1p5bs0/kp5khyoIUBecsQD0GTxW/Xy5p+hePPFHj/AMA+Mte0K+sddg1S50uSEozQ28Ntpt9F9pbaSiJPdSOyscbka3B5wK4HwLo3xQv/AA5qL3vjLxoviW8udFi1jTYvDWuWLWs51W1F1Nb3V5c3FoyJH9pDLYqkDRsWKmNVAqMeaShfe347ee2+mjav5RfX7l+j8t9tdUtD7hrD8a+NtD+Hfhu61/xHqCaXo9qUE11IrMqbnCAkKCcZYZOMAZJwATXhMcniH4UaxKGXxtqfgvQ/GexTjUdbvH06bRlOf+WtxdwrezMP+WmwjsI/loKPiP4403wrZWvhH+2bWO+1zVdRtvG19daVG0L3VxBZQF/stwxPlTM4i2jascRyBtBiV0k463t+K5reTsXblfv/ANbr/L7z3Pxz8VfDvw7ewi1aXUJ7u/DvbWWjaTd6rdSRpt3y+RaRSyCNS6AyFQoLoCcsoNHXfjh4O8P6paabNqF5e3k8MVy0ekaVd6j9lhk/1c10beJxaxsAxWSYopCOQcI2PEmuNY0X4a+D59dtvGfhv4m+G7W60O21bw7od3rlvdtCyJsnSO3YTW1x5UEnmukJ+9skhfdjr/AvjXVPhzrXiGHxj4P1+LWfE99b6tbSaHpVxqkEsj2VtE9vJPAjx27RSRGPdO0cZQIwcjeVuKUm0vl566JebWvl2s0zNtxSvv18u76aX08/k0vVtL+Inh7WdVg02z1Dzr2eS8ijj8mQbmtJFjuBkrj5HdR15zlcjmukrwT4e+G9Xs/iXo91caVfW9sl/wCK3eaW3dUVZr+BoSWIwA6gsp/iAJGa97qFrGL7ot6Skuza+5tBRRRQIKKKKACiiigDlvip/wAkw8X/APYHvP8A0Q9fzxV/Q78VP+SYeL/+wPef+iHr+eKu2X+7Q/xS/KJyx/3ifpH85BRRRXKdQUUUUAFFFFABRRRQAUUUUAFFFFABRRRQAUUUUAFFFFABRRRQAUUUUAFFFFABRRRQAUUUUAFFFFABRRRQAUUUUAFFFFABRRRQAUUUUAFFFFABRRRQAUUUUAFFFFABRRRQAUUUUAFFFFABRRRQAUUUUAFFFFABRRRQAUUUUAFFFFABRRRQAUUUUAFFFFABRRRQAV0Pw7/5KB4Z/wCwna/+jVrnq6H4d/8AJQPDP/YTtf8A0atdeD/3mn/iX5nLiv8Ad6no/wAj+iWiiiuE6gpqSLIMowYeqnNeT/tDalqVvpvhTTbDXP8AhHoNY1kWN5eGXyd0X2aeQRCUcxGSSOOIOvzgyDb82K858A3v9h/ETwcPD3l+GdL1XVL/AEm/8OR3rXP2o2sdys12Eb/Vhbi3CmRRmXzVMmGIWu2GGc6fPfu/uv8A5PZPzsaqndXPqCiivL/2ll1Ob4O6tbaPrd94c1K7urCzi1XTZDHcW3m3sEZdCO+HPHQ8g8GuFuyM0rux6hRXy94++LWveJbf4dW9hd3Gl3dhrWlf8JOLG4aIrcvqUdkbNiow0but4xXcMiGPIIer/i79qP7PqfxB0G88Nm70jTdC1e+s9W0XUdShW++xxgywi7NlDFFL8zLutrido3RgdrLVJOSvHu0vkk/1CKcpqn1dv/Jm0l+Hc9z8aeCdO8e6Smnancava26SiYPoutXmlTbgCADLayxyFfmPyltpOCRkDFjwl4T0nwL4dstD0O0FlplmmyKLe0jHJLM7u5LO7MSzO5LMzFmJJJrym++PGs6P4q1LT4fB0cvhXQ9d03w9fa1PrR+0+ZexWZheKDyWMu2S8RZN8iYXDKZCWVeR8G/EzxB4JuPiTFqGpXWvXOqavqM3ha21CYsFuEvTZCxQ4LLEHa0YcEKJpCBhaNdorfX1a5fxtJNfcFm4xm/Jffd/pr63Z9D+JvDln4u0G80fUGu0srtPLlNjezWc23IOFmhdJE6fwsMjI6E1a0zTLTRdNtdP0+1hsrC0iWC3trdAkcUagKqKo4CgAAAdMV8p+GP2h9d+GPwv8NaOmk6v8RfFlzd62zTXS6ndFre01KWAs8llZXkgclogqtGseARvXCq3fwftI63daxPKngKSz8L2Wr6Vo9/fanqRt7+CTUIbN4Qtn5LZaOS9RJVeRNoG5TIdyrUYOTtDXW342/N2IT5vkm/Pp+emm7Pd6K840f4wf2r/AMIuTpPk/wBt69qWif8AHznyfsn2v979z5t/2T7vGPM6nbz5N8GP2hNE8ffGK+ttJ+Iel66PFlrezWeh2+rQXb6O9lKI4j5CuWj8+BvOZSAAYjnBJzn1t5N/dr+PT7i3orvul97sfUFFfJ+maprPw+0dvD2qar4q8N/EnVLjTbHUtW1TW5NWsLpLi9it5dR01Z2khhy8jIsQhh8tpot8Gzy8+la14Pj+F2qeBrXQ9b8SPa6n4lRLqLVvEF7qRcCyuyV33MsjhCVQmMNsyikKDkmn8KkndXt89L/LX16NJpi25k90m7eVm/xt92uzV/ZqK4P4D6ld6x8GfBt7f3U19e3GmQyTXFxIZJJGK8szE5J9zXeUPR2AKKKKQBRRRQAUUUUAFFFFAHLfFT/kmHi//sD3n/oh6/nir+h34qf8kw8X/wDYHvP/AEQ9fzxV2y/3aH+KX5ROWP8AvE/SP5yCiiiuU6gooooAKKKKACiiigAooooAKKKKACiiigAooooAKKKKACiiigAooooAKKKKACiiigAooooAKKKKACiiigAooooAKKKKACiiigAooooAKKKKACiiigAooooAKKKKACiiigAooooAKKKKACiiigAooooAKKKKACiiigAooooAKKKKACiiigAooooAKKKKACiiigArofh5/wAlA8M/9hO1/wDRq1z1T2N5Np15b3du/lzwSLLG4/hZTkH8xW1CoqVWFR9Gn9zMa0HUpyguqaP6PlYMoIOQeQaWvm79kf8Aa88KfHPwFpdpdarbaf4ws4EhvdOuZAjOygLvTJ+YNx05znivob+1rL/n8t/+/q/40qlGdOVrXXR9/MVOtGavez6rsJq2j2GvafPYalZwX9lcIY5re5jEkcinqrKeCD3BrnPAfwl8JfDNLkeHNEt9Pe5dpJphl5XJYvguxLbQzMQucDccAZrpP7Wsv+fy3/7+r/jR/a1l/wA/lv8A9/V/xqV7VRcFez6G3tFa1y3Wb4g8O6f4p006fqlv9qtPOhn8veyfPFIssZypB4dFOOhxg5HFT/2tZf8AP5b/APf1f8aP7Wsv+fy3/wC/q/41HJLsLnj3Obm+EvhCefUpjodvHNqWr22u3kkLPG099b+V5MzFSMlfIi46HbyDk551f2Zvh2t1qszaPeTDUre+tJbe41m+lt4Ybwk3cdvC0xjtlkJywhVBkKeqjHo39rWX/P5b/wDf1f8AGj+1rL/n8t/+/q/40KMkrJf1ovySXyXYFUSfMnr/AE/zbfzMG5+GPhq8TVEm03eup6naaxdjz5R5l3a/Z/Ik4bjb9kt/lGFOzkHLZb/wqzwobrTLp9Et5bnTNUuNaspZiztb3k4kEsqlicFhNJx0G7gDAx0H9rWX/P5b/wDf1f8AGj+1rL/n8t/+/q/40+WfZ/1b/Jfcuwc8bct9P+Bb8tPQ4bVv2f8AwRq2n6famw1DTvsE91cW13o+tX2nXcbXMpmuFFzbzJKY5JG3GMvsyqfL8i42G+FnhmS11CCTT5Jk1DUbPVroy3czvNdWotxbysxfdlfslvxnDbPmDbmz0P8Aa1l/z+W//f1f8aP7Wsv+fy3/AO/q/wCNCjOOqT/rX89QU4rZnCL+z54Gj8S3Ourpt8t/NcXF3sGs3v2aGa4jkjnlht/O8qF5Flk3NGilmYsTu5rpL34e+HdQ03QNPn0uJrPQZY5tMhVmVbZo4mhXbgjI8t3QqcgqxBBzWv8A2tZf8/lv/wB/V/xo/tay/wCfy3/7+r/jU+zla1u34bfdfTsHPG/NfXX8d/v69zhtL/Z/8C6Xa6tbPpV1rEGp232O4TX9Vu9VC2+7d5MX2qWTyY9wVtke1cohxlVxa8O/BXwr4Z+zNbw6rfz212t9Dda1rl9qdwkqxyRqBLczSPsCyy4j3bAXYhckmuv/ALWsv+fy3/7+r/jR/a1l/wA/lv8A9/V/xp8ku39b/mLmj3/rb8iHw74e0/wnoVjo2lW/2XTbGJYLeHez7EUYA3MST+JJrRqp/a1l/wA/lv8A9/V/xo/tay/5/Lf/AL+r/jRyS7D549y3RVT+1rL/AJ/Lf/v6v+NH9rWX/P5b/wDf1f8AGjkl2Dnj3LdFVP7Wsv8An8t/+/q/40f2tZf8/lv/AN/V/wAaOSXYOePct0VU/tay/wCfy3/7+r/jR/a1l/z+W/8A39X/ABo5Jdg549y3RVT+1rL/AJ/Lf/v6v+NH9rWX/P5b/wDf1f8AGjkl2Dnj3MH4qf8AJMPF/wD2B7z/ANEPX88Vfr/+3j+2H4d+G/w61Twh4d1W31Pxfq8Rtilo4kW0ibh3dhkZ6gL9elfkBXXUTp0YU5aO7dvJ2t+X9XOam1OrKcdVZL7r3/MKKKK5DrCiiigAooooAKKKKACiiigAooooAKKKKACiiigAooooAKKKKACiiigAooooAKKKKACiiigAooooAKKKKACiiigAooooAKKKKACiiigAooooAKKKKACiiigAooooAKKKKACiiigAooooAKKKKACiiigAooooAKKKKACiiigAooooAKKKKACiiigAooooAKKKKACiiigCazvLjT7hJ7WeS2nQ5WWFyjKfYjkVr/8ACeeJv+hi1b/wOl/+KrCorWNWpTVoSa+ZlKlTm7yin8jd/wCE88Tf9DFq3/gdL/8AFUf8J54m/wChi1b/AMDpf/iqwqKv6zX/AJ397J+r0f5F9yN3/hPPE3/Qxat/4HS//FUf8J54m/6GLVv/AAOl/wDiqwqKPrNf+d/ew+r0f5F9yN3/AITzxN/0MWrf+B0v/wAVR/wnnib/AKGLVv8AwOl/+KrCoo+s1/5397D6vR/kX3I3f+E88Tf9DFq3/gdL/wDFUf8ACeeJv+hi1b/wOl/+KrCoo+s1/wCd/ew+r0f5F9yN3/hPPE3/AEMWrf8AgdL/APFUf8J54m/6GLVv/A6X/wCKrCoo+s1/5397D6vR/kX3I3f+E88Tf9DFq3/gdL/8VR/wnnib/oYtW/8AA6X/AOKrCoo+s1/5397D6vR/kX3I3f8AhPPE3/Qxat/4HS//ABVH/CeeJv8AoYtW/wDA6X/4qsKij6zX/nf3sPq9H+Rfcjd/4TzxN/0MWrf+B0v/AMVR/wAJ54m/6GLVv/A6X/4qsKij6zX/AJ397D6vR/kX3I3f+E88Tf8AQxat/wCB0v8A8VR/wnnib/oYtW/8Dpf/AIqsKij6zX/nf3sPq9H+Rfcjd/4TzxN/0MWrf+B0v/xVH/CeeJv+hi1b/wADpf8A4qsKij6zX/nf3sPq9H+Rfcjd/wCE88Tf9DFq3/gdL/8AFUf8J54m/wChi1b/AMDpf/iqwqKPrNf+d/ew+r0f5F9yN3/hPPE3/Qxat/4HS/8AxVH/AAnnib/oYtW/8Dpf/iqwqKPrNf8Anf3sPq9H+Rfch800lxK0ssjSyMcs7kkk+pJplFFc++rN9gooooAKKKKACiiigAooooAKKKKACiiigAooooAKKKKACiiigAooooAKKKKACiiigAooooAKKKKACiiigAooooAKKKKACiiigAooooAKKKKACiiigAooooAKKKKACiiigAooooAKKKKACiiigAooooAKKKKACiiigAooooAKKKKACiiigAooooAKKKKACiiigAooooAKKKKACiiigAooooAKKKKACiiigAooooAKKKKACiiigAooooAKKKKACiiigAooooAKKKKACiiigAooooAKKKKACiiigAooooAKKKKACiiigAooooAKKKKACiiigAooooAKKKKACiiigAooooAKKKKACiiigAooooAKKKKACiiigAooooA//9k=;" vertex="1" parent="WIyWlLk6GJQsqaUBKTNV-1">
          <mxGeometry width="824" height="850" as="geometry" />
        </mxCell>
        <mxCell id="yYA8-dyRNDgJFtu62r0G-10" value="" style="endArrow=classic;html=1;strokeColor=#CCCCCC;strokeWidth=2;exitX=0.5;exitY=1;exitDx=0;exitDy=0;entryX=0.5;entryY=0;entryDx=0;entryDy=0;" edge="1" parent="WIyWlLk6GJQsqaUBKTNV-1">
          <mxGeometry width="50" height="50" relative="1" as="geometry">
            <mxPoint x="409" y="150" as="sourcePoint" />
            <mxPoint x="409" y="180" as="targetPoint" />
          </mxGeometry>
        </mxCell>
        <mxCell id="yYA8-dyRNDgJFtu62r0G-18" value="" style="endArrow=classic;html=1;strokeColor=#CCCCCC;strokeWidth=2;exitX=1;exitY=0.5;exitDx=0;exitDy=0;entryX=0.5;entryY=0;entryDx=0;entryDy=0;" edge="1" parent="WIyWlLk6GJQsqaUBKTNV-1">
          <mxGeometry width="50" height="50" relative="1" as="geometry">
            <mxPoint x="250" y="575" as="sourcePoint" />
            <mxPoint x="419" y="610" as="targetPoint" />
            <Array as="points">
              <mxPoint x="419" y="575" />
            </Array>
          </mxGeometry>
        </mxCell>
        <mxCell id="yYA8-dyRNDgJFtu62r0G-19" value="" style="endArrow=classic;html=1;strokeColor=#CCCCCC;strokeWidth=2;exitX=0.5;exitY=1;exitDx=0;exitDy=0;entryX=0.5;entryY=0;entryDx=0;entryDy=0;" edge="1" parent="WIyWlLk6GJQsqaUBKTNV-1">
          <mxGeometry width="50" height="50" relative="1" as="geometry">
            <mxPoint x="419" y="480" as="sourcePoint" />
            <mxPoint x="419" y="610" as="targetPoint" />
          </mxGeometry>
        </mxCell>
        <mxCell id="yYA8-dyRNDgJFtu62r0G-20" value="" style="endArrow=classic;html=1;strokeColor=#CCCCCC;strokeWidth=2;exitX=0.5;exitY=1;exitDx=0;exitDy=0;entryX=0.5;entryY=0;entryDx=0;entryDy=0;" edge="1" parent="WIyWlLk6GJQsqaUBKTNV-1">
          <mxGeometry width="50" height="50" relative="1" as="geometry">
            <mxPoint x="585" y="480" as="sourcePoint" />
            <mxPoint x="419" y="610" as="targetPoint" />
            <Array as="points">
              <mxPoint x="585" y="510" />
              <mxPoint x="419" y="510" />
            </Array>
          </mxGeometry>
        </mxCell>
        <mxCell id="yYA8-dyRNDgJFtu62r0G-21" value="" style="endArrow=classic;html=1;strokeColor=#CCCCCC;strokeWidth=2;entryX=0.5;entryY=0;entryDx=0;entryDy=0;" edge="1" parent="WIyWlLk6GJQsqaUBKTNV-1">
          <mxGeometry width="50" height="50" relative="1" as="geometry">
            <mxPoint x="414" y="335" as="sourcePoint" />
            <mxPoint x="145" y="370" as="targetPoint" />
            <Array as="points">
              <mxPoint x="414" y="350" />
              <mxPoint x="145" y="350" />
            </Array>
          </mxGeometry>
        </mxCell>
        <mxCell id="yYA8-dyRNDgJFtu62r0G-22" value="" style="endArrow=classic;html=1;strokeColor=#CCCCCC;strokeWidth=2;exitX=0.5;exitY=0;exitDx=0;exitDy=0;entryX=0.5;entryY=0;entryDx=0;entryDy=0;" edge="1" parent="WIyWlLk6GJQsqaUBKTNV-1">
          <mxGeometry width="50" height="50" relative="1" as="geometry">
            <mxPoint x="414" y="330" as="sourcePoint" />
            <mxPoint x="665" y="370" as="targetPoint" />
            <Array as="points">
              <mxPoint x="414" y="350" />
              <mxPoint x="665" y="350" />
            </Array>
          </mxGeometry>
        </mxCell>
        <mxCell id="yYA8-dyRNDgJFtu62r0G-23" value="" style="endArrow=classic;html=1;strokeColor=#CCCCCC;strokeWidth=2;" edge="1" parent="WIyWlLk6GJQsqaUBKTNV-1">
          <mxGeometry width="50" height="50" relative="1" as="geometry">
            <mxPoint x="414" y="340" as="sourcePoint" />
            <mxPoint x="414" y="373" as="targetPoint" />
          </mxGeometry>
        </mxCell>
        <mxCell id="yYA8-dyRNDgJFtu62r0G-25" value="" style="endArrow=classic;html=1;strokeColor=#CCCCCC;strokeWidth=2;exitX=0;exitY=0.5;exitDx=0;exitDy=0;entryX=0;entryY=0.5;entryDx=0;entryDy=0;" edge="1" parent="WIyWlLk6GJQsqaUBKTNV-1">
          <mxGeometry width="50" height="50" relative="1" as="geometry">
            <mxPoint x="320" y="315" as="sourcePoint" />
            <mxPoint x="320" y="655" as="targetPoint" />
            <Array as="points">
              <mxPoint x="280" y="315" />
              <mxPoint x="280" y="655" />
            </Array>
          </mxGeometry>
        </mxCell>
      </root>
    </mxGraphModel>
  </diagram>
</mxfile>
